<svg width="1800" height="590" viewBox="0 0 1800 590" fill="none" xmlns="http://www.w3.org/2000/svg">
<rect x="482" y="83" width="185" height="107" rx="10" fill="#0079B8"/>
<path d="M546.683 142.5V128.34H550.123V139.52H555.603V142.5H546.683ZM564.538 136.38C564.538 135.86 564.372 135.413 564.038 135.04C563.718 134.667 563.232 134.48 562.578 134.48C562.258 134.48 561.965 134.533 561.698 134.64C561.432 134.733 561.198 134.867 560.998 135.04C560.798 135.213 560.638 135.42 560.518 135.66C560.398 135.887 560.332 136.127 560.318 136.38H564.538ZM567.558 137.64C567.558 137.773 567.558 137.907 567.558 138.04C567.558 138.173 567.552 138.3 567.538 138.42H560.318C560.345 138.7 560.425 138.953 560.558 139.18C560.705 139.407 560.885 139.607 561.098 139.78C561.325 139.94 561.572 140.067 561.838 140.16C562.118 140.253 562.405 140.3 562.698 140.3C563.218 140.3 563.658 140.207 564.018 140.02C564.378 139.82 564.672 139.567 564.898 139.26L567.178 140.7C566.712 141.38 566.092 141.907 565.318 142.28C564.558 142.64 563.672 142.82 562.658 142.82C561.912 142.82 561.205 142.707 560.538 142.48C559.872 142.24 559.285 141.9 558.778 141.46C558.285 141.007 557.892 140.453 557.598 139.8C557.318 139.147 557.178 138.4 557.178 137.56C557.178 136.747 557.318 136.013 557.598 135.36C557.878 134.693 558.258 134.133 558.738 133.68C559.218 133.213 559.785 132.853 560.438 132.6C561.092 132.347 561.798 132.22 562.558 132.22C563.292 132.22 563.965 132.347 564.578 132.6C565.192 132.84 565.718 133.193 566.158 133.66C566.598 134.127 566.938 134.693 567.178 135.36C567.432 136.027 567.558 136.787 567.558 137.64ZM576.355 138.16H575.935C575.575 138.16 575.209 138.18 574.835 138.22C574.475 138.247 574.149 138.307 573.855 138.4C573.575 138.493 573.342 138.633 573.155 138.82C572.969 138.993 572.875 139.227 572.875 139.52C572.875 139.707 572.915 139.867 572.995 140C573.089 140.133 573.202 140.24 573.335 140.32C573.469 140.4 573.622 140.46 573.795 140.5C573.969 140.527 574.135 140.54 574.295 140.54C574.962 140.54 575.469 140.36 575.815 140C576.175 139.627 576.355 139.127 576.355 138.5V138.16ZM570.335 133.9C570.922 133.34 571.602 132.92 572.375 132.64C573.162 132.36 573.962 132.22 574.775 132.22C575.615 132.22 576.322 132.327 576.895 132.54C577.482 132.74 577.955 133.06 578.315 133.5C578.675 133.927 578.935 134.473 579.095 135.14C579.269 135.793 579.355 136.573 579.355 137.48V142.5H576.355V141.44H576.295C576.042 141.853 575.655 142.173 575.135 142.4C574.629 142.627 574.075 142.74 573.475 142.74C573.075 142.74 572.662 142.687 572.235 142.58C571.809 142.473 571.415 142.3 571.055 142.06C570.709 141.82 570.422 141.5 570.195 141.1C569.969 140.7 569.855 140.207 569.855 139.62C569.855 138.9 570.049 138.32 570.435 137.88C570.835 137.44 571.342 137.1 571.955 136.86C572.582 136.62 573.275 136.46 574.035 136.38C574.795 136.3 575.535 136.26 576.255 136.26V136.1C576.255 135.607 576.082 135.247 575.735 135.02C575.389 134.78 574.962 134.66 574.455 134.66C573.989 134.66 573.535 134.76 573.095 134.96C572.669 135.16 572.302 135.4 571.995 135.68L570.335 133.9ZM589.263 135.22C589.117 135.18 588.97 135.153 588.823 135.14C588.69 135.127 588.557 135.12 588.423 135.12C587.983 135.12 587.61 135.2 587.303 135.36C587.01 135.52 586.77 135.713 586.583 135.94C586.41 136.167 586.283 136.413 586.203 136.68C586.123 136.947 586.083 137.18 586.083 137.38V142.5H582.803V132.54H585.963V133.98H586.003C586.257 133.473 586.617 133.06 587.083 132.74C587.55 132.42 588.09 132.26 588.703 132.26C588.837 132.26 588.963 132.267 589.083 132.28C589.217 132.293 589.323 132.313 589.403 132.34L589.263 135.22ZM598.273 142.5V137.06C598.273 136.78 598.246 136.513 598.193 136.26C598.153 136.007 598.08 135.787 597.973 135.6C597.866 135.4 597.713 135.247 597.513 135.14C597.326 135.02 597.086 134.96 596.793 134.96C596.5 134.96 596.24 135.02 596.013 135.14C595.8 135.247 595.62 135.4 595.473 135.6C595.326 135.8 595.213 136.033 595.133 136.3C595.066 136.553 595.033 136.82 595.033 137.1V142.5H591.733V132.54H594.913V133.92H594.953C595.073 133.707 595.226 133.5 595.413 133.3C595.613 133.087 595.84 132.907 596.093 132.76C596.36 132.613 596.646 132.493 596.953 132.4C597.26 132.307 597.586 132.26 597.933 132.26C598.6 132.26 599.166 132.38 599.633 132.62C600.1 132.86 600.473 133.173 600.753 133.56C601.046 133.933 601.253 134.367 601.373 134.86C601.506 135.353 601.573 135.847 601.573 136.34V142.5H598.273Z" fill="white"/>
<g opacity="0.5">
<rect x="699" y="83" width="185" height="107" rx="10" fill="#0079B8"/>
<path d="M732.813 131.26V142.5H729.393V131.26H725.393V128.34H736.813V131.26H732.813ZM743.16 138.16H742.74C742.38 138.16 742.013 138.18 741.64 138.22C741.28 138.247 740.953 138.307 740.66 138.4C740.38 138.493 740.147 138.633 739.96 138.82C739.773 138.993 739.68 139.227 739.68 139.52C739.68 139.707 739.72 139.867 739.8 140C739.893 140.133 740.007 140.24 740.14 140.32C740.273 140.4 740.427 140.46 740.6 140.5C740.773 140.527 740.94 140.54 741.1 140.54C741.767 140.54 742.273 140.36 742.62 140C742.98 139.627 743.16 139.127 743.16 138.5V138.16ZM737.14 133.9C737.727 133.34 738.407 132.92 739.18 132.64C739.967 132.36 740.767 132.22 741.58 132.22C742.42 132.22 743.127 132.327 743.7 132.54C744.287 132.74 744.76 133.06 745.12 133.5C745.48 133.927 745.74 134.473 745.9 135.14C746.073 135.793 746.16 136.573 746.16 137.48V142.5H743.16V141.44H743.1C742.847 141.853 742.46 142.173 741.94 142.4C741.433 142.627 740.88 142.74 740.28 142.74C739.88 142.74 739.467 142.687 739.04 142.58C738.613 142.473 738.22 142.3 737.86 142.06C737.513 141.82 737.227 141.5 737 141.1C736.773 140.7 736.66 140.207 736.66 139.62C736.66 138.9 736.853 138.32 737.24 137.88C737.64 137.44 738.147 137.1 738.76 136.86C739.387 136.62 740.08 136.46 740.84 136.38C741.6 136.3 742.34 136.26 743.06 136.26V136.1C743.06 135.607 742.887 135.247 742.54 135.02C742.193 134.78 741.767 134.66 741.26 134.66C740.793 134.66 740.34 134.76 739.9 134.96C739.473 135.16 739.107 135.4 738.8 135.68L737.14 133.9ZM749.648 142.5V127.38H752.968V142.5H749.648ZM767.265 142.5H763.205L759.945 137.72H759.885V142.5H756.585V127.38H759.885V136.58H759.945L763.125 132.54H767.105L763.265 137.04L767.265 142.5ZM779.02 135V138.8C779.02 139.267 779.106 139.62 779.28 139.86C779.466 140.087 779.793 140.2 780.26 140.2C780.42 140.2 780.586 140.187 780.76 140.16C780.946 140.133 781.1 140.093 781.22 140.04L781.26 142.44C781.033 142.52 780.746 142.587 780.4 142.64C780.053 142.707 779.706 142.74 779.36 142.74C778.693 142.74 778.133 142.66 777.68 142.5C777.226 142.327 776.86 142.087 776.58 141.78C776.313 141.46 776.12 141.087 776 140.66C775.88 140.22 775.82 139.733 775.82 139.2V135H774.22V132.54H775.8V129.92H779.02V132.54H781.36V135H779.02ZM794.461 137.48C794.461 138.293 794.314 139.033 794.021 139.7C793.728 140.353 793.328 140.913 792.821 141.38C792.314 141.833 791.728 142.187 791.061 142.44C790.394 142.693 789.681 142.82 788.921 142.82C788.174 142.82 787.461 142.693 786.781 142.44C786.114 142.187 785.528 141.833 785.021 141.38C784.528 140.913 784.134 140.353 783.841 139.7C783.548 139.033 783.401 138.293 783.401 137.48C783.401 136.667 783.548 135.933 783.841 135.28C784.134 134.627 784.528 134.073 785.021 133.62C785.528 133.167 786.114 132.82 786.781 132.58C787.461 132.34 788.174 132.22 788.921 132.22C789.681 132.22 790.394 132.34 791.061 132.58C791.728 132.82 792.314 133.167 792.821 133.62C793.328 134.073 793.728 134.627 794.021 135.28C794.314 135.933 794.461 136.667 794.461 137.48ZM791.301 137.48C791.301 137.16 791.248 136.847 791.141 136.54C791.034 136.233 790.881 135.967 790.681 135.74C790.481 135.5 790.234 135.307 789.941 135.16C789.648 135.013 789.308 134.94 788.921 134.94C788.534 134.94 788.194 135.013 787.901 135.16C787.608 135.307 787.361 135.5 787.161 135.74C786.974 135.967 786.828 136.233 786.721 136.54C786.628 136.847 786.581 137.16 786.581 137.48C786.581 137.8 786.628 138.113 786.721 138.42C786.828 138.727 786.981 139.007 787.181 139.26C787.381 139.5 787.628 139.693 787.921 139.84C788.214 139.987 788.554 140.06 788.941 140.06C789.328 140.06 789.668 139.987 789.961 139.84C790.254 139.693 790.501 139.5 790.701 139.26C790.901 139.007 791.048 138.727 791.141 138.42C791.248 138.113 791.301 137.8 791.301 137.48ZM811.198 132.02C810.904 131.647 810.518 131.353 810.038 131.14C809.571 130.913 809.118 130.8 808.678 130.8C808.451 130.8 808.218 130.82 807.978 130.86C807.751 130.9 807.544 130.98 807.358 131.1C807.171 131.207 807.011 131.353 806.878 131.54C806.758 131.713 806.698 131.94 806.698 132.22C806.698 132.46 806.744 132.66 806.838 132.82C806.944 132.98 807.091 133.12 807.278 133.24C807.478 133.36 807.711 133.473 807.978 133.58C808.244 133.673 808.544 133.773 808.878 133.88C809.358 134.04 809.858 134.22 810.378 134.42C810.898 134.607 811.371 134.86 811.798 135.18C812.224 135.5 812.578 135.9 812.858 136.38C813.138 136.847 813.278 137.433 813.278 138.14C813.278 138.953 813.124 139.66 812.818 140.26C812.524 140.847 812.124 141.333 811.618 141.72C811.111 142.107 810.531 142.393 809.878 142.58C809.224 142.767 808.551 142.86 807.858 142.86C806.844 142.86 805.864 142.687 804.918 142.34C803.971 141.98 803.184 141.473 802.558 140.82L804.798 138.54C805.144 138.967 805.598 139.327 806.158 139.62C806.731 139.9 807.298 140.04 807.858 140.04C808.111 140.04 808.358 140.013 808.598 139.96C808.838 139.907 809.044 139.82 809.218 139.7C809.404 139.58 809.551 139.42 809.658 139.22C809.764 139.02 809.818 138.78 809.818 138.5C809.818 138.233 809.751 138.007 809.618 137.82C809.484 137.633 809.291 137.467 809.038 137.32C808.798 137.16 808.491 137.02 808.118 136.9C807.758 136.767 807.344 136.627 806.878 136.48C806.424 136.333 805.978 136.16 805.538 135.96C805.111 135.76 804.724 135.507 804.378 135.2C804.044 134.88 803.771 134.5 803.558 134.06C803.358 133.607 803.258 133.06 803.258 132.42C803.258 131.633 803.418 130.96 803.738 130.4C804.058 129.84 804.478 129.38 804.998 129.02C805.518 128.66 806.104 128.4 806.758 128.24C807.411 128.067 808.071 127.98 808.738 127.98C809.538 127.98 810.351 128.127 811.178 128.42C812.018 128.713 812.751 129.147 813.378 129.72L811.198 132.02ZM822.234 138.16H821.814C821.454 138.16 821.088 138.18 820.714 138.22C820.354 138.247 820.028 138.307 819.734 138.4C819.454 138.493 819.221 138.633 819.034 138.82C818.848 138.993 818.754 139.227 818.754 139.52C818.754 139.707 818.794 139.867 818.874 140C818.968 140.133 819.081 140.24 819.214 140.32C819.348 140.4 819.501 140.46 819.674 140.5C819.848 140.527 820.014 140.54 820.174 140.54C820.841 140.54 821.348 140.36 821.694 140C822.054 139.627 822.234 139.127 822.234 138.5V138.16ZM816.214 133.9C816.801 133.34 817.481 132.92 818.254 132.64C819.041 132.36 819.841 132.22 820.654 132.22C821.494 132.22 822.201 132.327 822.774 132.54C823.361 132.74 823.834 133.06 824.194 133.5C824.554 133.927 824.814 134.473 824.974 135.14C825.148 135.793 825.234 136.573 825.234 137.48V142.5H822.234V141.44H822.174C821.921 141.853 821.534 142.173 821.014 142.4C820.508 142.627 819.954 142.74 819.354 142.74C818.954 142.74 818.541 142.687 818.114 142.58C817.688 142.473 817.294 142.3 816.934 142.06C816.588 141.82 816.301 141.5 816.074 141.1C815.848 140.7 815.734 140.207 815.734 139.62C815.734 138.9 815.928 138.32 816.314 137.88C816.714 137.44 817.221 137.1 817.834 136.86C818.461 136.62 819.154 136.46 819.914 136.38C820.674 136.3 821.414 136.26 822.134 136.26V136.1C822.134 135.607 821.961 135.247 821.614 135.02C821.268 134.78 820.841 134.66 820.334 134.66C819.868 134.66 819.414 134.76 818.974 134.96C818.548 135.16 818.181 135.4 817.874 135.68L816.214 133.9ZM828.722 142.5V127.38H832.042V142.5H828.722ZM842.499 136.38C842.499 135.86 842.333 135.413 841.999 135.04C841.679 134.667 841.193 134.48 840.539 134.48C840.219 134.48 839.926 134.533 839.659 134.64C839.393 134.733 839.159 134.867 838.959 135.04C838.759 135.213 838.599 135.42 838.479 135.66C838.359 135.887 838.293 136.127 838.279 136.38H842.499ZM845.519 137.64C845.519 137.773 845.519 137.907 845.519 138.04C845.519 138.173 845.513 138.3 845.499 138.42H838.279C838.306 138.7 838.386 138.953 838.519 139.18C838.666 139.407 838.846 139.607 839.059 139.78C839.286 139.94 839.533 140.067 839.799 140.16C840.079 140.253 840.366 140.3 840.659 140.3C841.179 140.3 841.619 140.207 841.979 140.02C842.339 139.82 842.633 139.567 842.859 139.26L845.139 140.7C844.673 141.38 844.053 141.907 843.279 142.28C842.519 142.64 841.633 142.82 840.619 142.82C839.873 142.82 839.166 142.707 838.499 142.48C837.833 142.24 837.246 141.9 836.739 141.46C836.246 141.007 835.853 140.453 835.559 139.8C835.279 139.147 835.139 138.4 835.139 137.56C835.139 136.747 835.279 136.013 835.559 135.36C835.839 134.693 836.219 134.133 836.699 133.68C837.179 133.213 837.746 132.853 838.399 132.6C839.053 132.347 839.759 132.22 840.519 132.22C841.253 132.22 841.926 132.347 842.539 132.6C843.153 132.84 843.679 133.193 844.119 133.66C844.559 134.127 844.899 134.693 845.139 135.36C845.393 136.027 845.519 136.787 845.519 137.64ZM854.413 135.48C854.147 135.227 853.833 135.013 853.473 134.84C853.113 134.667 852.733 134.58 852.333 134.58C852.027 134.58 851.74 134.64 851.473 134.76C851.22 134.88 851.093 135.087 851.093 135.38C851.093 135.66 851.233 135.86 851.513 135.98C851.807 136.1 852.273 136.233 852.913 136.38C853.287 136.46 853.66 136.573 854.033 136.72C854.42 136.867 854.767 137.06 855.073 137.3C855.38 137.54 855.627 137.833 855.813 138.18C856 138.527 856.093 138.94 856.093 139.42C856.093 140.047 855.967 140.58 855.713 141.02C855.46 141.447 855.127 141.793 854.713 142.06C854.313 142.327 853.86 142.52 853.353 142.64C852.847 142.76 852.34 142.82 851.833 142.82C851.02 142.82 850.22 142.693 849.433 142.44C848.66 142.173 848.013 141.787 847.493 141.28L849.333 139.34C849.627 139.66 849.987 139.927 850.413 140.14C850.84 140.353 851.293 140.46 851.773 140.46C852.04 140.46 852.3 140.4 852.553 140.28C852.82 140.147 852.953 139.92 852.953 139.6C852.953 139.293 852.793 139.067 852.473 138.92C852.153 138.773 851.653 138.62 850.973 138.46C850.627 138.38 850.28 138.273 849.933 138.14C849.587 138.007 849.273 137.827 848.993 137.6C848.727 137.373 848.507 137.093 848.333 136.76C848.16 136.427 848.073 136.027 848.073 135.56C848.073 134.96 848.2 134.453 848.453 134.04C848.707 133.613 849.033 133.267 849.433 133C849.833 132.733 850.273 132.54 850.753 132.42C851.247 132.287 851.733 132.22 852.213 132.22C852.96 132.22 853.687 132.34 854.393 132.58C855.113 132.807 855.72 133.153 856.213 133.62L854.413 135.48Z" fill="white"/>
</g>
<rect x="265" y="83" width="185" height="107" rx="10" fill="#0079B8"/>
<path d="M325.817 135.38C325.817 136.62 325.583 137.693 325.117 138.6C324.663 139.493 324.057 140.233 323.297 140.82C322.55 141.393 321.703 141.82 320.757 142.1C319.81 142.367 318.85 142.5 317.877 142.5H312.597V128.34H317.717C318.717 128.34 319.703 128.46 320.677 128.7C321.65 128.927 322.517 129.313 323.277 129.86C324.037 130.393 324.65 131.113 325.117 132.02C325.583 132.927 325.817 134.047 325.817 135.38ZM322.257 135.38C322.257 134.58 322.123 133.92 321.857 133.4C321.603 132.867 321.257 132.447 320.817 132.14C320.39 131.82 319.897 131.593 319.337 131.46C318.79 131.327 318.223 131.26 317.637 131.26H315.937V139.54H317.557C318.17 139.54 318.757 139.473 319.317 139.34C319.89 139.193 320.39 138.96 320.817 138.64C321.257 138.32 321.603 137.893 321.857 137.36C322.123 136.827 322.257 136.167 322.257 135.38ZM332.465 129.36C332.465 129.613 332.412 129.853 332.305 130.08C332.212 130.293 332.078 130.48 331.905 130.64C331.745 130.8 331.545 130.927 331.305 131.02C331.078 131.113 330.838 131.16 330.585 131.16C330.052 131.16 329.605 130.987 329.245 130.64C328.885 130.28 328.705 129.853 328.705 129.36C328.705 129.12 328.752 128.893 328.845 128.68C328.938 128.453 329.072 128.26 329.245 128.1C329.418 127.94 329.618 127.813 329.845 127.72C330.072 127.613 330.318 127.56 330.585 127.56C330.838 127.56 331.078 127.607 331.305 127.7C331.545 127.793 331.745 127.92 331.905 128.08C332.078 128.24 332.212 128.433 332.305 128.66C332.412 128.873 332.465 129.107 332.465 129.36ZM328.945 142.5V132.54H332.225V142.5H328.945ZM341.683 135.48C341.416 135.227 341.103 135.013 340.743 134.84C340.383 134.667 340.003 134.58 339.603 134.58C339.296 134.58 339.01 134.64 338.743 134.76C338.49 134.88 338.363 135.087 338.363 135.38C338.363 135.66 338.503 135.86 338.783 135.98C339.076 136.1 339.543 136.233 340.183 136.38C340.556 136.46 340.93 136.573 341.303 136.72C341.69 136.867 342.036 137.06 342.343 137.3C342.65 137.54 342.896 137.833 343.083 138.18C343.27 138.527 343.363 138.94 343.363 139.42C343.363 140.047 343.236 140.58 342.983 141.02C342.73 141.447 342.396 141.793 341.983 142.06C341.583 142.327 341.13 142.52 340.623 142.64C340.116 142.76 339.61 142.82 339.103 142.82C338.29 142.82 337.49 142.693 336.703 142.44C335.93 142.173 335.283 141.787 334.763 141.28L336.603 139.34C336.896 139.66 337.256 139.927 337.683 140.14C338.11 140.353 338.563 140.46 339.043 140.46C339.31 140.46 339.57 140.4 339.823 140.28C340.09 140.147 340.223 139.92 340.223 139.6C340.223 139.293 340.063 139.067 339.743 138.92C339.423 138.773 338.923 138.62 338.243 138.46C337.896 138.38 337.55 138.273 337.203 138.14C336.856 138.007 336.543 137.827 336.263 137.6C335.996 137.373 335.776 137.093 335.603 136.76C335.43 136.427 335.343 136.027 335.343 135.56C335.343 134.96 335.47 134.453 335.723 134.04C335.976 133.613 336.303 133.267 336.703 133C337.103 132.733 337.543 132.54 338.023 132.42C338.516 132.287 339.003 132.22 339.483 132.22C340.23 132.22 340.956 132.34 341.663 132.58C342.383 132.807 342.99 133.153 343.483 133.62L341.683 135.48ZM353.117 135.76C352.93 135.52 352.677 135.327 352.357 135.18C352.037 135.033 351.71 134.96 351.377 134.96C351.03 134.96 350.717 135.033 350.437 135.18C350.157 135.313 349.917 135.5 349.717 135.74C349.517 135.967 349.357 136.233 349.237 136.54C349.13 136.847 349.077 137.173 349.077 137.52C349.077 137.867 349.13 138.193 349.237 138.5C349.343 138.807 349.497 139.08 349.697 139.32C349.91 139.547 350.157 139.727 350.437 139.86C350.73 139.993 351.057 140.06 351.417 140.06C351.75 140.06 352.077 140 352.397 139.88C352.73 139.747 352.997 139.56 353.197 139.32L355.017 141.54C354.603 141.94 354.07 142.253 353.417 142.48C352.763 142.707 352.07 142.82 351.337 142.82C350.55 142.82 349.817 142.7 349.137 142.46C348.457 142.22 347.863 141.873 347.357 141.42C346.863 140.953 346.47 140.393 346.177 139.74C345.897 139.087 345.757 138.347 345.757 137.52C345.757 136.707 345.897 135.973 346.177 135.32C346.47 134.667 346.863 134.113 347.357 133.66C347.863 133.193 348.457 132.84 349.137 132.6C349.817 132.347 350.543 132.22 351.317 132.22C351.677 132.22 352.03 132.253 352.377 132.32C352.737 132.387 353.077 132.48 353.397 132.6C353.73 132.707 354.03 132.847 354.297 133.02C354.577 133.18 354.817 133.36 355.017 133.56L353.117 135.76ZM367.875 137.48C367.875 138.293 367.728 139.033 367.435 139.7C367.142 140.353 366.742 140.913 366.235 141.38C365.728 141.833 365.142 142.187 364.475 142.44C363.808 142.693 363.095 142.82 362.335 142.82C361.588 142.82 360.875 142.693 360.195 142.44C359.528 142.187 358.942 141.833 358.435 141.38C357.942 140.913 357.548 140.353 357.255 139.7C356.962 139.033 356.815 138.293 356.815 137.48C356.815 136.667 356.962 135.933 357.255 135.28C357.548 134.627 357.942 134.073 358.435 133.62C358.942 133.167 359.528 132.82 360.195 132.58C360.875 132.34 361.588 132.22 362.335 132.22C363.095 132.22 363.808 132.34 364.475 132.58C365.142 132.82 365.728 133.167 366.235 133.62C366.742 134.073 367.142 134.627 367.435 135.28C367.728 135.933 367.875 136.667 367.875 137.48ZM364.715 137.48C364.715 137.16 364.662 136.847 364.555 136.54C364.448 136.233 364.295 135.967 364.095 135.74C363.895 135.5 363.648 135.307 363.355 135.16C363.062 135.013 362.722 134.94 362.335 134.94C361.948 134.94 361.608 135.013 361.315 135.16C361.022 135.307 360.775 135.5 360.575 135.74C360.388 135.967 360.242 136.233 360.135 136.54C360.042 136.847 359.995 137.16 359.995 137.48C359.995 137.8 360.042 138.113 360.135 138.42C360.242 138.727 360.395 139.007 360.595 139.26C360.795 139.5 361.042 139.693 361.335 139.84C361.628 139.987 361.968 140.06 362.355 140.06C362.742 140.06 363.082 139.987 363.375 139.84C363.668 139.693 363.915 139.5 364.115 139.26C364.315 139.007 364.462 138.727 364.555 138.42C364.662 138.113 364.715 137.8 364.715 137.48ZM377.112 142.5H373.572L369.652 132.54H373.272L375.372 139H375.432L377.532 132.54H381.032L377.112 142.5ZM390.16 136.38C390.16 135.86 389.993 135.413 389.66 135.04C389.34 134.667 388.853 134.48 388.2 134.48C387.88 134.48 387.586 134.533 387.32 134.64C387.053 134.733 386.82 134.867 386.62 135.04C386.42 135.213 386.26 135.42 386.14 135.66C386.02 135.887 385.953 136.127 385.94 136.38H390.16ZM393.18 137.64C393.18 137.773 393.18 137.907 393.18 138.04C393.18 138.173 393.173 138.3 393.16 138.42H385.94C385.966 138.7 386.046 138.953 386.18 139.18C386.326 139.407 386.506 139.607 386.72 139.78C386.946 139.94 387.193 140.067 387.46 140.16C387.74 140.253 388.026 140.3 388.32 140.3C388.84 140.3 389.28 140.207 389.64 140.02C390 139.82 390.293 139.567 390.52 139.26L392.8 140.7C392.333 141.38 391.713 141.907 390.94 142.28C390.18 142.64 389.293 142.82 388.28 142.82C387.533 142.82 386.826 142.707 386.16 142.48C385.493 142.24 384.906 141.9 384.4 141.46C383.906 141.007 383.513 140.453 383.22 139.8C382.94 139.147 382.8 138.4 382.8 137.56C382.8 136.747 382.94 136.013 383.22 135.36C383.5 134.693 383.88 134.133 384.36 133.68C384.84 133.213 385.406 132.853 386.06 132.6C386.713 132.347 387.42 132.22 388.18 132.22C388.913 132.22 389.586 132.347 390.2 132.6C390.813 132.84 391.34 133.193 391.78 133.66C392.22 134.127 392.56 134.693 392.8 135.36C393.053 136.027 393.18 136.787 393.18 137.64ZM402.674 135.22C402.527 135.18 402.38 135.153 402.234 135.14C402.1 135.127 401.967 135.12 401.834 135.12C401.394 135.12 401.02 135.2 400.714 135.36C400.42 135.52 400.18 135.713 399.994 135.94C399.82 136.167 399.694 136.413 399.614 136.68C399.534 136.947 399.494 137.18 399.494 137.38V142.5H396.214V132.54H399.374V133.98H399.414C399.667 133.473 400.027 133.06 400.494 132.74C400.96 132.42 401.5 132.26 402.114 132.26C402.247 132.26 402.374 132.267 402.494 132.28C402.627 132.293 402.734 132.313 402.814 132.34L402.674 135.22Z" fill="white"/>
<rect x="916" y="83" width="185" height="107" rx="10" fill="#0079B8"/>
<path d="M1001.03 138.38C1001.03 139.153 1000.88 139.807 1000.57 140.34C1000.27 140.86 999.86 141.28 999.353 141.6C998.847 141.92 998.267 142.153 997.613 142.3C996.973 142.433 996.313 142.5 995.633 142.5H989.993V128.34H995.633C996.18 128.34 996.74 128.4 997.313 128.52C997.887 128.627 998.407 128.82 998.873 129.1C999.34 129.367 999.72 129.733 1000.01 130.2C1000.31 130.667 1000.45 131.26 1000.45 131.98C1000.45 132.767 1000.24 133.42 999.813 133.94C999.387 134.447 998.827 134.813 998.133 135.04V135.08C998.533 135.147 998.907 135.273 999.253 135.46C999.613 135.633 999.92 135.86 1000.17 136.14C1000.44 136.42 1000.65 136.747 1000.79 137.12C1000.95 137.493 1001.03 137.913 1001.03 138.38ZM997.153 132.44C997.153 131.96 996.967 131.613 996.593 131.4C996.233 131.173 995.693 131.06 994.973 131.06H993.293V133.98H995.133C995.773 133.98 996.267 133.853 996.613 133.6C996.973 133.333 997.153 132.947 997.153 132.44ZM997.613 138.06C997.613 137.473 997.393 137.067 996.953 136.84C996.513 136.613 995.927 136.5 995.193 136.5H993.293V139.74H995.213C995.48 139.74 995.753 139.72 996.033 139.68C996.327 139.627 996.587 139.54 996.813 139.42C997.053 139.3 997.247 139.133 997.393 138.92C997.54 138.693 997.613 138.407 997.613 138.06ZM1010.67 142.5V141.12H1010.63C1010.51 141.347 1010.35 141.56 1010.15 141.76C1009.97 141.96 1009.74 142.133 1009.47 142.28C1009.22 142.427 1008.93 142.547 1008.61 142.64C1008.31 142.733 1007.98 142.78 1007.63 142.78C1006.97 142.78 1006.4 142.66 1005.93 142.42C1005.48 142.18 1005.11 141.873 1004.81 141.5C1004.53 141.113 1004.33 140.68 1004.19 140.2C1004.07 139.707 1004.01 139.207 1004.01 138.7V132.54H1007.31V137.94C1007.31 138.22 1007.33 138.487 1007.37 138.74C1007.41 138.993 1007.49 139.22 1007.59 139.42C1007.71 139.62 1007.87 139.78 1008.05 139.9C1008.24 140.007 1008.49 140.06 1008.79 140.06C1009.37 140.06 1009.8 139.847 1010.09 139.42C1010.4 138.993 1010.55 138.493 1010.55 137.92V132.54H1013.83V142.5H1010.67ZM1023.02 144C1022.82 144.52 1022.59 144.98 1022.34 145.38C1022.1 145.793 1021.81 146.14 1021.46 146.42C1021.13 146.713 1020.73 146.933 1020.26 147.08C1019.81 147.227 1019.27 147.3 1018.64 147.3C1018.33 147.3 1018.01 147.28 1017.68 147.24C1017.36 147.2 1017.08 147.147 1016.84 147.08L1017.2 144.32C1017.36 144.373 1017.53 144.413 1017.72 144.44C1017.92 144.48 1018.1 144.5 1018.26 144.5C1018.77 144.5 1019.13 144.38 1019.36 144.14C1019.59 143.913 1019.78 143.587 1019.94 143.16L1020.26 142.34L1016.1 132.54H1019.74L1021.96 138.94H1022.02L1024 132.54H1027.48L1023.02 144Z" fill="white"/>
<rect x="1133" y="83" width="185" height="107" rx="10" fill="#0079B8"/>
<path d="M1219.4 137.16C1219.4 138.013 1219.26 138.793 1218.96 139.5C1218.68 140.193 1218.28 140.793 1217.74 141.3C1217.21 141.793 1216.56 142.18 1215.8 142.46C1215.06 142.74 1214.22 142.88 1213.3 142.88C1212.37 142.88 1211.53 142.74 1210.78 142.46C1210.04 142.18 1209.4 141.793 1208.88 141.3C1208.36 140.793 1207.96 140.193 1207.68 139.5C1207.4 138.793 1207.26 138.013 1207.26 137.16V128.34H1210.66V136.88C1210.66 137.267 1210.71 137.633 1210.8 137.98C1210.91 138.327 1211.06 138.64 1211.26 138.92C1211.48 139.187 1211.75 139.4 1212.08 139.56C1212.43 139.72 1212.84 139.8 1213.32 139.8C1213.8 139.8 1214.21 139.72 1214.54 139.56C1214.89 139.4 1215.17 139.187 1215.38 138.92C1215.6 138.64 1215.75 138.327 1215.84 137.98C1215.94 137.633 1215.98 137.267 1215.98 136.88V128.34H1219.4V137.16ZM1228.85 135.48C1228.58 135.227 1228.27 135.013 1227.91 134.84C1227.55 134.667 1227.17 134.58 1226.77 134.58C1226.46 134.58 1226.18 134.64 1225.91 134.76C1225.66 134.88 1225.53 135.087 1225.53 135.38C1225.53 135.66 1225.67 135.86 1225.95 135.98C1226.24 136.1 1226.71 136.233 1227.35 136.38C1227.72 136.46 1228.1 136.573 1228.47 136.72C1228.86 136.867 1229.2 137.06 1229.51 137.3C1229.82 137.54 1230.06 137.833 1230.25 138.18C1230.44 138.527 1230.53 138.94 1230.53 139.42C1230.53 140.047 1230.4 140.58 1230.15 141.02C1229.9 141.447 1229.56 141.793 1229.15 142.06C1228.75 142.327 1228.3 142.52 1227.79 142.64C1227.28 142.76 1226.78 142.82 1226.27 142.82C1225.46 142.82 1224.66 142.693 1223.87 142.44C1223.1 142.173 1222.45 141.787 1221.93 141.28L1223.77 139.34C1224.06 139.66 1224.42 139.927 1224.85 140.14C1225.28 140.353 1225.73 140.46 1226.21 140.46C1226.48 140.46 1226.74 140.4 1226.99 140.28C1227.26 140.147 1227.39 139.92 1227.39 139.6C1227.39 139.293 1227.23 139.067 1226.91 138.92C1226.59 138.773 1226.09 138.62 1225.41 138.46C1225.06 138.38 1224.72 138.273 1224.37 138.14C1224.02 138.007 1223.71 137.827 1223.43 137.6C1223.16 137.373 1222.94 137.093 1222.77 136.76C1222.6 136.427 1222.51 136.027 1222.51 135.56C1222.51 134.96 1222.64 134.453 1222.89 134.04C1223.14 133.613 1223.47 133.267 1223.87 133C1224.27 132.733 1224.71 132.54 1225.19 132.42C1225.68 132.287 1226.17 132.22 1226.65 132.22C1227.4 132.22 1228.12 132.34 1228.83 132.58C1229.55 132.807 1230.16 133.153 1230.65 133.62L1228.85 135.48ZM1240.28 136.38C1240.28 135.86 1240.12 135.413 1239.78 135.04C1239.46 134.667 1238.98 134.48 1238.32 134.48C1238 134.48 1237.71 134.533 1237.44 134.64C1237.18 134.733 1236.94 134.867 1236.74 135.04C1236.54 135.213 1236.38 135.42 1236.26 135.66C1236.14 135.887 1236.08 136.127 1236.06 136.38H1240.28ZM1243.3 137.64C1243.3 137.773 1243.3 137.907 1243.3 138.04C1243.3 138.173 1243.3 138.3 1243.28 138.42H1236.06C1236.09 138.7 1236.17 138.953 1236.3 139.18C1236.45 139.407 1236.63 139.607 1236.84 139.78C1237.07 139.94 1237.32 140.067 1237.58 140.16C1237.86 140.253 1238.15 140.3 1238.44 140.3C1238.96 140.3 1239.4 140.207 1239.76 140.02C1240.12 139.82 1240.42 139.567 1240.64 139.26L1242.92 140.7C1242.46 141.38 1241.84 141.907 1241.06 142.28C1240.3 142.64 1239.42 142.82 1238.4 142.82C1237.66 142.82 1236.95 142.707 1236.28 142.48C1235.62 142.24 1235.03 141.9 1234.52 141.46C1234.03 141.007 1233.64 140.453 1233.34 139.8C1233.06 139.147 1232.92 138.4 1232.92 137.56C1232.92 136.747 1233.06 136.013 1233.34 135.36C1233.62 134.693 1234 134.133 1234.48 133.68C1234.96 133.213 1235.53 132.853 1236.18 132.6C1236.84 132.347 1237.54 132.22 1238.3 132.22C1239.04 132.22 1239.71 132.347 1240.32 132.6C1240.94 132.84 1241.46 133.193 1241.9 133.66C1242.34 134.127 1242.68 134.693 1242.92 135.36C1243.18 136.027 1243.3 136.787 1243.3 137.64Z" fill="white"/>
<rect x="1350" y="83" width="185" height="107" rx="10" fill="#0079B8"/>
<path d="M1428.04 141.64C1427.34 142 1426.53 142.293 1425.6 142.52C1424.68 142.747 1423.67 142.86 1422.58 142.86C1421.44 142.86 1420.4 142.68 1419.44 142.32C1418.49 141.96 1417.67 141.453 1416.98 140.8C1416.3 140.147 1415.76 139.367 1415.38 138.46C1414.99 137.54 1414.8 136.52 1414.8 135.4C1414.8 134.267 1414.99 133.24 1415.38 132.32C1415.78 131.4 1416.32 130.62 1417.02 129.98C1417.71 129.327 1418.52 128.827 1419.46 128.48C1420.39 128.133 1421.4 127.96 1422.48 127.96C1423.6 127.96 1424.64 128.133 1425.6 128.48C1426.56 128.813 1427.34 129.267 1427.94 129.84L1425.78 132.3C1425.44 131.913 1425 131.6 1424.46 131.36C1423.91 131.107 1423.29 130.98 1422.6 130.98C1422 130.98 1421.44 131.093 1420.94 131.32C1420.43 131.533 1419.99 131.84 1419.62 132.24C1419.24 132.627 1418.95 133.093 1418.74 133.64C1418.54 134.173 1418.44 134.76 1418.44 135.4C1418.44 136.053 1418.53 136.653 1418.72 137.2C1418.9 137.747 1419.18 138.22 1419.54 138.62C1419.91 139.007 1420.36 139.313 1420.9 139.54C1421.44 139.753 1422.06 139.86 1422.76 139.86C1423.16 139.86 1423.54 139.833 1423.9 139.78C1424.26 139.713 1424.59 139.613 1424.9 139.48V136.9H1422.2V134.14H1428.04V141.64ZM1438.11 135.22C1437.96 135.18 1437.81 135.153 1437.67 135.14C1437.53 135.127 1437.4 135.12 1437.27 135.12C1436.83 135.12 1436.45 135.2 1436.15 135.36C1435.85 135.52 1435.61 135.713 1435.43 135.94C1435.25 136.167 1435.13 136.413 1435.05 136.68C1434.97 136.947 1434.93 137.18 1434.93 137.38V142.5H1431.65V132.54H1434.81V133.98H1434.85C1435.1 133.473 1435.46 133.06 1435.93 132.74C1436.39 132.42 1436.93 132.26 1437.55 132.26C1437.68 132.26 1437.81 132.267 1437.93 132.28C1438.06 132.293 1438.17 132.313 1438.25 132.34L1438.11 135.22ZM1450.79 137.48C1450.79 138.293 1450.64 139.033 1450.35 139.7C1450.05 140.353 1449.65 140.913 1449.15 141.38C1448.64 141.833 1448.05 142.187 1447.39 142.44C1446.72 142.693 1446.01 142.82 1445.25 142.82C1444.5 142.82 1443.79 142.693 1443.11 142.44C1442.44 142.187 1441.85 141.833 1441.35 141.38C1440.85 140.913 1440.46 140.353 1440.17 139.7C1439.87 139.033 1439.73 138.293 1439.73 137.48C1439.73 136.667 1439.87 135.933 1440.17 135.28C1440.46 134.627 1440.85 134.073 1441.35 133.62C1441.85 133.167 1442.44 132.82 1443.11 132.58C1443.79 132.34 1444.5 132.22 1445.25 132.22C1446.01 132.22 1446.72 132.34 1447.39 132.58C1448.05 132.82 1448.64 133.167 1449.15 133.62C1449.65 134.073 1450.05 134.627 1450.35 135.28C1450.64 135.933 1450.79 136.667 1450.79 137.48ZM1447.63 137.48C1447.63 137.16 1447.57 136.847 1447.47 136.54C1447.36 136.233 1447.21 135.967 1447.01 135.74C1446.81 135.5 1446.56 135.307 1446.27 135.16C1445.97 135.013 1445.63 134.94 1445.25 134.94C1444.86 134.94 1444.52 135.013 1444.23 135.16C1443.93 135.307 1443.69 135.5 1443.49 135.74C1443.3 135.967 1443.15 136.233 1443.05 136.54C1442.95 136.847 1442.91 137.16 1442.91 137.48C1442.91 137.8 1442.95 138.113 1443.05 138.42C1443.15 138.727 1443.31 139.007 1443.51 139.26C1443.71 139.5 1443.95 139.693 1444.25 139.84C1444.54 139.987 1444.88 140.06 1445.27 140.06C1445.65 140.06 1445.99 139.987 1446.29 139.84C1446.58 139.693 1446.83 139.5 1447.03 139.26C1447.23 139.007 1447.37 138.727 1447.47 138.42C1447.57 138.113 1447.63 137.8 1447.63 137.48ZM1466.54 142.5H1463.24L1461.28 136.3H1461.24L1459.32 142.5H1456.02L1452.58 132.54H1456.12L1457.84 138.84H1457.9L1459.68 132.54H1462.98L1464.82 138.84H1464.86L1466.6 132.54H1470L1466.54 142.5Z" fill="white"/>
<g opacity="0.5">
<rect x="482" y="401" width="185" height="107" rx="10" fill="#0079B8"/>
<path d="M546.683 460.5V446.34H550.123V457.52H555.603V460.5H546.683ZM564.538 454.38C564.538 453.86 564.372 453.413 564.038 453.04C563.718 452.667 563.232 452.48 562.578 452.48C562.258 452.48 561.965 452.533 561.698 452.64C561.432 452.733 561.198 452.867 560.998 453.04C560.798 453.213 560.638 453.42 560.518 453.66C560.398 453.887 560.332 454.127 560.318 454.38H564.538ZM567.558 455.64C567.558 455.773 567.558 455.907 567.558 456.04C567.558 456.173 567.552 456.3 567.538 456.42H560.318C560.345 456.7 560.425 456.953 560.558 457.18C560.705 457.407 560.885 457.607 561.098 457.78C561.325 457.94 561.572 458.067 561.838 458.16C562.118 458.253 562.405 458.3 562.698 458.3C563.218 458.3 563.658 458.207 564.018 458.02C564.378 457.82 564.672 457.567 564.898 457.26L567.178 458.7C566.712 459.38 566.092 459.907 565.318 460.28C564.558 460.64 563.672 460.82 562.658 460.82C561.912 460.82 561.205 460.707 560.538 460.48C559.872 460.24 559.285 459.9 558.778 459.46C558.285 459.007 557.892 458.453 557.598 457.8C557.318 457.147 557.178 456.4 557.178 455.56C557.178 454.747 557.318 454.013 557.598 453.36C557.878 452.693 558.258 452.133 558.738 451.68C559.218 451.213 559.785 450.853 560.438 450.6C561.092 450.347 561.798 450.22 562.558 450.22C563.292 450.22 563.965 450.347 564.578 450.6C565.192 450.84 565.718 451.193 566.158 451.66C566.598 452.127 566.938 452.693 567.178 453.36C567.432 454.027 567.558 454.787 567.558 455.64ZM576.355 456.16H575.935C575.575 456.16 575.209 456.18 574.835 456.22C574.475 456.247 574.149 456.307 573.855 456.4C573.575 456.493 573.342 456.633 573.155 456.82C572.969 456.993 572.875 457.227 572.875 457.52C572.875 457.707 572.915 457.867 572.995 458C573.089 458.133 573.202 458.24 573.335 458.32C573.469 458.4 573.622 458.46 573.795 458.5C573.969 458.527 574.135 458.54 574.295 458.54C574.962 458.54 575.469 458.36 575.815 458C576.175 457.627 576.355 457.127 576.355 456.5V456.16ZM570.335 451.9C570.922 451.34 571.602 450.92 572.375 450.64C573.162 450.36 573.962 450.22 574.775 450.22C575.615 450.22 576.322 450.327 576.895 450.54C577.482 450.74 577.955 451.06 578.315 451.5C578.675 451.927 578.935 452.473 579.095 453.14C579.269 453.793 579.355 454.573 579.355 455.48V460.5H576.355V459.44H576.295C576.042 459.853 575.655 460.173 575.135 460.4C574.629 460.627 574.075 460.74 573.475 460.74C573.075 460.74 572.662 460.687 572.235 460.58C571.809 460.473 571.415 460.3 571.055 460.06C570.709 459.82 570.422 459.5 570.195 459.1C569.969 458.7 569.855 458.207 569.855 457.62C569.855 456.9 570.049 456.32 570.435 455.88C570.835 455.44 571.342 455.1 571.955 454.86C572.582 454.62 573.275 454.46 574.035 454.38C574.795 454.3 575.535 454.26 576.255 454.26V454.1C576.255 453.607 576.082 453.247 575.735 453.02C575.389 452.78 574.962 452.66 574.455 452.66C573.989 452.66 573.535 452.76 573.095 452.96C572.669 453.16 572.302 453.4 571.995 453.68L570.335 451.9ZM589.263 453.22C589.117 453.18 588.97 453.153 588.823 453.14C588.69 453.127 588.557 453.12 588.423 453.12C587.983 453.12 587.61 453.2 587.303 453.36C587.01 453.52 586.77 453.713 586.583 453.94C586.41 454.167 586.283 454.413 586.203 454.68C586.123 454.947 586.083 455.18 586.083 455.38V460.5H582.803V450.54H585.963V451.98H586.003C586.257 451.473 586.617 451.06 587.083 450.74C587.55 450.42 588.09 450.26 588.703 450.26C588.837 450.26 588.963 450.267 589.083 450.28C589.217 450.293 589.323 450.313 589.403 450.34L589.263 453.22ZM598.273 460.5V455.06C598.273 454.78 598.246 454.513 598.193 454.26C598.153 454.007 598.08 453.787 597.973 453.6C597.866 453.4 597.713 453.247 597.513 453.14C597.326 453.02 597.086 452.96 596.793 452.96C596.5 452.96 596.24 453.02 596.013 453.14C595.8 453.247 595.62 453.4 595.473 453.6C595.326 453.8 595.213 454.033 595.133 454.3C595.066 454.553 595.033 454.82 595.033 455.1V460.5H591.733V450.54H594.913V451.92H594.953C595.073 451.707 595.226 451.5 595.413 451.3C595.613 451.087 595.84 450.907 596.093 450.76C596.36 450.613 596.646 450.493 596.953 450.4C597.26 450.307 597.586 450.26 597.933 450.26C598.6 450.26 599.166 450.38 599.633 450.62C600.1 450.86 600.473 451.173 600.753 451.56C601.046 451.933 601.253 452.367 601.373 452.86C601.506 453.353 601.573 453.847 601.573 454.34V460.5H598.273Z" fill="white"/>
</g>
<g opacity="0.5">
<rect x="265" y="401" width="185" height="107" rx="10" fill="#0079B8"/>
<path d="M325.817 453.38C325.817 454.62 325.583 455.693 325.117 456.6C324.663 457.493 324.057 458.233 323.297 458.82C322.55 459.393 321.703 459.82 320.757 460.1C319.81 460.367 318.85 460.5 317.877 460.5H312.597V446.34H317.717C318.717 446.34 319.703 446.46 320.677 446.7C321.65 446.927 322.517 447.313 323.277 447.86C324.037 448.393 324.65 449.113 325.117 450.02C325.583 450.927 325.817 452.047 325.817 453.38ZM322.257 453.38C322.257 452.58 322.123 451.92 321.857 451.4C321.603 450.867 321.257 450.447 320.817 450.14C320.39 449.82 319.897 449.593 319.337 449.46C318.79 449.327 318.223 449.26 317.637 449.26H315.937V457.54H317.557C318.17 457.54 318.757 457.473 319.317 457.34C319.89 457.193 320.39 456.96 320.817 456.64C321.257 456.32 321.603 455.893 321.857 455.36C322.123 454.827 322.257 454.167 322.257 453.38ZM332.465 447.36C332.465 447.613 332.412 447.853 332.305 448.08C332.212 448.293 332.078 448.48 331.905 448.64C331.745 448.8 331.545 448.927 331.305 449.02C331.078 449.113 330.838 449.16 330.585 449.16C330.052 449.16 329.605 448.987 329.245 448.64C328.885 448.28 328.705 447.853 328.705 447.36C328.705 447.12 328.752 446.893 328.845 446.68C328.938 446.453 329.072 446.26 329.245 446.1C329.418 445.94 329.618 445.813 329.845 445.72C330.072 445.613 330.318 445.56 330.585 445.56C330.838 445.56 331.078 445.607 331.305 445.7C331.545 445.793 331.745 445.92 331.905 446.08C332.078 446.24 332.212 446.433 332.305 446.66C332.412 446.873 332.465 447.107 332.465 447.36ZM328.945 460.5V450.54H332.225V460.5H328.945ZM341.683 453.48C341.416 453.227 341.103 453.013 340.743 452.84C340.383 452.667 340.003 452.58 339.603 452.58C339.296 452.58 339.01 452.64 338.743 452.76C338.49 452.88 338.363 453.087 338.363 453.38C338.363 453.66 338.503 453.86 338.783 453.98C339.076 454.1 339.543 454.233 340.183 454.38C340.556 454.46 340.93 454.573 341.303 454.72C341.69 454.867 342.036 455.06 342.343 455.3C342.65 455.54 342.896 455.833 343.083 456.18C343.27 456.527 343.363 456.94 343.363 457.42C343.363 458.047 343.236 458.58 342.983 459.02C342.73 459.447 342.396 459.793 341.983 460.06C341.583 460.327 341.13 460.52 340.623 460.64C340.116 460.76 339.61 460.82 339.103 460.82C338.29 460.82 337.49 460.693 336.703 460.44C335.93 460.173 335.283 459.787 334.763 459.28L336.603 457.34C336.896 457.66 337.256 457.927 337.683 458.14C338.11 458.353 338.563 458.46 339.043 458.46C339.31 458.46 339.57 458.4 339.823 458.28C340.09 458.147 340.223 457.92 340.223 457.6C340.223 457.293 340.063 457.067 339.743 456.92C339.423 456.773 338.923 456.62 338.243 456.46C337.896 456.38 337.55 456.273 337.203 456.14C336.856 456.007 336.543 455.827 336.263 455.6C335.996 455.373 335.776 455.093 335.603 454.76C335.43 454.427 335.343 454.027 335.343 453.56C335.343 452.96 335.47 452.453 335.723 452.04C335.976 451.613 336.303 451.267 336.703 451C337.103 450.733 337.543 450.54 338.023 450.42C338.516 450.287 339.003 450.22 339.483 450.22C340.23 450.22 340.956 450.34 341.663 450.58C342.383 450.807 342.99 451.153 343.483 451.62L341.683 453.48ZM353.117 453.76C352.93 453.52 352.677 453.327 352.357 453.18C352.037 453.033 351.71 452.96 351.377 452.96C351.03 452.96 350.717 453.033 350.437 453.18C350.157 453.313 349.917 453.5 349.717 453.74C349.517 453.967 349.357 454.233 349.237 454.54C349.13 454.847 349.077 455.173 349.077 455.52C349.077 455.867 349.13 456.193 349.237 456.5C349.343 456.807 349.497 457.08 349.697 457.32C349.91 457.547 350.157 457.727 350.437 457.86C350.73 457.993 351.057 458.06 351.417 458.06C351.75 458.06 352.077 458 352.397 457.88C352.73 457.747 352.997 457.56 353.197 457.32L355.017 459.54C354.603 459.94 354.07 460.253 353.417 460.48C352.763 460.707 352.07 460.82 351.337 460.82C350.55 460.82 349.817 460.7 349.137 460.46C348.457 460.22 347.863 459.873 347.357 459.42C346.863 458.953 346.47 458.393 346.177 457.74C345.897 457.087 345.757 456.347 345.757 455.52C345.757 454.707 345.897 453.973 346.177 453.32C346.47 452.667 346.863 452.113 347.357 451.66C347.863 451.193 348.457 450.84 349.137 450.6C349.817 450.347 350.543 450.22 351.317 450.22C351.677 450.22 352.03 450.253 352.377 450.32C352.737 450.387 353.077 450.48 353.397 450.6C353.73 450.707 354.03 450.847 354.297 451.02C354.577 451.18 354.817 451.36 355.017 451.56L353.117 453.76ZM367.875 455.48C367.875 456.293 367.728 457.033 367.435 457.7C367.142 458.353 366.742 458.913 366.235 459.38C365.728 459.833 365.142 460.187 364.475 460.44C363.808 460.693 363.095 460.82 362.335 460.82C361.588 460.82 360.875 460.693 360.195 460.44C359.528 460.187 358.942 459.833 358.435 459.38C357.942 458.913 357.548 458.353 357.255 457.7C356.962 457.033 356.815 456.293 356.815 455.48C356.815 454.667 356.962 453.933 357.255 453.28C357.548 452.627 357.942 452.073 358.435 451.62C358.942 451.167 359.528 450.82 360.195 450.58C360.875 450.34 361.588 450.22 362.335 450.22C363.095 450.22 363.808 450.34 364.475 450.58C365.142 450.82 365.728 451.167 366.235 451.62C366.742 452.073 367.142 452.627 367.435 453.28C367.728 453.933 367.875 454.667 367.875 455.48ZM364.715 455.48C364.715 455.16 364.662 454.847 364.555 454.54C364.448 454.233 364.295 453.967 364.095 453.74C363.895 453.5 363.648 453.307 363.355 453.16C363.062 453.013 362.722 452.94 362.335 452.94C361.948 452.94 361.608 453.013 361.315 453.16C361.022 453.307 360.775 453.5 360.575 453.74C360.388 453.967 360.242 454.233 360.135 454.54C360.042 454.847 359.995 455.16 359.995 455.48C359.995 455.8 360.042 456.113 360.135 456.42C360.242 456.727 360.395 457.007 360.595 457.26C360.795 457.5 361.042 457.693 361.335 457.84C361.628 457.987 361.968 458.06 362.355 458.06C362.742 458.06 363.082 457.987 363.375 457.84C363.668 457.693 363.915 457.5 364.115 457.26C364.315 457.007 364.462 456.727 364.555 456.42C364.662 456.113 364.715 455.8 364.715 455.48ZM377.112 460.5H373.572L369.652 450.54H373.272L375.372 457H375.432L377.532 450.54H381.032L377.112 460.5ZM390.16 454.38C390.16 453.86 389.993 453.413 389.66 453.04C389.34 452.667 388.853 452.48 388.2 452.48C387.88 452.48 387.586 452.533 387.32 452.64C387.053 452.733 386.82 452.867 386.62 453.04C386.42 453.213 386.26 453.42 386.14 453.66C386.02 453.887 385.953 454.127 385.94 454.38H390.16ZM393.18 455.64C393.18 455.773 393.18 455.907 393.18 456.04C393.18 456.173 393.173 456.3 393.16 456.42H385.94C385.966 456.7 386.046 456.953 386.18 457.18C386.326 457.407 386.506 457.607 386.72 457.78C386.946 457.94 387.193 458.067 387.46 458.16C387.74 458.253 388.026 458.3 388.32 458.3C388.84 458.3 389.28 458.207 389.64 458.02C390 457.82 390.293 457.567 390.52 457.26L392.8 458.7C392.333 459.38 391.713 459.907 390.94 460.28C390.18 460.64 389.293 460.82 388.28 460.82C387.533 460.82 386.826 460.707 386.16 460.48C385.493 460.24 384.906 459.9 384.4 459.46C383.906 459.007 383.513 458.453 383.22 457.8C382.94 457.147 382.8 456.4 382.8 455.56C382.8 454.747 382.94 454.013 383.22 453.36C383.5 452.693 383.88 452.133 384.36 451.68C384.84 451.213 385.406 450.853 386.06 450.6C386.713 450.347 387.42 450.22 388.18 450.22C388.913 450.22 389.586 450.347 390.2 450.6C390.813 450.84 391.34 451.193 391.78 451.66C392.22 452.127 392.56 452.693 392.8 453.36C393.053 454.027 393.18 454.787 393.18 455.64ZM402.674 453.22C402.527 453.18 402.38 453.153 402.234 453.14C402.1 453.127 401.967 453.12 401.834 453.12C401.394 453.12 401.02 453.2 400.714 453.36C400.42 453.52 400.18 453.713 399.994 453.94C399.82 454.167 399.694 454.413 399.614 454.68C399.534 454.947 399.494 455.18 399.494 455.38V460.5H396.214V450.54H399.374V451.98H399.414C399.667 451.473 400.027 451.06 400.494 450.74C400.96 450.42 401.5 450.26 402.114 450.26C402.247 450.26 402.374 450.267 402.494 450.28C402.627 450.293 402.734 450.313 402.814 450.34L402.674 453.22Z" fill="white"/>
</g>
<rect x="699" y="401" width="185" height="107" rx="10" fill="#0079B8"/>
<path d="M782.969 449.26V460.5H779.549V449.26H775.549V446.34H786.969V449.26H782.969ZM794.013 453.22C793.867 453.18 793.72 453.153 793.573 453.14C793.44 453.127 793.307 453.12 793.173 453.12C792.733 453.12 792.36 453.2 792.053 453.36C791.76 453.52 791.52 453.713 791.333 453.94C791.16 454.167 791.033 454.413 790.953 454.68C790.873 454.947 790.833 455.18 790.833 455.38V460.5H787.553V450.54H790.713V451.98H790.753C791.007 451.473 791.367 451.06 791.833 450.74C792.3 450.42 792.84 450.26 793.453 450.26C793.587 450.26 793.713 450.267 793.833 450.28C793.967 450.293 794.073 450.313 794.153 450.34L794.013 453.22ZM802.103 462C801.903 462.52 801.676 462.98 801.423 463.38C801.183 463.793 800.89 464.14 800.543 464.42C800.21 464.713 799.81 464.933 799.343 465.08C798.89 465.227 798.35 465.3 797.723 465.3C797.416 465.3 797.096 465.28 796.763 465.24C796.443 465.2 796.163 465.147 795.923 465.08L796.283 462.32C796.443 462.373 796.616 462.413 796.803 462.44C797.003 462.48 797.183 462.5 797.343 462.5C797.85 462.5 798.216 462.38 798.443 462.14C798.67 461.913 798.863 461.587 799.023 461.16L799.343 460.34L795.183 450.54H798.823L801.043 456.94H801.103L803.083 450.54H806.563L802.103 462Z" fill="white"/>
<g opacity="0.5">
<rect x="916" y="401" width="185" height="107" rx="10" fill="#0079B8"/>
<path d="M1001.03 456.38C1001.03 457.153 1000.88 457.807 1000.57 458.34C1000.27 458.86 999.86 459.28 999.353 459.6C998.847 459.92 998.267 460.153 997.613 460.3C996.973 460.433 996.313 460.5 995.633 460.5H989.993V446.34H995.633C996.18 446.34 996.74 446.4 997.313 446.52C997.887 446.627 998.407 446.82 998.873 447.1C999.34 447.367 999.72 447.733 1000.01 448.2C1000.31 448.667 1000.45 449.26 1000.45 449.98C1000.45 450.767 1000.24 451.42 999.813 451.94C999.387 452.447 998.827 452.813 998.133 453.04V453.08C998.533 453.147 998.907 453.273 999.253 453.46C999.613 453.633 999.92 453.86 1000.17 454.14C1000.44 454.42 1000.65 454.747 1000.79 455.12C1000.95 455.493 1001.03 455.913 1001.03 456.38ZM997.153 450.44C997.153 449.96 996.967 449.613 996.593 449.4C996.233 449.173 995.693 449.06 994.973 449.06H993.293V451.98H995.133C995.773 451.98 996.267 451.853 996.613 451.6C996.973 451.333 997.153 450.947 997.153 450.44ZM997.613 456.06C997.613 455.473 997.393 455.067 996.953 454.84C996.513 454.613 995.927 454.5 995.193 454.5H993.293V457.74H995.213C995.48 457.74 995.753 457.72 996.033 457.68C996.327 457.627 996.587 457.54 996.813 457.42C997.053 457.3 997.247 457.133 997.393 456.92C997.54 456.693 997.613 456.407 997.613 456.06ZM1010.67 460.5V459.12H1010.63C1010.51 459.347 1010.35 459.56 1010.15 459.76C1009.97 459.96 1009.74 460.133 1009.47 460.28C1009.22 460.427 1008.93 460.547 1008.61 460.64C1008.31 460.733 1007.98 460.78 1007.63 460.78C1006.97 460.78 1006.4 460.66 1005.93 460.42C1005.48 460.18 1005.11 459.873 1004.81 459.5C1004.53 459.113 1004.33 458.68 1004.19 458.2C1004.07 457.707 1004.01 457.207 1004.01 456.7V450.54H1007.31V455.94C1007.31 456.22 1007.33 456.487 1007.37 456.74C1007.41 456.993 1007.49 457.22 1007.59 457.42C1007.71 457.62 1007.87 457.78 1008.05 457.9C1008.24 458.007 1008.49 458.06 1008.79 458.06C1009.37 458.06 1009.8 457.847 1010.09 457.42C1010.4 456.993 1010.55 456.493 1010.55 455.92V450.54H1013.83V460.5H1010.67ZM1023.02 462C1022.82 462.52 1022.59 462.98 1022.34 463.38C1022.1 463.793 1021.81 464.14 1021.46 464.42C1021.13 464.713 1020.73 464.933 1020.26 465.08C1019.81 465.227 1019.27 465.3 1018.64 465.3C1018.33 465.3 1018.01 465.28 1017.68 465.24C1017.36 465.2 1017.08 465.147 1016.84 465.08L1017.2 462.32C1017.36 462.373 1017.53 462.413 1017.72 462.44C1017.92 462.48 1018.1 462.5 1018.26 462.5C1018.77 462.5 1019.13 462.38 1019.36 462.14C1019.59 461.913 1019.78 461.587 1019.94 461.16L1020.26 460.34L1016.1 450.54H1019.74L1021.96 456.94H1022.02L1024 450.54H1027.48L1023.02 462Z" fill="white"/>
</g>
<g opacity="0.5">
<rect x="1133" y="401" width="185" height="107" rx="10" fill="#0079B8"/>
<path d="M1219.4 455.16C1219.4 456.013 1219.26 456.793 1218.96 457.5C1218.68 458.193 1218.28 458.793 1217.74 459.3C1217.21 459.793 1216.56 460.18 1215.8 460.46C1215.06 460.74 1214.22 460.88 1213.3 460.88C1212.37 460.88 1211.53 460.74 1210.78 460.46C1210.04 460.18 1209.4 459.793 1208.88 459.3C1208.36 458.793 1207.96 458.193 1207.68 457.5C1207.4 456.793 1207.26 456.013 1207.26 455.16V446.34H1210.66V454.88C1210.66 455.267 1210.71 455.633 1210.8 455.98C1210.91 456.327 1211.06 456.64 1211.26 456.92C1211.48 457.187 1211.75 457.4 1212.08 457.56C1212.43 457.72 1212.84 457.8 1213.32 457.8C1213.8 457.8 1214.21 457.72 1214.54 457.56C1214.89 457.4 1215.17 457.187 1215.38 456.92C1215.6 456.64 1215.75 456.327 1215.84 455.98C1215.94 455.633 1215.98 455.267 1215.98 454.88V446.34H1219.4V455.16ZM1228.85 453.48C1228.58 453.227 1228.27 453.013 1227.91 452.84C1227.55 452.667 1227.17 452.58 1226.77 452.58C1226.46 452.58 1226.18 452.64 1225.91 452.76C1225.66 452.88 1225.53 453.087 1225.53 453.38C1225.53 453.66 1225.67 453.86 1225.95 453.98C1226.24 454.1 1226.71 454.233 1227.35 454.38C1227.72 454.46 1228.1 454.573 1228.47 454.72C1228.86 454.867 1229.2 455.06 1229.51 455.3C1229.82 455.54 1230.06 455.833 1230.25 456.18C1230.44 456.527 1230.53 456.94 1230.53 457.42C1230.53 458.047 1230.4 458.58 1230.15 459.02C1229.9 459.447 1229.56 459.793 1229.15 460.06C1228.75 460.327 1228.3 460.52 1227.79 460.64C1227.28 460.76 1226.78 460.82 1226.27 460.82C1225.46 460.82 1224.66 460.693 1223.87 460.44C1223.1 460.173 1222.45 459.787 1221.93 459.28L1223.77 457.34C1224.06 457.66 1224.42 457.927 1224.85 458.14C1225.28 458.353 1225.73 458.46 1226.21 458.46C1226.48 458.46 1226.74 458.4 1226.99 458.28C1227.26 458.147 1227.39 457.92 1227.39 457.6C1227.39 457.293 1227.23 457.067 1226.91 456.92C1226.59 456.773 1226.09 456.62 1225.41 456.46C1225.06 456.38 1224.72 456.273 1224.37 456.14C1224.02 456.007 1223.71 455.827 1223.43 455.6C1223.16 455.373 1222.94 455.093 1222.77 454.76C1222.6 454.427 1222.51 454.027 1222.51 453.56C1222.51 452.96 1222.64 452.453 1222.89 452.04C1223.14 451.613 1223.47 451.267 1223.87 451C1224.27 450.733 1224.71 450.54 1225.19 450.42C1225.68 450.287 1226.17 450.22 1226.65 450.22C1227.4 450.22 1228.12 450.34 1228.83 450.58C1229.55 450.807 1230.16 451.153 1230.65 451.62L1228.85 453.48ZM1240.28 454.38C1240.28 453.86 1240.12 453.413 1239.78 453.04C1239.46 452.667 1238.98 452.48 1238.32 452.48C1238 452.48 1237.71 452.533 1237.44 452.64C1237.18 452.733 1236.94 452.867 1236.74 453.04C1236.54 453.213 1236.38 453.42 1236.26 453.66C1236.14 453.887 1236.08 454.127 1236.06 454.38H1240.28ZM1243.3 455.64C1243.3 455.773 1243.3 455.907 1243.3 456.04C1243.3 456.173 1243.3 456.3 1243.28 456.42H1236.06C1236.09 456.7 1236.17 456.953 1236.3 457.18C1236.45 457.407 1236.63 457.607 1236.84 457.78C1237.07 457.94 1237.32 458.067 1237.58 458.16C1237.86 458.253 1238.15 458.3 1238.44 458.3C1238.96 458.3 1239.4 458.207 1239.76 458.02C1240.12 457.82 1240.42 457.567 1240.64 457.26L1242.92 458.7C1242.46 459.38 1241.84 459.907 1241.06 460.28C1240.3 460.64 1239.42 460.82 1238.4 460.82C1237.66 460.82 1236.95 460.707 1236.28 460.48C1235.62 460.24 1235.03 459.9 1234.52 459.46C1234.03 459.007 1233.64 458.453 1233.34 457.8C1233.06 457.147 1232.92 456.4 1232.92 455.56C1232.92 454.747 1233.06 454.013 1233.34 453.36C1233.62 452.693 1234 452.133 1234.48 451.68C1234.96 451.213 1235.53 450.853 1236.18 450.6C1236.84 450.347 1237.54 450.22 1238.3 450.22C1239.04 450.22 1239.71 450.347 1240.32 450.6C1240.94 450.84 1241.46 451.193 1241.9 451.66C1242.34 452.127 1242.68 452.693 1242.92 453.36C1243.18 454.027 1243.3 454.787 1243.3 455.64Z" fill="white"/>
</g>
<g opacity="0.5">
<rect x="1350" y="401" width="185" height="107" rx="10" fill="#0079B8"/>
<path d="M1428.04 459.64C1427.34 460 1426.53 460.293 1425.6 460.52C1424.68 460.747 1423.67 460.86 1422.58 460.86C1421.44 460.86 1420.4 460.68 1419.44 460.32C1418.49 459.96 1417.67 459.453 1416.98 458.8C1416.3 458.147 1415.76 457.367 1415.38 456.46C1414.99 455.54 1414.8 454.52 1414.8 453.4C1414.8 452.267 1414.99 451.24 1415.38 450.32C1415.78 449.4 1416.32 448.62 1417.02 447.98C1417.71 447.327 1418.52 446.827 1419.46 446.48C1420.39 446.133 1421.4 445.96 1422.48 445.96C1423.6 445.96 1424.64 446.133 1425.6 446.48C1426.56 446.813 1427.34 447.267 1427.94 447.84L1425.78 450.3C1425.44 449.913 1425 449.6 1424.46 449.36C1423.91 449.107 1423.29 448.98 1422.6 448.98C1422 448.98 1421.44 449.093 1420.94 449.32C1420.43 449.533 1419.99 449.84 1419.62 450.24C1419.24 450.627 1418.95 451.093 1418.74 451.64C1418.54 452.173 1418.44 452.76 1418.44 453.4C1418.44 454.053 1418.53 454.653 1418.72 455.2C1418.9 455.747 1419.18 456.22 1419.54 456.62C1419.91 457.007 1420.36 457.313 1420.9 457.54C1421.44 457.753 1422.06 457.86 1422.76 457.86C1423.16 457.86 1423.54 457.833 1423.9 457.78C1424.26 457.713 1424.59 457.613 1424.9 457.48V454.9H1422.2V452.14H1428.04V459.64ZM1438.11 453.22C1437.96 453.18 1437.81 453.153 1437.67 453.14C1437.53 453.127 1437.4 453.12 1437.27 453.12C1436.83 453.12 1436.45 453.2 1436.15 453.36C1435.85 453.52 1435.61 453.713 1435.43 453.94C1435.25 454.167 1435.13 454.413 1435.05 454.68C1434.97 454.947 1434.93 455.18 1434.93 455.38V460.5H1431.65V450.54H1434.81V451.98H1434.85C1435.1 451.473 1435.46 451.06 1435.93 450.74C1436.39 450.42 1436.93 450.26 1437.55 450.26C1437.68 450.26 1437.81 450.267 1437.93 450.28C1438.06 450.293 1438.17 450.313 1438.25 450.34L1438.11 453.22ZM1450.79 455.48C1450.79 456.293 1450.64 457.033 1450.35 457.7C1450.05 458.353 1449.65 458.913 1449.15 459.38C1448.64 459.833 1448.05 460.187 1447.39 460.44C1446.72 460.693 1446.01 460.82 1445.25 460.82C1444.5 460.82 1443.79 460.693 1443.11 460.44C1442.44 460.187 1441.85 459.833 1441.35 459.38C1440.85 458.913 1440.46 458.353 1440.17 457.7C1439.87 457.033 1439.73 456.293 1439.73 455.48C1439.73 454.667 1439.87 453.933 1440.17 453.28C1440.46 452.627 1440.85 452.073 1441.35 451.62C1441.85 451.167 1442.44 450.82 1443.11 450.58C1443.79 450.34 1444.5 450.22 1445.25 450.22C1446.01 450.22 1446.72 450.34 1447.39 450.58C1448.05 450.82 1448.64 451.167 1449.15 451.62C1449.65 452.073 1450.05 452.627 1450.35 453.28C1450.64 453.933 1450.79 454.667 1450.79 455.48ZM1447.63 455.48C1447.63 455.16 1447.57 454.847 1447.47 454.54C1447.36 454.233 1447.21 453.967 1447.01 453.74C1446.81 453.5 1446.56 453.307 1446.27 453.16C1445.97 453.013 1445.63 452.94 1445.25 452.94C1444.86 452.94 1444.52 453.013 1444.23 453.16C1443.93 453.307 1443.69 453.5 1443.49 453.74C1443.3 453.967 1443.15 454.233 1443.05 454.54C1442.95 454.847 1442.91 455.16 1442.91 455.48C1442.91 455.8 1442.95 456.113 1443.05 456.42C1443.15 456.727 1443.31 457.007 1443.51 457.26C1443.71 457.5 1443.95 457.693 1444.25 457.84C1444.54 457.987 1444.88 458.06 1445.27 458.06C1445.65 458.06 1445.99 457.987 1446.29 457.84C1446.58 457.693 1446.83 457.5 1447.03 457.26C1447.23 457.007 1447.37 456.727 1447.47 456.42C1447.57 456.113 1447.63 455.8 1447.63 455.48ZM1466.54 460.5H1463.24L1461.28 454.3H1461.24L1459.32 460.5H1456.02L1452.58 450.54H1456.12L1457.84 456.84H1457.9L1459.68 450.54H1462.98L1464.82 456.84H1464.86L1466.6 450.54H1470L1466.54 460.5Z" fill="white"/>
</g>
<path d="M689.789 300.56C690.309 301.34 690.969 301.92 691.769 302.3C692.589 302.66 693.429 302.84 694.289 302.84C694.769 302.84 695.259 302.77 695.759 302.63C696.259 302.47 696.709 302.24 697.109 301.94C697.529 301.64 697.869 301.27 698.129 300.83C698.389 300.39 698.519 299.88 698.519 299.3C698.519 298.48 698.259 297.86 697.739 297.44C697.219 297 696.569 296.64 695.789 296.36C695.029 296.06 694.189 295.78 693.269 295.52C692.369 295.24 691.529 294.86 690.749 294.38C689.989 293.9 689.349 293.26 688.829 292.46C688.309 291.64 688.049 290.54 688.049 289.16C688.049 288.54 688.179 287.88 688.439 287.18C688.719 286.48 689.149 285.84 689.729 285.26C690.309 284.68 691.049 284.2 691.949 283.82C692.869 283.42 693.969 283.22 695.249 283.22C696.409 283.22 697.519 283.38 698.579 283.7C699.639 284.02 700.569 284.67 701.369 285.65L699.029 287.78C698.669 287.22 698.159 286.77 697.499 286.43C696.839 286.09 696.089 285.92 695.249 285.92C694.449 285.92 693.779 286.03 693.239 286.25C692.719 286.45 692.299 286.72 691.979 287.06C691.659 287.38 691.429 287.73 691.289 288.11C691.169 288.49 691.109 288.84 691.109 289.16C691.109 290.06 691.369 290.75 691.889 291.23C692.409 291.71 693.049 292.1 693.809 292.4C694.589 292.7 695.429 292.97 696.329 293.21C697.249 293.45 698.089 293.79 698.849 294.23C699.629 294.65 700.279 295.23 700.799 295.97C701.319 296.69 701.579 297.69 701.579 298.97C701.579 299.99 701.379 300.91 700.979 301.73C700.599 302.55 700.079 303.24 699.419 303.8C698.759 304.36 697.979 304.79 697.079 305.09C696.179 305.39 695.219 305.54 694.199 305.54C692.839 305.54 691.549 305.3 690.329 304.82C689.109 304.34 688.139 303.6 687.419 302.6L689.789 300.56ZM705.199 292.52C705.959 291.82 706.839 291.3 707.839 290.96C708.839 290.6 709.839 290.42 710.839 290.42C711.879 290.42 712.769 290.55 713.509 290.81C714.269 291.07 714.889 291.42 715.369 291.86C715.849 292.3 716.199 292.81 716.419 293.39C716.659 293.95 716.779 294.54 716.779 295.16V302.42C716.779 302.92 716.789 303.38 716.809 303.8C716.829 304.22 716.859 304.62 716.899 305H714.499C714.439 304.28 714.409 303.56 714.409 302.84H714.349C713.749 303.76 713.039 304.41 712.219 304.79C711.399 305.17 710.449 305.36 709.369 305.36C708.709 305.36 708.079 305.27 707.479 305.09C706.879 304.91 706.349 304.64 705.889 304.28C705.449 303.92 705.099 303.48 704.839 302.96C704.579 302.42 704.449 301.8 704.449 301.1C704.449 300.18 704.649 299.41 705.049 298.79C705.469 298.17 706.029 297.67 706.729 297.29C707.449 296.89 708.279 296.61 709.219 296.45C710.179 296.27 711.199 296.18 712.279 296.18H714.259V295.58C714.259 295.22 714.189 294.86 714.049 294.5C713.909 294.14 713.699 293.82 713.419 293.54C713.139 293.24 712.789 293.01 712.369 292.85C711.949 292.67 711.449 292.58 710.869 292.58C710.349 292.58 709.889 292.63 709.489 292.73C709.109 292.83 708.759 292.96 708.439 293.12C708.119 293.26 707.829 293.43 707.569 293.63C707.309 293.83 707.059 294.02 706.819 294.2L705.199 292.52ZM712.819 298.16C712.179 298.16 711.519 298.2 710.839 298.28C710.179 298.34 709.569 298.47 709.009 298.67C708.469 298.87 708.019 299.15 707.659 299.51C707.319 299.87 707.149 300.33 707.149 300.89C707.149 301.71 707.419 302.3 707.959 302.66C708.519 303.02 709.269 303.2 710.209 303.2C710.949 303.2 711.579 303.08 712.099 302.84C712.619 302.58 713.039 302.25 713.359 301.85C713.679 301.45 713.909 301.01 714.049 300.53C714.189 300.03 714.259 299.54 714.259 299.06V298.16H712.819ZM720.905 282.32H723.605V305H720.905V282.32ZM729.942 298.88C729.942 299.5 730.072 300.07 730.332 300.59C730.612 301.09 730.972 301.52 731.412 301.88C731.852 302.24 732.362 302.52 732.942 302.72C733.522 302.92 734.122 303.02 734.742 303.02C735.582 303.02 736.312 302.83 736.932 302.45C737.552 302.05 738.122 301.53 738.642 300.89L740.682 302.45C739.182 304.39 737.082 305.36 734.382 305.36C733.262 305.36 732.242 305.17 731.322 304.79C730.422 304.41 729.652 303.89 729.012 303.23C728.392 302.55 727.912 301.76 727.572 300.86C727.232 299.94 727.062 298.95 727.062 297.89C727.062 296.83 727.242 295.85 727.602 294.95C727.982 294.03 728.492 293.24 729.132 292.58C729.792 291.9 730.572 291.37 731.472 290.99C732.372 290.61 733.352 290.42 734.412 290.42C735.672 290.42 736.732 290.64 737.592 291.08C738.472 291.52 739.192 292.1 739.752 292.82C740.312 293.52 740.712 294.32 740.952 295.22C741.212 296.1 741.342 297 741.342 297.92V298.88H729.942ZM738.462 296.72C738.442 296.12 738.342 295.57 738.162 295.07C738.002 294.57 737.752 294.14 737.412 293.78C737.072 293.4 736.642 293.11 736.122 292.91C735.622 292.69 735.032 292.58 734.352 292.58C733.692 292.58 733.082 292.71 732.522 292.97C731.982 293.21 731.522 293.53 731.142 293.93C730.762 294.33 730.462 294.78 730.242 295.28C730.042 295.76 729.942 296.24 729.942 296.72H738.462ZM752.132 294.35C751.812 293.95 751.412 293.62 750.932 293.36C750.472 293.08 749.902 292.94 749.222 292.94C748.582 292.94 748.022 293.08 747.542 293.36C747.082 293.62 746.852 294.01 746.852 294.53C746.852 294.95 746.982 295.29 747.242 295.55C747.522 295.81 747.842 296.02 748.202 296.18C748.582 296.34 748.982 296.46 749.402 296.54C749.822 296.62 750.182 296.69 750.482 296.75C751.062 296.89 751.602 297.06 752.102 297.26C752.622 297.46 753.062 297.72 753.422 298.04C753.802 298.36 754.092 298.75 754.292 299.21C754.512 299.67 754.622 300.23 754.622 300.89C754.622 301.69 754.452 302.38 754.112 302.96C753.772 303.52 753.332 303.98 752.792 304.34C752.252 304.7 751.632 304.96 750.932 305.12C750.252 305.28 749.562 305.36 748.862 305.36C747.682 305.36 746.642 305.18 745.742 304.82C744.862 304.46 744.072 303.8 743.372 302.84L745.412 301.16C745.852 301.6 746.342 301.99 746.882 302.33C747.422 302.67 748.082 302.84 748.862 302.84C749.202 302.84 749.542 302.81 749.882 302.75C750.242 302.67 750.552 302.56 750.812 302.42C751.092 302.26 751.312 302.07 751.472 301.85C751.652 301.61 751.742 301.34 751.742 301.04C751.742 300.64 751.612 300.31 751.352 300.05C751.112 299.79 750.812 299.59 750.452 299.45C750.112 299.29 749.742 299.17 749.342 299.09C748.962 298.99 748.622 298.91 748.322 298.85C747.742 298.71 747.192 298.55 746.672 298.37C746.152 298.19 745.692 297.95 745.292 297.65C744.892 297.35 744.572 296.97 744.332 296.51C744.092 296.05 743.972 295.48 743.972 294.8C743.972 294.06 744.122 293.42 744.422 292.88C744.742 292.32 745.152 291.86 745.652 291.5C746.172 291.14 746.752 290.87 747.392 290.69C748.052 290.51 748.712 290.42 749.372 290.42C750.332 290.42 751.252 290.6 752.132 290.96C753.012 291.32 753.712 291.92 754.232 292.76L752.132 294.35ZM764.292 299H756.912V296.48H764.292V299ZM767.604 282.32H770.304V305H767.604V282.32ZM776.642 298.88C776.642 299.5 776.772 300.07 777.032 300.59C777.312 301.09 777.672 301.52 778.112 301.88C778.552 302.24 779.062 302.52 779.642 302.72C780.222 302.92 780.822 303.02 781.442 303.02C782.282 303.02 783.012 302.83 783.632 302.45C784.252 302.05 784.822 301.53 785.342 300.89L787.382 302.45C785.882 304.39 783.782 305.36 781.082 305.36C779.962 305.36 778.942 305.17 778.022 304.79C777.122 304.41 776.352 303.89 775.712 303.23C775.092 302.55 774.612 301.76 774.272 300.86C773.932 299.94 773.762 298.95 773.762 297.89C773.762 296.83 773.942 295.85 774.302 294.95C774.682 294.03 775.192 293.24 775.832 292.58C776.492 291.9 777.272 291.37 778.172 290.99C779.072 290.61 780.052 290.42 781.112 290.42C782.372 290.42 783.432 290.64 784.292 291.08C785.172 291.52 785.892 292.1 786.452 292.82C787.012 293.52 787.412 294.32 787.652 295.22C787.912 296.1 788.042 297 788.042 297.92V298.88H776.642ZM785.162 296.72C785.142 296.12 785.042 295.57 784.862 295.07C784.702 294.57 784.452 294.14 784.112 293.78C783.772 293.4 783.342 293.11 782.822 292.91C782.322 292.69 781.732 292.58 781.052 292.58C780.392 292.58 779.782 292.71 779.222 292.97C778.682 293.21 778.222 293.53 777.842 293.93C777.462 294.33 777.162 294.78 776.942 295.28C776.742 295.76 776.642 296.24 776.642 296.72H785.162ZM805.521 305H802.821V302.96H802.761C802.241 303.72 801.521 304.31 800.601 304.73C799.701 305.15 798.771 305.36 797.811 305.36C796.711 305.36 795.711 305.17 794.811 304.79C793.931 304.41 793.171 303.88 792.531 303.2C791.911 302.52 791.431 301.73 791.091 300.83C790.751 299.93 790.581 298.95 790.581 297.89C790.581 296.83 790.751 295.85 791.091 294.95C791.431 294.03 791.911 293.24 792.531 292.58C793.171 291.9 793.931 291.37 794.811 290.99C795.711 290.61 796.711 290.42 797.811 290.42C798.831 290.42 799.791 290.64 800.691 291.08C801.591 291.5 802.281 292.08 802.761 292.82H802.821V282.32H805.521V305ZM798.141 302.84C798.861 302.84 799.511 302.72 800.091 302.48C800.671 302.22 801.161 301.88 801.561 301.46C801.961 301.02 802.271 300.5 802.491 299.9C802.711 299.28 802.821 298.61 802.821 297.89C802.821 297.17 802.711 296.51 802.491 295.91C802.271 295.29 801.961 294.77 801.561 294.35C801.161 293.91 800.671 293.57 800.091 293.33C799.511 293.07 798.861 292.94 798.141 292.94C797.421 292.94 796.771 293.07 796.191 293.33C795.611 293.57 795.121 293.91 794.721 294.35C794.321 294.77 794.011 295.29 793.791 295.91C793.571 296.51 793.461 297.17 793.461 297.89C793.461 298.61 793.571 299.28 793.791 299.9C794.011 300.5 794.321 301.02 794.721 301.46C795.121 301.88 795.611 302.22 796.191 302.48C796.771 302.72 797.421 302.84 798.141 302.84Z" fill="#737373"/>
<path d="M939.409 283.76H947.299C948.399 283.76 949.439 283.86 950.419 284.06C951.399 284.26 952.249 284.61 952.969 285.11C953.709 285.59 954.289 286.25 954.709 287.09C955.149 287.91 955.369 288.95 955.369 290.21C955.369 291.45 955.169 292.49 954.769 293.33C954.369 294.17 953.819 294.84 953.119 295.34C952.419 295.84 951.589 296.2 950.629 296.42C949.669 296.62 948.629 296.72 947.509 296.72H944.089V305H939.409V283.76ZM944.089 292.76H947.209C947.629 292.76 948.029 292.72 948.409 292.64C948.809 292.56 949.159 292.43 949.459 292.25C949.779 292.05 950.029 291.79 950.209 291.47C950.409 291.13 950.509 290.71 950.509 290.21C950.509 289.67 950.379 289.24 950.119 288.92C949.879 288.58 949.559 288.32 949.159 288.14C948.779 287.96 948.349 287.85 947.869 287.81C947.389 287.75 946.929 287.72 946.489 287.72H944.089V292.76ZM957.736 290.42H962.236V292.76H962.296C962.776 291.86 963.346 291.19 964.006 290.75C964.666 290.29 965.496 290.06 966.496 290.06C966.756 290.06 967.016 290.07 967.276 290.09C967.536 290.11 967.776 290.15 967.996 290.21V294.32C967.676 294.22 967.356 294.15 967.036 294.11C966.736 294.05 966.416 294.02 966.076 294.02C965.216 294.02 964.536 294.14 964.036 294.38C963.536 294.62 963.146 294.96 962.866 295.4C962.606 295.82 962.436 296.33 962.356 296.93C962.276 297.53 962.236 298.19 962.236 298.91V305H957.736V290.42ZM968.885 297.71C968.885 296.55 969.095 295.5 969.515 294.56C969.935 293.62 970.505 292.82 971.225 292.16C971.965 291.48 972.825 290.96 973.805 290.6C974.805 290.24 975.865 290.06 976.985 290.06C978.105 290.06 979.155 290.24 980.135 290.6C981.135 290.96 981.995 291.48 982.715 292.16C983.455 292.82 984.035 293.62 984.455 294.56C984.875 295.5 985.085 296.55 985.085 297.71C985.085 298.87 984.875 299.92 984.455 300.86C984.035 301.8 983.455 302.61 982.715 303.29C981.995 303.95 981.135 304.46 980.135 304.82C979.155 305.18 978.105 305.36 976.985 305.36C975.865 305.36 974.805 305.18 973.805 304.82C972.825 304.46 971.965 303.95 971.225 303.29C970.505 302.61 969.935 301.8 969.515 300.86C969.095 299.92 968.885 298.87 968.885 297.71ZM973.385 297.71C973.385 298.81 973.695 299.7 974.315 300.38C974.955 301.06 975.845 301.4 976.985 301.4C978.125 301.4 979.005 301.06 979.625 300.38C980.265 299.7 980.585 298.81 980.585 297.71C980.585 296.61 980.265 295.72 979.625 295.04C979.005 294.36 978.125 294.02 976.985 294.02C975.845 294.02 974.955 294.36 974.315 295.04C973.695 295.72 973.385 296.61 973.385 297.71ZM1003.04 305H998.896V303.08H998.836C998.656 303.34 998.416 303.61 998.116 303.89C997.836 304.15 997.496 304.39 997.096 304.61C996.716 304.83 996.286 305.01 995.806 305.15C995.346 305.29 994.866 305.36 994.366 305.36C993.286 305.36 992.306 305.18 991.426 304.82C990.546 304.44 989.786 303.92 989.146 303.26C988.526 302.58 988.046 301.78 987.706 300.86C987.366 299.94 987.196 298.93 987.196 297.83C987.196 296.81 987.346 295.84 987.646 294.92C987.966 293.98 988.406 293.15 988.966 292.43C989.546 291.71 990.246 291.14 991.066 290.72C991.886 290.28 992.816 290.06 993.856 290.06C994.796 290.06 995.666 290.21 996.466 290.51C997.286 290.79 997.956 291.28 998.476 291.98H998.536V282.32H1003.04V305ZM998.896 297.71C998.896 296.61 998.576 295.72 997.936 295.04C997.316 294.36 996.436 294.02 995.296 294.02C994.156 294.02 993.266 294.36 992.626 295.04C992.006 295.72 991.696 296.61 991.696 297.71C991.696 298.81 992.006 299.7 992.626 300.38C993.266 301.06 994.156 301.4 995.296 301.4C996.436 301.4 997.316 301.06 997.936 300.38C998.576 299.7 998.896 298.81 998.896 297.71ZM1020.67 305H1016.35V303.02H1016.29C1016.13 303.3 1015.92 303.58 1015.66 303.86C1015.42 304.14 1015.12 304.39 1014.76 304.61C1014.4 304.83 1013.99 305.01 1013.53 305.15C1013.07 305.29 1012.57 305.36 1012.03 305.36C1010.89 305.36 1009.96 305.19 1009.24 304.85C1008.54 304.49 1007.99 304 1007.59 303.38C1007.21 302.76 1006.95 302.03 1006.81 301.19C1006.69 300.35 1006.63 299.44 1006.63 298.46V290.42H1011.13V297.56C1011.13 297.98 1011.14 298.42 1011.16 298.88C1011.2 299.32 1011.29 299.73 1011.43 300.11C1011.59 300.49 1011.82 300.8 1012.12 301.04C1012.44 301.28 1012.89 301.4 1013.47 301.4C1014.05 301.4 1014.52 301.3 1014.88 301.1C1015.24 300.88 1015.51 300.6 1015.69 300.26C1015.89 299.9 1016.02 299.5 1016.08 299.06C1016.14 298.62 1016.17 298.16 1016.17 297.68V290.42H1020.67V305ZM1033.73 295.13C1033.51 294.81 1033.2 294.55 1032.8 294.35C1032.4 294.13 1031.97 294.02 1031.51 294.02C1030.37 294.02 1029.48 294.36 1028.84 295.04C1028.22 295.72 1027.91 296.61 1027.91 297.71C1027.91 298.81 1028.22 299.7 1028.84 300.38C1029.48 301.06 1030.37 301.4 1031.51 301.4C1032.01 301.4 1032.44 301.29 1032.8 301.07C1033.16 300.85 1033.47 300.59 1033.73 300.29L1036.7 303.41C1036 304.13 1035.17 304.64 1034.21 304.94C1033.27 305.22 1032.37 305.36 1031.51 305.36C1030.39 305.36 1029.33 305.18 1028.33 304.82C1027.35 304.46 1026.49 303.95 1025.75 303.29C1025.03 302.61 1024.46 301.8 1024.04 300.86C1023.62 299.92 1023.41 298.87 1023.41 297.71C1023.41 296.55 1023.62 295.5 1024.04 294.56C1024.46 293.62 1025.03 292.82 1025.75 292.16C1026.49 291.48 1027.35 290.96 1028.33 290.6C1029.33 290.24 1030.39 290.06 1031.51 290.06C1032.37 290.06 1033.27 290.21 1034.21 290.51C1035.17 290.79 1036 291.29 1036.7 292.01L1033.73 295.13ZM1048.26 294.02H1044.3V298.88C1044.3 299.28 1044.32 299.65 1044.36 299.99C1044.4 300.31 1044.49 300.59 1044.63 300.83C1044.77 301.07 1044.98 301.26 1045.26 301.4C1045.56 301.52 1045.95 301.58 1046.43 301.58C1046.67 301.58 1046.98 301.56 1047.36 301.52C1047.76 301.46 1048.06 301.34 1048.26 301.16V304.91C1047.76 305.09 1047.24 305.21 1046.7 305.27C1046.16 305.33 1045.63 305.36 1045.11 305.36C1044.35 305.36 1043.65 305.28 1043.01 305.12C1042.37 304.96 1041.81 304.71 1041.33 304.37C1040.85 304.01 1040.47 303.55 1040.19 302.99C1039.93 302.43 1039.8 301.75 1039.8 300.95V294.02H1036.92V290.42H1039.8V286.1H1044.3V290.42H1048.26V294.02ZM1057.09 299.33H1049.71V295.73H1057.09V299.33ZM1059.48 282.32H1063.98V305H1059.48V282.32ZM1081.02 302.48C1080.3 303.4 1079.39 304.11 1078.29 304.61C1077.19 305.11 1076.05 305.36 1074.87 305.36C1073.75 305.36 1072.69 305.18 1071.69 304.82C1070.71 304.46 1069.85 303.95 1069.11 303.29C1068.39 302.61 1067.82 301.8 1067.4 300.86C1066.98 299.92 1066.77 298.87 1066.77 297.71C1066.77 296.55 1066.98 295.5 1067.4 294.56C1067.82 293.62 1068.39 292.82 1069.11 292.16C1069.85 291.48 1070.71 290.96 1071.69 290.6C1072.69 290.24 1073.75 290.06 1074.87 290.06C1075.91 290.06 1076.85 290.24 1077.69 290.6C1078.55 290.96 1079.27 291.48 1079.85 292.16C1080.45 292.82 1080.91 293.62 1081.23 294.56C1081.55 295.5 1081.71 296.55 1081.71 297.71V299.12H1071.27C1071.45 299.98 1071.84 300.67 1072.44 301.19C1073.04 301.69 1073.78 301.94 1074.66 301.94C1075.4 301.94 1076.02 301.78 1076.52 301.46C1077.04 301.12 1077.49 300.69 1077.87 300.17L1081.02 302.48ZM1077.21 296.06C1077.23 295.3 1076.98 294.65 1076.46 294.11C1075.94 293.57 1075.27 293.3 1074.45 293.3C1073.95 293.3 1073.51 293.38 1073.13 293.54C1072.75 293.7 1072.42 293.91 1072.14 294.17C1071.88 294.41 1071.67 294.7 1071.51 295.04C1071.37 295.36 1071.29 295.7 1071.27 296.06H1077.21ZM1099.74 305H1095.6V303.08H1095.54C1095.36 303.34 1095.12 303.61 1094.82 303.89C1094.54 304.15 1094.2 304.39 1093.8 304.61C1093.42 304.83 1092.99 305.01 1092.51 305.15C1092.05 305.29 1091.57 305.36 1091.07 305.36C1089.99 305.36 1089.01 305.18 1088.13 304.82C1087.25 304.44 1086.49 303.92 1085.85 303.26C1085.23 302.58 1084.75 301.78 1084.41 300.86C1084.07 299.94 1083.9 298.93 1083.9 297.83C1083.9 296.81 1084.05 295.84 1084.35 294.92C1084.67 293.98 1085.11 293.15 1085.67 292.43C1086.25 291.71 1086.95 291.14 1087.77 290.72C1088.59 290.28 1089.52 290.06 1090.56 290.06C1091.5 290.06 1092.37 290.21 1093.17 290.51C1093.99 290.79 1094.66 291.28 1095.18 291.98H1095.24V282.32H1099.74V305ZM1095.6 297.71C1095.6 296.61 1095.28 295.72 1094.64 295.04C1094.02 294.36 1093.14 294.02 1092 294.02C1090.86 294.02 1089.97 294.36 1089.33 295.04C1088.71 295.72 1088.4 296.61 1088.4 297.71C1088.4 298.81 1088.71 299.7 1089.33 300.38C1089.97 301.06 1090.86 301.4 1092 301.4C1093.14 301.4 1094.02 301.06 1094.64 300.38C1095.28 299.7 1095.6 298.81 1095.6 297.71Z" fill="#737373"/>
<path fill-rule="evenodd" clip-rule="evenodd" d="M897.111 295C897.111 282.236 886.764 271.889 874 271.889C861.236 271.889 850.889 282.236 850.889 295C850.889 307.764 861.236 318.111 874 318.111C880.13 318.111 886.008 315.676 890.342 311.342C894.676 307.008 897.111 301.129 897.111 295ZM853.778 295C853.778 283.831 862.832 274.778 874 274.778C885.169 274.778 894.222 283.831 894.222 295C894.222 306.168 885.169 315.222 874 315.222C868.637 315.222 863.493 313.091 859.701 309.299C855.909 305.507 853.778 300.363 853.778 295ZM877.077 284.123L888.069 295.115L877.077 306.108C876.724 306.52 876.17 306.699 875.642 306.572C875.114 306.445 874.702 306.033 874.575 305.506C874.448 304.978 874.628 304.424 875.04 304.071L882.667 296.444L860.74 296.444C859.942 296.444 859.296 295.798 859.296 295C859.296 294.202 859.942 293.555 860.74 293.555L882.407 293.555L875.04 286.16C874.628 285.807 874.448 285.253 874.575 284.725C874.702 284.197 875.114 283.785 875.642 283.658C876.17 283.531 876.724 283.711 877.077 284.123Z" fill="#737373"/>
</svg>
