<svg width="320" height="240" viewBox="0 0 320 240" fill="none" xmlns="http://www.w3.org/2000/svg">
<g opacity="0.3">
<path d="M160.014 52.5586C147.164 52.5586 134.84 57.6623 125.753 66.7472C116.665 75.8322 111.558 88.1546 111.554 101.005C111.554 102.012 111.554 103.005 111.655 103.983H124.777C124.691 103.024 124.647 102.031 124.647 101.005C124.647 91.6247 128.374 82.629 135.006 75.9965C141.639 69.3639 150.634 65.6377 160.014 65.6377C169.394 65.6377 178.39 69.3639 185.023 75.9965C191.655 82.629 195.381 91.6247 195.381 101.005C195.381 102.012 195.381 103.005 195.237 103.983H208.36C208.36 103.005 208.46 102.012 208.46 101.005C208.457 88.1571 203.351 75.8369 194.267 66.7523C185.182 57.6678 172.862 52.5624 160.014 52.5586V52.5586Z" fill="#2CB1E5"/>
</g>
<path d="M160.014 171C146.169 171.003 132.634 166.9 121.121 159.21C109.607 151.52 100.633 140.588 95.3326 127.798C90.0323 115.007 88.644 100.932 91.3433 87.3525C94.0426 73.7729 100.708 61.2988 110.497 51.5076C120.287 41.7165 132.759 35.0482 146.338 32.3461C159.917 29.644 173.993 31.0294 186.785 36.3271C199.576 41.6248 210.51 50.5969 218.202 62.1086C225.894 73.6204 230 87.1547 230 101C229.981 119.557 222.602 137.348 209.482 150.471C196.361 163.594 178.571 170.977 160.014 171V171ZM160.014 33.8921C146.738 33.8893 133.758 37.8239 122.718 45.1983C111.677 52.5727 103.072 63.0556 97.9899 75.3212C92.9077 87.5867 91.5773 101.084 94.1668 114.106C96.7562 127.128 103.149 139.089 112.537 148.477C121.925 157.865 133.887 164.258 146.909 166.848C159.93 169.437 173.428 168.107 185.693 163.025C197.959 157.942 208.442 149.337 215.816 138.297C223.191 127.256 227.125 114.277 227.122 101C227.099 83.2089 220.022 66.153 207.442 53.5728C194.861 40.9926 177.806 33.915 160.014 33.8921V33.8921Z" fill="#B9C8D1"/>
<path d="M144.849 159.087H144.475C135.108 156.578 126.488 151.839 119.351 145.274C112.213 138.71 106.772 130.515 103.49 121.39C100.208 112.265 99.1841 102.482 100.505 92.8753C101.827 83.2688 105.454 74.1248 111.077 66.2248C116.7 58.3247 124.152 51.9034 132.797 47.5094C141.441 43.1154 151.021 40.8794 160.717 40.9924C170.413 41.1053 179.938 43.564 188.478 48.1582C197.017 52.7524 204.318 59.3456 209.755 67.3745C209.912 67.6897 209.948 68.0514 209.857 68.3913C209.765 68.7311 209.552 69.0255 209.257 69.2188C208.963 69.412 208.608 69.4906 208.26 69.4398C207.911 69.3889 207.594 69.2122 207.367 68.9429C202.189 61.2987 195.238 55.0217 187.107 50.648C178.976 46.2744 169.907 43.9342 160.675 43.8274C151.443 43.7205 142.322 45.8503 134.092 50.0346C125.862 54.2189 118.767 60.3334 113.414 67.8557C108.061 75.378 104.608 84.0844 103.351 93.2311C102.094 102.378 103.071 111.693 106.196 120.38C109.322 129.068 114.504 136.869 121.3 143.119C128.096 149.368 136.304 153.879 145.223 156.267C145.605 156.316 145.951 156.515 146.186 156.82C146.42 157.125 146.524 157.511 146.475 157.892C146.425 158.274 146.226 158.62 145.921 158.855C145.616 159.09 145.231 159.194 144.849 159.144V159.087Z" fill="#B9C8D1"/>
<path d="M160.014 56.1491C159.633 56.1491 159.267 55.9975 158.997 55.7277C158.727 55.4579 158.575 55.0919 158.575 54.7103V48.0053C158.575 47.6236 158.727 47.2577 158.997 46.9878C159.267 46.718 159.633 46.5664 160.014 46.5664C160.396 46.5664 160.762 46.718 161.032 46.9878C161.302 47.2577 161.453 47.6236 161.453 48.0053V54.7103C161.453 55.0919 161.302 55.4579 161.032 55.7277C160.762 55.9975 160.396 56.1491 160.014 56.1491Z" fill="#B9C8D1"/>
<path d="M160.014 154.063C159.633 154.063 159.267 153.912 158.997 153.642C158.727 153.372 158.575 153.006 158.575 152.624V145.919C158.575 145.538 158.727 145.172 158.997 144.902C159.267 144.632 159.633 144.48 160.014 144.48C160.396 144.48 160.762 144.632 161.032 144.902C161.302 145.172 161.453 145.538 161.453 145.919V152.624C161.453 153.006 161.302 153.372 161.032 153.642C160.762 153.912 160.396 154.063 160.014 154.063Z" fill="#B9C8D1"/>
<path d="M144.417 58.8697C144.122 58.8695 143.833 58.7783 143.591 58.6084C143.349 58.4385 143.165 58.1981 143.065 57.92L140.763 51.6754C140.631 51.3167 140.647 50.9204 140.808 50.5737C140.968 50.2269 141.26 49.9582 141.619 49.8265C141.977 49.6948 142.374 49.7111 142.72 49.8716C143.067 50.0322 143.336 50.3239 143.468 50.6826L145.77 56.9848C145.899 57.3435 145.881 57.739 145.719 58.0843C145.557 58.4297 145.265 58.6966 144.906 58.8265C144.747 58.8672 144.582 58.8818 144.417 58.8697V58.8697Z" fill="#B9C8D1"/>
<path d="M177.899 150.956C177.605 150.957 177.318 150.868 177.076 150.7C176.835 150.533 176.65 150.296 176.547 150.02L174.259 143.718C174.189 143.539 174.155 143.348 174.159 143.156C174.164 142.963 174.207 142.774 174.286 142.599C174.366 142.423 174.479 142.266 174.62 142.135C174.762 142.004 174.927 141.903 175.108 141.838C175.289 141.772 175.481 141.744 175.674 141.754C175.866 141.764 176.054 141.813 176.227 141.897C176.4 141.981 176.554 142.099 176.681 142.244C176.808 142.388 176.904 142.557 176.964 142.74L179.252 149.028C179.381 149.386 179.363 149.782 179.201 150.127C179.04 150.473 178.747 150.739 178.389 150.869C178.232 150.926 178.066 150.955 177.899 150.956V150.956Z" fill="#B9C8D1"/>
<path d="M130.691 66.8143C130.483 66.8143 130.278 66.7693 130.089 66.6824C129.9 66.5954 129.732 66.4686 129.597 66.3107L125.281 61.174C125.16 61.0285 125.069 60.8606 125.013 60.6799C124.957 60.4992 124.937 60.3093 124.954 60.1209C124.971 59.9325 125.026 59.7494 125.114 59.582C125.202 59.4146 125.322 59.2662 125.468 59.1452C125.613 59.0243 125.781 58.9332 125.962 58.8772C126.143 58.8211 126.333 58.8012 126.521 58.8186C126.901 58.8537 127.252 59.0384 127.497 59.3323L131.813 64.4546C131.935 64.5991 132.027 64.7662 132.085 64.9464C132.142 65.1266 132.163 65.3163 132.147 65.5048C132.131 65.6932 132.078 65.8766 131.991 66.0445C131.904 66.2124 131.785 66.3616 131.64 66.4834C131.374 66.7043 131.037 66.8218 130.691 66.8143V66.8143Z" fill="#B9C8D1"/>
<path d="M193.626 141.822C193.417 141.82 193.211 141.773 193.022 141.684C192.833 141.594 192.666 141.465 192.533 141.304L188.216 136.182C187.97 135.888 187.851 135.508 187.884 135.127C187.918 134.745 188.102 134.392 188.396 134.146C188.69 133.9 189.069 133.78 189.451 133.814C189.833 133.848 190.186 134.032 190.432 134.326L194.748 139.462C194.924 139.673 195.035 139.929 195.07 140.2C195.105 140.471 195.062 140.747 194.945 140.995C194.829 141.243 194.644 141.452 194.413 141.599C194.182 141.745 193.914 141.823 193.64 141.822H193.626Z" fill="#B9C8D1"/>
<path d="M120.518 79.0164C120.264 79.0138 120.016 78.9443 119.798 78.815L114.043 75.4769C113.879 75.3824 113.734 75.2564 113.619 75.1063C113.503 74.9561 113.418 74.7845 113.369 74.6015C113.319 74.4185 113.306 74.2275 113.331 74.0394C113.355 73.8514 113.416 73.67 113.511 73.5056C113.605 73.3412 113.731 73.1971 113.881 73.0814C114.031 72.9656 114.203 72.8806 114.386 72.8312C114.569 72.7818 114.76 72.7689 114.948 72.7932C115.136 72.8176 115.317 72.8788 115.482 72.9733L121.237 76.3258C121.514 76.4828 121.732 76.7275 121.855 77.0213C121.978 77.3151 122 77.6415 121.918 77.9493C121.836 78.2571 121.653 78.5288 121.4 78.7219C121.147 78.9151 120.836 79.0186 120.518 79.0164V79.0164Z" fill="#B9C8D1"/>
<path d="M205.309 127.935C205.057 127.937 204.809 127.872 204.59 127.748L198.834 124.395C198.662 124.305 198.51 124.182 198.388 124.031C198.265 123.881 198.174 123.708 198.119 123.521C198.065 123.335 198.05 123.14 198.073 122.947C198.096 122.754 198.159 122.568 198.256 122.4C198.353 122.232 198.483 122.086 198.638 121.969C198.793 121.853 198.971 121.769 199.159 121.723C199.348 121.677 199.543 121.669 199.735 121.701C199.926 121.732 200.11 121.802 200.273 121.906L206.029 125.244C206.306 125.401 206.523 125.646 206.646 125.94C206.769 126.234 206.792 126.56 206.709 126.868C206.627 127.176 206.445 127.447 206.192 127.641C205.938 127.834 205.628 127.937 205.309 127.935Z" fill="#B9C8D1"/>
<path d="M115.093 93.8365H114.849L108.245 92.6711C107.863 92.6043 107.524 92.3886 107.301 92.0716C107.078 91.7545 106.991 91.362 107.058 90.9804C107.124 90.5988 107.34 90.2593 107.657 90.0367C107.974 89.8141 108.367 89.7266 108.748 89.7934L115.352 90.9588C115.541 90.9758 115.725 91.0299 115.893 91.1179C116.061 91.2059 116.21 91.3262 116.332 91.4718C116.454 91.6175 116.545 91.7856 116.602 91.9667C116.658 92.1478 116.679 92.3382 116.662 92.5272C116.645 92.7161 116.591 92.8999 116.503 93.0679C116.415 93.236 116.294 93.3851 116.149 93.5067C116.003 93.6282 115.835 93.72 115.654 93.7765C115.473 93.8331 115.282 93.8535 115.093 93.8365V93.8365Z" fill="#B9C8D1"/>
<path d="M211.597 110.842H211.338L204.748 109.676C204.375 109.61 204.044 109.398 203.826 109.088C203.607 108.779 203.52 108.395 203.583 108.022C203.646 107.646 203.856 107.311 204.166 107.09C204.476 106.868 204.862 106.779 205.238 106.842L211.842 108.007C212.223 108.04 212.577 108.222 212.823 108.515C213.07 108.808 213.191 109.187 213.158 109.568C213.126 109.95 212.943 110.303 212.651 110.55C212.358 110.797 211.979 110.917 211.597 110.885V110.842Z" fill="#B9C8D1"/>
<path d="M108.504 110.84C108.122 110.875 107.742 110.756 107.448 110.511C107.303 110.389 107.182 110.24 107.094 110.072C107.006 109.904 106.952 109.72 106.935 109.531C106.918 109.342 106.939 109.152 106.995 108.971C107.052 108.79 107.144 108.621 107.265 108.476C107.511 108.182 107.863 107.997 108.245 107.963L114.849 106.797C115.036 106.764 115.228 106.769 115.413 106.81C115.599 106.852 115.774 106.93 115.929 107.039C116.085 107.149 116.216 107.288 116.318 107.449C116.419 107.61 116.487 107.79 116.518 107.977C116.581 108.351 116.494 108.734 116.275 109.044C116.057 109.354 115.726 109.565 115.353 109.632L108.748 110.797L108.504 110.84Z" fill="#B9C8D1"/>
<path d="M204.921 93.8365C204.539 93.869 204.161 93.7485 203.868 93.5016C203.575 93.2547 203.392 92.9016 203.36 92.52C203.327 92.1384 203.448 91.7595 203.695 91.4667C203.942 91.174 204.295 90.9913 204.676 90.9588L211.266 89.7934C211.455 89.7603 211.649 89.7648 211.836 89.8065C212.023 89.8483 212.201 89.9265 212.358 90.0367C212.515 90.147 212.648 90.287 212.751 90.4489C212.854 90.6109 212.924 90.7914 212.957 90.9804C212.99 91.1694 212.986 91.363 212.944 91.5502C212.902 91.7374 212.824 91.9146 212.714 92.0716C212.603 92.2286 212.463 92.3623 212.301 92.4652C212.14 92.568 211.959 92.638 211.77 92.671L205.166 93.8365H204.921Z" fill="#B9C8D1"/>
<path d="M114.72 127.935C114.401 127.937 114.091 127.833 113.837 127.64C113.584 127.447 113.402 127.175 113.32 126.868C113.237 126.56 113.259 126.234 113.383 125.94C113.506 125.646 113.723 125.401 114 125.244L119.756 121.906C120.084 121.717 120.474 121.666 120.841 121.763C121.207 121.86 121.52 122.097 121.712 122.424C121.808 122.587 121.871 122.768 121.897 122.956C121.922 123.143 121.911 123.334 121.863 123.517C121.815 123.7 121.731 123.872 121.616 124.023C121.501 124.174 121.358 124.3 121.194 124.395L115.439 127.748C115.22 127.872 114.972 127.937 114.72 127.935Z" fill="#B9C8D1"/>
<path d="M199.511 79.0164C199.192 79.0186 198.882 78.9151 198.629 78.7219C198.375 78.5288 198.193 78.2571 198.111 77.9493C198.029 77.6415 198.051 77.3151 198.174 77.0213C198.297 76.7275 198.514 76.4828 198.792 76.3258L204.547 72.9733C204.711 72.8788 204.893 72.8176 205.081 72.7932C205.269 72.7689 205.46 72.7818 205.643 72.8312C205.826 72.8806 205.997 72.9656 206.148 73.0814C206.298 73.1971 206.424 73.3412 206.518 73.5056C206.613 73.67 206.674 73.8514 206.698 74.0394C206.723 74.2275 206.71 74.4185 206.66 74.6015C206.611 74.7845 206.526 74.9561 206.41 75.1063C206.294 75.2564 206.15 75.3824 205.986 75.4769L200.23 78.815C200.012 78.9443 199.764 79.0138 199.511 79.0164Z" fill="#B9C8D1"/>
<path d="M126.389 141.821C126.111 141.827 125.838 141.752 125.602 141.606C125.366 141.46 125.177 141.249 125.059 140.998C124.94 140.747 124.897 140.467 124.933 140.192C124.97 139.917 125.086 139.658 125.266 139.447L129.583 134.311C129.829 134.019 130.181 133.836 130.561 133.804C130.942 133.772 131.32 133.892 131.612 134.138C131.904 134.384 132.086 134.736 132.118 135.116C132.151 135.497 132.03 135.875 131.784 136.167L127.468 141.289C127.337 141.45 127.173 141.581 126.987 141.673C126.8 141.765 126.596 141.816 126.389 141.821Z" fill="#B9C8D1"/>
<path d="M189.324 66.8119C188.988 66.8126 188.662 66.6955 188.403 66.481C188.257 66.3602 188.137 66.2118 188.049 66.0444C187.96 65.877 187.906 65.6938 187.889 65.5054C187.871 65.3169 187.891 65.1269 187.947 64.9462C188.004 64.7655 188.095 64.5976 188.216 64.4522L192.533 59.3299C192.776 59.0399 193.124 58.8576 193.501 58.8226C193.878 58.7876 194.254 58.9026 194.547 59.1428C194.693 59.2636 194.813 59.412 194.901 59.5794C194.99 59.7468 195.044 59.93 195.061 60.1184C195.079 60.3069 195.059 60.4969 195.003 60.6776C194.946 60.8584 194.855 61.0262 194.734 61.1716L190.417 66.3083C190.282 66.4662 190.115 66.593 189.926 66.68C189.737 66.7669 189.532 66.8119 189.324 66.8119Z" fill="#B9C8D1"/>
<path d="M142.115 150.956C141.948 150.956 141.783 150.926 141.626 150.869C141.267 150.74 140.975 150.473 140.813 150.127C140.651 149.782 140.633 149.386 140.763 149.028L143.065 142.74C143.195 142.381 143.462 142.089 143.807 141.927C144.152 141.765 144.548 141.747 144.906 141.877C145.265 142.006 145.557 142.273 145.719 142.619C145.881 142.964 145.899 143.36 145.77 143.718L143.468 150.02C143.365 150.296 143.18 150.533 142.938 150.7C142.696 150.868 142.409 150.957 142.115 150.956Z" fill="#B9C8D1"/>
<path d="M175.626 58.8699C175.454 58.8693 175.284 58.8402 175.122 58.7835C174.766 58.6508 174.477 58.3827 174.318 58.0376C174.159 57.6926 174.143 57.2987 174.273 56.9418L176.561 50.6396C176.693 50.2809 176.961 49.9892 177.308 49.8287C177.655 49.6681 178.051 49.6519 178.41 49.7835C178.769 49.9152 179.06 50.1839 179.221 50.5307C179.382 50.8774 179.398 51.2737 179.266 51.6325L176.978 57.9202C176.878 58.1983 176.694 58.4387 176.452 58.6086C176.21 58.7785 175.922 58.8697 175.626 58.8699Z" fill="#B9C8D1"/>
<path d="M160.403 111.632C159.13 111.632 157.876 111.318 156.753 110.717C155.631 110.116 154.673 109.248 153.967 108.189C153.26 107.13 152.825 105.913 152.701 104.646C152.577 103.378 152.767 102.1 153.255 100.924C153.743 99.748 154.514 98.7106 155.499 97.9036C156.484 97.0966 157.653 96.545 158.902 96.2978C160.151 96.0505 161.442 96.1151 162.66 96.486C163.878 96.8568 164.986 97.5224 165.885 98.4238C166.153 98.6934 166.303 99.058 166.303 99.4382C166.303 99.8183 166.153 100.183 165.885 100.453C165.751 100.587 165.592 100.694 165.417 100.768C165.241 100.841 165.053 100.878 164.863 100.878C164.673 100.878 164.485 100.841 164.31 100.768C164.135 100.694 163.975 100.587 163.842 100.453C163.276 99.887 162.58 99.4697 161.815 99.2375C161.049 99.0053 160.238 98.9655 159.454 99.1215C158.67 99.2776 157.936 99.6246 157.318 100.132C156.699 100.639 156.216 101.291 155.91 102.03C155.604 102.769 155.485 103.572 155.563 104.368C155.641 105.164 155.915 105.928 156.359 106.593C156.803 107.258 157.405 107.803 158.11 108.18C158.816 108.557 159.603 108.755 160.403 108.755C160.784 108.755 161.15 108.906 161.42 109.176C161.69 109.446 161.842 109.812 161.842 110.194C161.842 110.575 161.69 110.941 161.42 111.211C161.15 111.481 160.784 111.632 160.403 111.632V111.632Z" fill="#2CB1E5"/>
<path d="M160.446 97.9645C160.064 97.9645 159.698 97.8129 159.429 97.543C159.159 97.2732 159.007 96.9072 159.007 96.5256V62.6263C159.007 62.2447 159.159 61.8788 159.429 61.6089C159.698 61.3391 160.064 61.1875 160.446 61.1875C160.828 61.1875 161.194 61.3391 161.463 61.6089C161.733 61.8788 161.885 62.2447 161.885 62.6263V96.5256C161.885 96.9072 161.733 97.2732 161.463 97.543C161.194 97.8129 160.828 97.9645 160.446 97.9645Z" fill="#2CB1E5"/>
<path d="M127.404 210.256H136.062V212.848H130.212V215.224H135.738V217.816H130.212V220.408H136.386V223H127.404V210.256Z" fill="#565656"/>
<path d="M139.228 216.412H137.446V214.252H139.228V212.704C139.228 212.224 139.27 211.774 139.354 211.354C139.438 210.922 139.6 210.544 139.84 210.22C140.08 209.896 140.422 209.644 140.866 209.464C141.322 209.272 141.916 209.176 142.648 209.176C142.924 209.176 143.194 209.188 143.458 209.212C143.722 209.236 143.98 209.278 144.232 209.338L144.106 211.624C143.95 211.564 143.806 211.522 143.674 211.498C143.542 211.462 143.392 211.444 143.224 211.444C142.792 211.444 142.468 211.54 142.252 211.732C142.036 211.912 141.928 212.29 141.928 212.866V214.252H143.926V216.412H141.928V223H139.228V216.412Z" fill="#565656"/>
<path d="M151.65 214.252H154.35V223H151.65V214.252ZM151.434 211.498C151.434 211.066 151.584 210.7 151.884 210.4C152.196 210.088 152.568 209.932 153 209.932C153.432 209.932 153.798 210.088 154.098 210.4C154.41 210.7 154.566 211.066 154.566 211.498C154.566 211.93 154.41 212.302 154.098 212.614C153.798 212.914 153.432 213.064 153 213.064C152.568 213.064 152.196 212.914 151.884 212.614C151.584 212.302 151.434 211.93 151.434 211.498ZM145.89 216.412H144.108V214.252H145.89V212.704C145.89 212.224 145.932 211.774 146.016 211.354C146.1 210.922 146.262 210.544 146.502 210.22C146.742 209.896 147.084 209.644 147.528 209.464C147.984 209.272 148.578 209.176 149.31 209.176C149.586 209.176 149.856 209.188 150.12 209.212C150.384 209.236 150.642 209.278 150.894 209.338L150.768 211.624C150.612 211.564 150.468 211.522 150.336 211.498C150.204 211.462 150.054 211.444 149.886 211.444C149.454 211.444 149.13 211.54 148.914 211.732C148.698 211.912 148.59 212.29 148.59 212.866V214.252H150.588V216.412H148.59V223H145.89V216.412Z" fill="#565656"/>
<path d="M162.214 217.078C162.082 216.886 161.896 216.73 161.656 216.61C161.416 216.478 161.158 216.412 160.882 216.412C160.198 216.412 159.664 216.616 159.28 217.024C158.908 217.432 158.722 217.966 158.722 218.626C158.722 219.286 158.908 219.82 159.28 220.228C159.664 220.636 160.198 220.84 160.882 220.84C161.182 220.84 161.44 220.774 161.656 220.642C161.872 220.51 162.058 220.354 162.214 220.174L163.996 222.046C163.576 222.478 163.078 222.784 162.502 222.964C161.938 223.132 161.398 223.216 160.882 223.216C160.21 223.216 159.574 223.108 158.974 222.892C158.386 222.676 157.87 222.37 157.426 221.974C156.994 221.566 156.652 221.08 156.4 220.516C156.148 219.952 156.022 219.322 156.022 218.626C156.022 217.93 156.148 217.3 156.4 216.736C156.652 216.172 156.994 215.692 157.426 215.296C157.87 214.888 158.386 214.576 158.974 214.36C159.574 214.144 160.21 214.036 160.882 214.036C161.398 214.036 161.938 214.126 162.502 214.306C163.078 214.474 163.576 214.774 163.996 215.206L162.214 217.078Z" fill="#565656"/>
<path d="M165.012 214.252H167.712V223H165.012V214.252ZM164.796 211.498C164.796 211.066 164.946 210.7 165.246 210.4C165.558 210.088 165.93 209.932 166.362 209.932C166.794 209.932 167.16 210.088 167.46 210.4C167.772 210.7 167.928 211.066 167.928 211.498C167.928 211.93 167.772 212.302 167.46 212.614C167.16 212.914 166.794 213.064 166.362 213.064C165.93 213.064 165.558 212.914 165.246 212.614C164.946 212.302 164.796 211.93 164.796 211.498Z" fill="#565656"/>
<path d="M177.931 221.488C177.499 222.04 176.953 222.466 176.293 222.766C175.633 223.066 174.949 223.216 174.241 223.216C173.569 223.216 172.933 223.108 172.333 222.892C171.745 222.676 171.229 222.37 170.785 221.974C170.353 221.566 170.011 221.08 169.759 220.516C169.507 219.952 169.381 219.322 169.381 218.626C169.381 217.93 169.507 217.3 169.759 216.736C170.011 216.172 170.353 215.692 170.785 215.296C171.229 214.888 171.745 214.576 172.333 214.36C172.933 214.144 173.569 214.036 174.241 214.036C174.865 214.036 175.429 214.144 175.933 214.36C176.449 214.576 176.881 214.888 177.229 215.296C177.589 215.692 177.865 216.172 178.057 216.736C178.249 217.3 178.345 217.93 178.345 218.626V219.472H172.081C172.189 219.988 172.423 220.402 172.783 220.714C173.143 221.014 173.587 221.164 174.115 221.164C174.559 221.164 174.931 221.068 175.231 220.876C175.543 220.672 175.813 220.414 176.041 220.102L177.931 221.488ZM175.645 217.636C175.657 217.18 175.507 216.79 175.195 216.466C174.883 216.142 174.481 215.98 173.989 215.98C173.689 215.98 173.425 216.028 173.197 216.124C172.969 216.22 172.771 216.346 172.603 216.502C172.447 216.646 172.321 216.82 172.225 217.024C172.141 217.216 172.093 217.42 172.081 217.636H175.645Z" fill="#565656"/>
<path d="M179.987 214.252H182.579V215.44H182.615C182.699 215.272 182.819 215.104 182.975 214.936C183.131 214.768 183.317 214.618 183.533 214.486C183.749 214.354 183.995 214.246 184.271 214.162C184.547 214.078 184.847 214.036 185.171 214.036C185.855 214.036 186.407 214.144 186.827 214.36C187.247 214.564 187.571 214.852 187.799 215.224C188.039 215.596 188.201 216.034 188.285 216.538C188.369 217.042 188.411 217.588 188.411 218.176V223H185.711V218.716C185.711 218.464 185.699 218.206 185.675 217.942C185.663 217.666 185.609 217.414 185.513 217.186C185.429 216.958 185.291 216.772 185.099 216.628C184.919 216.484 184.655 216.412 184.307 216.412C183.959 216.412 183.677 216.478 183.461 216.61C183.245 216.73 183.077 216.898 182.957 217.114C182.849 217.318 182.777 217.552 182.741 217.816C182.705 218.08 182.687 218.356 182.687 218.644V223H179.987V214.252Z" fill="#565656"/>
<path d="M196.281 216.412H193.905V219.328C193.905 219.568 193.917 219.79 193.941 219.994C193.965 220.186 194.019 220.354 194.103 220.498C194.187 220.642 194.313 220.756 194.481 220.84C194.661 220.912 194.895 220.948 195.183 220.948C195.327 220.948 195.513 220.936 195.741 220.912C195.981 220.876 196.161 220.804 196.281 220.696V222.946C195.981 223.054 195.669 223.126 195.345 223.162C195.021 223.198 194.703 223.216 194.391 223.216C193.935 223.216 193.515 223.168 193.131 223.072C192.747 222.976 192.411 222.826 192.123 222.622C191.835 222.406 191.607 222.13 191.439 221.794C191.283 221.458 191.205 221.05 191.205 220.57V216.412H189.477V214.252H191.205V211.66H193.905V214.252H196.281V216.412Z" fill="#565656"/>
</svg>
