<svg width="320" height="240" viewBox="0 0 320 240" fill="none" xmlns="http://www.w3.org/2000/svg">
<path opacity="0.3" d="M231.04 170.932H214.935C214.899 171.801 214.528 172.623 213.901 173.225C213.273 173.828 212.437 174.165 211.567 174.167H106.433C105.563 174.165 104.727 173.828 104.099 173.225C103.472 172.623 103.101 171.801 103.065 170.932H86.9603C86.1752 170.932 85.4222 171.244 84.867 171.799C84.3119 172.354 84 173.107 84 173.892C84 174.677 84.3119 175.43 84.867 175.985C85.4222 176.54 86.1752 176.852 86.9603 176.852H231.04C231.825 176.852 232.578 176.54 233.133 175.985C233.688 175.43 234 174.677 234 173.892C234 173.107 233.688 172.354 233.133 171.799C232.578 171.244 231.825 170.932 231.04 170.932Z" fill="#B9C8D1"/>
<path d="M211.567 174.167H106.433C105.535 174.167 104.673 173.81 104.039 173.175C103.404 172.54 103.047 171.679 103.047 170.781V34.3857C103.049 33.4885 103.407 32.6287 104.041 31.9942C104.676 31.3598 105.535 31.0023 106.433 31H180.041C180.265 31.0008 180.48 31.0863 180.644 31.2393L214.669 62.6592C214.759 62.7418 214.83 62.8419 214.878 62.9532C214.927 63.0645 214.953 63.1847 214.953 63.3062V170.781C214.953 171.679 214.596 172.54 213.961 173.175C213.326 173.81 212.465 174.167 211.567 174.167V174.167ZM106.433 32.7726C106.005 32.7726 105.594 32.9426 105.292 33.2451C104.989 33.5476 104.82 33.9579 104.82 34.3857V170.781C104.818 170.993 104.859 171.203 104.94 171.399C105.021 171.596 105.139 171.774 105.289 171.924C105.439 172.074 105.618 172.193 105.814 172.273C106.01 172.354 106.22 172.395 106.433 172.394H211.567C211.779 172.395 211.99 172.354 212.186 172.273C212.382 172.193 212.561 172.074 212.711 171.924C212.861 171.774 212.979 171.596 213.06 171.399C213.141 171.203 213.182 170.993 213.18 170.781V63.6962L179.695 32.7726H106.433Z" fill="#B9C8D1"/>
<path d="M214.067 64.1941H184.145C182.734 64.1941 181.382 63.6339 180.384 62.6366C179.387 61.6393 178.827 60.2866 178.827 58.8762V39.4039C178.827 39.1688 178.92 38.9434 179.086 38.7772C179.252 38.611 179.478 38.5176 179.713 38.5176C179.948 38.5176 180.173 38.611 180.34 38.7772C180.506 38.9434 180.599 39.1688 180.599 39.4039V58.9028C180.599 59.8431 180.973 60.7448 181.638 61.4097C182.303 62.0746 183.204 62.4481 184.145 62.4481H214.067C214.302 62.4481 214.527 62.5415 214.693 62.7077C214.859 62.8739 214.953 63.0993 214.953 63.3344C214.953 63.5695 214.859 63.7949 214.693 63.9611C214.527 64.1273 214.302 64.2207 214.067 64.2207V64.1941Z" fill="#B9C8D1"/>
<path d="M161.411 146.257H156.926C156.807 146.257 156.689 146.232 156.579 146.185C156.469 146.138 156.37 146.069 156.288 145.982C156.206 145.898 156.142 145.798 156.1 145.688C156.057 145.579 156.037 145.462 156.04 145.344L156.341 135.834C154.937 135.184 153.797 134.074 153.109 132.689C152.421 131.303 152.226 129.724 152.557 128.213C152.887 126.701 153.724 125.348 154.927 124.376C156.131 123.404 157.63 122.872 159.177 122.867V122.867C159.758 122.869 160.335 122.944 160.897 123.089C161.01 123.118 161.116 123.17 161.209 123.241C161.302 123.311 161.38 123.4 161.439 123.5C161.497 123.601 161.536 123.713 161.552 123.828C161.567 123.944 161.56 124.062 161.531 124.175C161.501 124.287 161.449 124.393 161.379 124.486C161.308 124.579 161.22 124.657 161.119 124.716C161.018 124.775 160.907 124.813 160.791 124.829C160.675 124.845 160.558 124.838 160.445 124.808C160.028 124.699 159.599 124.642 159.169 124.64C157.993 124.657 156.86 125.086 155.968 125.851C155.076 126.617 154.481 127.672 154.286 128.831C154.091 129.991 154.308 131.182 154.901 132.197C155.494 133.213 156.423 133.989 157.529 134.389C157.711 134.452 157.867 134.573 157.974 134.733C158.081 134.893 158.133 135.083 158.123 135.276L157.839 144.511H160.498L160.206 135.276C160.195 135.083 160.247 134.893 160.354 134.733C160.461 134.573 160.618 134.452 160.799 134.389C161.791 134.05 162.651 133.408 163.258 132.554C163.865 131.7 164.19 130.678 164.185 129.63C164.196 128.891 164.035 128.16 163.715 127.494C163.614 127.281 163.602 127.037 163.681 126.815C163.76 126.593 163.924 126.412 164.136 126.311C164.349 126.209 164.593 126.197 164.815 126.276C165.037 126.355 165.219 126.519 165.32 126.732C165.748 127.64 165.966 128.634 165.958 129.639C165.964 130.943 165.594 132.222 164.891 133.321C164.188 134.42 163.183 135.293 161.996 135.834L162.297 145.362C162.3 145.479 162.28 145.596 162.237 145.706C162.195 145.815 162.131 145.915 162.049 146C161.965 146.083 161.866 146.149 161.756 146.193C161.646 146.237 161.529 146.259 161.411 146.257V146.257Z" fill="#2CB1E5"/>
<path d="M145.953 113.464H144.181V99.2832C144.262 95.3506 145.902 91.6112 148.74 88.8878C151.578 86.1643 155.382 84.6799 159.315 84.761C163.247 84.8421 166.987 86.4821 169.71 89.3202C172.433 92.1584 173.918 95.9622 173.837 99.8948V108.093H172.064V99.9214C172.101 98.2069 171.799 96.502 171.177 94.904C170.555 93.3061 169.624 91.8463 168.438 90.608C166.042 88.1073 162.75 86.6608 159.288 86.5868C155.825 86.5127 152.475 87.8172 149.975 90.2132C147.474 92.6092 146.027 95.9005 145.953 99.363V113.464Z" fill="#2CB1E5"/>
<path d="M140.432 113.461H138.659V99.9176C138.485 97.1387 138.882 94.3535 139.826 91.734C140.77 89.1144 142.24 86.7159 144.146 84.6864C146.053 82.6569 148.354 81.0395 150.91 79.9339C153.465 78.8282 156.22 78.2578 159.005 78.2578C161.789 78.2578 164.544 78.8282 167.099 79.9339C169.655 81.0395 171.957 82.6569 173.863 84.6864C175.769 86.7159 177.24 89.1144 178.183 91.734C179.127 94.3535 179.524 97.1387 179.35 99.9176V113.212H177.577V99.9176C177.744 97.3763 177.387 94.8277 176.529 92.4298C175.671 90.0318 174.33 87.8354 172.589 85.9765C170.849 84.1177 168.745 82.6359 166.408 81.6229C164.071 80.6099 161.551 80.0872 159.005 80.0872C156.458 80.0872 153.938 80.6099 151.601 81.6229C149.265 82.6359 147.161 84.1177 145.42 85.9765C143.679 87.8354 142.338 90.0318 141.48 92.4298C140.622 94.8277 140.265 97.3763 140.432 99.9176V113.461Z" fill="#2CB1E5"/>
<path d="M172.117 151.105H145.882C142.009 151.103 138.295 149.563 135.557 146.824C132.818 144.086 131.278 140.372 131.276 136.499V112.949H186.724V136.499C186.721 140.372 185.182 144.086 182.443 146.824C179.704 149.563 175.99 151.103 172.117 151.105V151.105ZM133.049 114.766V136.543C133.065 139.938 134.424 143.188 136.828 145.584C139.233 147.98 142.488 149.328 145.882 149.332H172.117C175.52 149.328 178.781 147.974 181.187 145.568C183.593 143.163 184.946 139.901 184.951 136.499V114.722L133.049 114.766Z" fill="#2CB1E5"/>
<g opacity="0.25">
<path d="M162.253 113.836H132.162V136.499C132.164 138.589 132.646 140.652 133.572 142.526L162.253 113.836Z" fill="#2CB1E5"/>
</g>
<path d="M138.596 213.37C138.368 213.082 138.056 212.872 137.66 212.74C137.276 212.596 136.91 212.524 136.562 212.524C136.358 212.524 136.148 212.548 135.932 212.596C135.716 212.644 135.512 212.722 135.32 212.83C135.128 212.926 134.972 213.058 134.852 213.226C134.732 213.394 134.672 213.598 134.672 213.838C134.672 214.222 134.816 214.516 135.104 214.72C135.392 214.924 135.752 215.098 136.184 215.242C136.628 215.386 137.102 215.53 137.606 215.674C138.11 215.818 138.578 216.022 139.01 216.286C139.454 216.55 139.82 216.904 140.108 217.348C140.396 217.792 140.54 218.386 140.54 219.13C140.54 219.838 140.408 220.456 140.144 220.984C139.88 221.512 139.52 221.95 139.064 222.298C138.62 222.646 138.098 222.904 137.498 223.072C136.91 223.24 136.286 223.324 135.626 223.324C134.798 223.324 134.03 223.198 133.322 222.946C132.614 222.694 131.954 222.286 131.342 221.722L133.34 219.526C133.628 219.91 133.988 220.21 134.42 220.426C134.864 220.63 135.32 220.732 135.788 220.732C136.016 220.732 136.244 220.708 136.472 220.66C136.712 220.6 136.922 220.516 137.102 220.408C137.294 220.3 137.444 220.162 137.552 219.994C137.672 219.826 137.732 219.628 137.732 219.4C137.732 219.016 137.582 218.716 137.282 218.5C136.994 218.272 136.628 218.08 136.184 217.924C135.74 217.768 135.26 217.612 134.744 217.456C134.228 217.3 133.748 217.09 133.304 216.826C132.86 216.562 132.488 216.214 132.188 215.782C131.9 215.35 131.756 214.78 131.756 214.072C131.756 213.388 131.888 212.788 132.152 212.272C132.428 211.756 132.788 211.324 133.232 210.976C133.688 210.628 134.21 210.37 134.798 210.202C135.386 210.022 135.992 209.932 136.616 209.932C137.336 209.932 138.032 210.034 138.704 210.238C139.376 210.442 139.982 210.784 140.522 211.264L138.596 213.37Z" fill="#565656"/>
<path d="M150.57 221.488C150.138 222.04 149.592 222.466 148.932 222.766C148.272 223.066 147.588 223.216 146.88 223.216C146.208 223.216 145.572 223.108 144.972 222.892C144.384 222.676 143.868 222.37 143.424 221.974C142.992 221.566 142.65 221.08 142.398 220.516C142.146 219.952 142.02 219.322 142.02 218.626C142.02 217.93 142.146 217.3 142.398 216.736C142.65 216.172 142.992 215.692 143.424 215.296C143.868 214.888 144.384 214.576 144.972 214.36C145.572 214.144 146.208 214.036 146.88 214.036C147.504 214.036 148.068 214.144 148.572 214.36C149.088 214.576 149.52 214.888 149.868 215.296C150.228 215.692 150.504 216.172 150.696 216.736C150.888 217.3 150.984 217.93 150.984 218.626V219.472H144.72C144.828 219.988 145.062 220.402 145.422 220.714C145.782 221.014 146.226 221.164 146.754 221.164C147.198 221.164 147.57 221.068 147.87 220.876C148.182 220.672 148.452 220.414 148.68 220.102L150.57 221.488ZM148.284 217.636C148.296 217.18 148.146 216.79 147.834 216.466C147.522 216.142 147.12 215.98 146.628 215.98C146.328 215.98 146.064 216.028 145.836 216.124C145.608 216.22 145.41 216.346 145.242 216.502C145.086 216.646 144.96 216.82 144.864 217.024C144.78 217.216 144.732 217.42 144.72 217.636H148.284Z" fill="#565656"/>
<path d="M158.548 217.078C158.416 216.886 158.23 216.73 157.99 216.61C157.75 216.478 157.492 216.412 157.216 216.412C156.532 216.412 155.998 216.616 155.614 217.024C155.242 217.432 155.056 217.966 155.056 218.626C155.056 219.286 155.242 219.82 155.614 220.228C155.998 220.636 156.532 220.84 157.216 220.84C157.516 220.84 157.774 220.774 157.99 220.642C158.206 220.51 158.392 220.354 158.548 220.174L160.33 222.046C159.91 222.478 159.412 222.784 158.836 222.964C158.272 223.132 157.732 223.216 157.216 223.216C156.544 223.216 155.908 223.108 155.308 222.892C154.72 222.676 154.204 222.37 153.76 221.974C153.328 221.566 152.986 221.08 152.734 220.516C152.482 219.952 152.356 219.322 152.356 218.626C152.356 217.93 152.482 217.3 152.734 216.736C152.986 216.172 153.328 215.692 153.76 215.296C154.204 214.888 154.72 214.576 155.308 214.36C155.908 214.144 156.544 214.036 157.216 214.036C157.732 214.036 158.272 214.126 158.836 214.306C159.412 214.474 159.91 214.774 160.33 215.206L158.548 217.078Z" fill="#565656"/>
<path d="M169.734 223H167.142V221.812H167.106C167.01 221.98 166.884 222.148 166.728 222.316C166.584 222.484 166.404 222.634 166.188 222.766C165.972 222.898 165.726 223.006 165.45 223.09C165.174 223.174 164.874 223.216 164.55 223.216C163.866 223.216 163.308 223.114 162.876 222.91C162.456 222.694 162.126 222.4 161.886 222.028C161.658 221.656 161.502 221.218 161.418 220.714C161.346 220.21 161.31 219.664 161.31 219.076V214.252H164.01V218.536C164.01 218.788 164.016 219.052 164.028 219.328C164.052 219.592 164.106 219.838 164.19 220.066C164.286 220.294 164.424 220.48 164.604 220.624C164.796 220.768 165.066 220.84 165.414 220.84C165.762 220.84 166.044 220.78 166.26 220.66C166.476 220.528 166.638 220.36 166.746 220.156C166.866 219.94 166.944 219.7 166.98 219.436C167.016 219.172 167.034 218.896 167.034 218.608V214.252H169.734V223Z" fill="#565656"/>
<path d="M171.645 214.252H174.345V215.656H174.381C174.669 215.116 175.011 214.714 175.407 214.45C175.803 214.174 176.301 214.036 176.901 214.036C177.057 214.036 177.213 214.042 177.369 214.054C177.525 214.066 177.669 214.09 177.801 214.126V216.592C177.609 216.532 177.417 216.49 177.225 216.466C177.045 216.43 176.853 216.412 176.649 216.412C176.133 216.412 175.725 216.484 175.425 216.628C175.125 216.772 174.891 216.976 174.723 217.24C174.567 217.492 174.465 217.798 174.417 218.158C174.369 218.518 174.345 218.914 174.345 219.346V223H171.645V214.252Z" fill="#565656"/>
<path d="M186.939 221.488C186.507 222.04 185.961 222.466 185.301 222.766C184.641 223.066 183.957 223.216 183.249 223.216C182.577 223.216 181.941 223.108 181.341 222.892C180.753 222.676 180.237 222.37 179.793 221.974C179.361 221.566 179.019 221.08 178.767 220.516C178.515 219.952 178.389 219.322 178.389 218.626C178.389 217.93 178.515 217.3 178.767 216.736C179.019 216.172 179.361 215.692 179.793 215.296C180.237 214.888 180.753 214.576 181.341 214.36C181.941 214.144 182.577 214.036 183.249 214.036C183.873 214.036 184.437 214.144 184.941 214.36C185.457 214.576 185.889 214.888 186.237 215.296C186.597 215.692 186.873 216.172 187.065 216.736C187.257 217.3 187.353 217.93 187.353 218.626V219.472H181.089C181.197 219.988 181.431 220.402 181.791 220.714C182.151 221.014 182.595 221.164 183.123 221.164C183.567 221.164 183.939 221.068 184.239 220.876C184.551 220.672 184.821 220.414 185.049 220.102L186.939 221.488ZM184.653 217.636C184.665 217.18 184.515 216.79 184.203 216.466C183.891 216.142 183.489 215.98 182.997 215.98C182.697 215.98 182.433 216.028 182.205 216.124C181.977 216.22 181.779 216.346 181.611 216.502C181.455 216.646 181.329 216.82 181.233 217.024C181.149 217.216 181.101 217.42 181.089 217.636H184.653Z" fill="#565656"/>
</svg>
