<svg width="320" height="240" viewBox="0 0 320 240" fill="none" xmlns="http://www.w3.org/2000/svg">
<path d="M187.162 167.306C213.582 167.306 235 145.888 235 119.467C235 93.047 213.582 71.6289 187.162 71.6289C160.741 71.6289 139.323 93.047 139.323 119.467C139.323 145.888 160.741 167.306 187.162 167.306Z" fill="#E6F3FA"/>
<path d="M106.666 85.8279C117.765 85.8279 126.762 76.8304 126.762 65.7313C126.762 54.6323 117.765 45.6348 106.666 45.6348C95.5666 45.6348 86.5691 54.6323 86.5691 65.7313C86.5691 76.8304 95.5666 85.8279 106.666 85.8279Z" fill="#E6F3FA"/>
<path d="M106.666 134.325L96.2902 135.417C92.5767 135.854 89.3001 133.124 88.8632 129.41L86.0235 102.105C85.5866 98.3916 88.3171 95.115 92.0306 94.6781L102.407 93.5859L106.666 134.325Z" fill="white"/>
<path d="M95.6347 136.51C93.8872 136.51 92.1396 135.855 90.7198 134.762C89.0815 133.452 88.0985 131.595 87.88 129.52L85.0403 102.215C84.6034 97.9552 87.7708 94.0232 92.0304 93.5863L102.406 92.4941C103.062 92.4941 103.499 92.8218 103.608 93.4771L107.867 134.216C107.867 134.544 107.758 134.762 107.649 134.981C107.54 135.199 107.212 135.309 106.884 135.418L96.5084 136.51C96.1808 136.51 95.8531 136.51 95.6347 136.51ZM101.533 94.7878L92.2488 95.7708C89.1907 96.0984 86.897 98.9381 87.2247 101.996L90.0644 129.301C90.1737 130.831 90.9382 132.141 92.1396 133.124C93.3411 134.107 94.7609 134.544 96.29 134.326L105.574 133.343L101.533 94.7878Z" fill="#B9C8D1"/>
<path d="M101.205 135.958C100.659 135.958 100.222 135.521 100.112 134.975L95.962 95.219C95.8528 94.6729 96.2897 94.1268 96.945 94.0176C97.6003 94.0176 98.0372 94.3452 98.1464 95.0006L102.297 134.757C102.406 135.303 101.969 135.849 101.314 135.958H101.205Z" fill="#B9C8D1"/>
<path d="M188.69 134.325L199.066 135.417C202.78 135.854 206.056 133.124 206.493 129.41L209.333 102.105C209.77 98.3916 207.039 95.115 203.326 94.6781L192.95 93.5859L188.69 134.325Z" fill="white"/>
<path d="M199.831 136.51C199.503 136.51 199.285 136.51 198.957 136.51L188.581 135.418C188.253 135.418 188.035 135.199 187.817 134.981C187.598 134.762 187.598 134.435 187.598 134.216L191.858 93.4771C191.967 92.931 192.404 92.4941 193.059 92.4941L203.435 93.5863C205.51 93.8048 207.367 94.7878 208.678 96.4261C209.988 98.0644 210.644 100.14 210.425 102.215L207.585 129.52C207.367 131.595 206.384 133.452 204.746 134.762C203.326 135.855 201.578 136.51 199.831 136.51ZM189.892 133.343L199.176 134.326C200.705 134.435 202.124 133.998 203.326 133.124C204.527 132.141 205.292 130.831 205.401 129.301L208.241 101.996C208.35 100.467 207.913 99.0474 207.039 97.8459C206.056 96.6445 204.746 95.9892 203.217 95.7708L193.933 94.7878L189.892 133.343Z" fill="#B9C8D1"/>
<g opacity="0.4">
<path d="M106.666 134.319L96.2897 135.411C92.5762 135.848 89.2996 133.118 88.8627 129.404L86.023 107.56C85.5861 103.847 88.3166 100.57 92.0301 100.133L102.406 99.041L106.666 134.319Z" fill="#B9C8D1"/>
</g>
<g opacity="0.4">
<path d="M188.691 134.319L199.067 135.411C202.78 135.848 206.057 133.118 206.494 129.404L209.333 107.56C209.77 103.847 207.04 100.57 203.326 100.133L192.95 99.041L188.691 134.319Z" fill="#B9C8D1"/>
</g>
<path d="M156.471 158.025C155.815 158.025 155.378 157.588 155.378 156.932C155.378 156.277 155.815 155.84 156.471 155.84C174.164 155.84 193.169 150.27 193.169 134.761V134.651L197.319 94.8951C197.428 94.349 197.865 93.9121 198.521 93.9121C199.067 94.0213 199.504 94.4582 199.504 95.1135L195.353 134.761C195.244 152.017 175.257 158.025 156.471 158.025Z" fill="#B9C8D1"/>
<path d="M196.664 95.003C196.008 95.003 195.571 94.5661 195.571 93.9107V86.3745C195.571 60.0524 174.164 38.6452 147.842 38.6452C121.52 38.6452 100.004 60.0524 100.004 86.3745V93.9107C100.004 94.5661 99.5666 95.003 98.9113 95.003C98.256 95.003 97.8191 94.5661 97.8191 93.9107V86.3745C97.8191 58.851 120.209 36.3516 147.733 36.3516C175.256 36.3516 197.647 58.7418 197.647 86.2653V93.8015C197.756 94.5661 197.21 95.003 196.664 95.003Z" fill="#B9C8D1"/>
<path d="M202.124 95.5493H202.015C201.469 95.4401 201.032 95.0032 201.032 94.3479C201.032 94.3479 201.032 94.2387 201.032 94.1294V86.2656C201.032 56.8853 177.113 33.0752 147.842 33.0752C118.571 33.0752 94.5423 56.9945 94.5423 86.3748V94.2387C94.5423 94.894 94.1054 95.3309 93.4501 95.3309C92.7948 95.3309 92.3579 94.894 92.3579 94.2387V86.3748C92.3579 55.793 117.26 31 147.733 31C178.205 31 203.107 55.9023 203.107 86.3748V94.2387C203.107 94.3479 203.107 94.4571 203.107 94.6755C203.107 95.1124 202.671 95.5493 202.124 95.5493Z" fill="#B9C8D1"/>
<path d="M172.089 88.3418H125.343C121.083 88.3418 117.588 91.8369 117.588 96.0964V116.63C117.588 120.89 121.083 124.385 125.343 124.385H155.16L162.915 134.324L170.669 124.385H172.089C176.349 124.385 179.844 120.89 179.844 116.63V96.0964C179.844 91.8369 176.458 88.3418 172.089 88.3418Z" fill="white"/>
<path d="M162.915 135.525C162.587 135.525 162.259 135.416 162.041 135.089L154.614 125.477H125.343C120.428 125.477 116.496 121.545 116.496 116.63V96.0969C116.496 91.1819 120.428 87.25 125.343 87.25H172.089C177.004 87.25 180.936 91.1819 180.936 96.0969V116.63C180.936 121.545 177.004 125.477 172.089 125.477H171.216L163.789 135.089C163.57 135.307 163.242 135.525 162.915 135.525ZM125.343 89.4344C121.629 89.4344 118.681 92.3834 118.681 96.0969V116.63C118.681 120.344 121.629 123.293 125.343 123.293H155.16C155.488 123.293 155.815 123.402 156.034 123.73L162.915 132.576L169.796 123.73C170.014 123.511 170.342 123.293 170.669 123.293H172.089C175.803 123.293 178.752 120.344 178.752 116.63V96.0969C178.752 92.3834 175.803 89.4344 172.089 89.4344H125.343Z" fill="#B9C8D1"/>
<path d="M136.92 110.407C138.247 110.407 139.323 109.331 139.323 108.004C139.323 106.677 138.247 105.602 136.92 105.602C135.593 105.602 134.518 106.677 134.518 108.004C134.518 109.331 135.593 110.407 136.92 110.407Z" fill="#B9C8D1"/>
<path d="M148.716 110.407C150.043 110.407 151.119 109.331 151.119 108.004C151.119 106.677 150.043 105.602 148.716 105.602C147.389 105.602 146.313 106.677 146.313 108.004C146.313 109.331 147.389 110.407 148.716 110.407Z" fill="#B9C8D1"/>
<path d="M160.512 110.407C161.839 110.407 162.915 109.331 162.915 108.004C162.915 106.677 161.839 105.602 160.512 105.602C159.185 105.602 158.109 106.677 158.109 108.004C158.109 109.331 159.185 110.407 160.512 110.407Z" fill="#B9C8D1"/>
<path d="M151.446 163.045H136.702C133.316 163.045 130.585 160.315 130.585 156.929C130.585 153.543 133.316 150.812 136.702 150.812H151.446C154.832 150.812 157.563 153.543 157.563 156.929C157.563 160.315 154.832 163.045 151.446 163.045ZM136.702 152.997C134.517 152.997 132.77 154.744 132.77 156.929C132.77 159.113 134.517 160.861 136.702 160.861H151.446C153.631 160.861 155.378 159.113 155.378 156.929C155.378 154.744 153.631 152.997 151.446 152.997H136.702Z" fill="#B9C8D1"/>
<path d="M144.129 163.045C143.473 163.045 143.036 162.608 143.036 161.953V151.905C143.036 151.249 143.473 150.812 144.129 150.812C144.784 150.812 145.221 151.249 145.221 151.905V161.953C145.221 162.608 144.675 163.045 144.129 163.045Z" fill="#B9C8D1"/>
<g opacity="0.4">
<path d="M139.869 162.502H152.211C153.631 162.502 154.833 161.301 154.833 159.881V157.151C154.833 155.731 153.631 154.529 152.211 154.529H139.869C137.685 154.529 135.938 156.277 135.938 158.461C135.938 160.755 137.685 162.502 139.869 162.502Z" fill="#B9C8D1"/>
</g>
<path d="M126.26 210.256H129.068V223H126.26V210.256Z" fill="#565656"/>
<path d="M131.28 214.252H133.872V215.44H133.908C133.992 215.272 134.112 215.104 134.268 214.936C134.424 214.768 134.61 214.618 134.826 214.486C135.042 214.354 135.288 214.246 135.564 214.162C135.84 214.078 136.14 214.036 136.464 214.036C137.148 214.036 137.7 214.144 138.12 214.36C138.54 214.564 138.864 214.852 139.092 215.224C139.332 215.596 139.494 216.034 139.578 216.538C139.662 217.042 139.704 217.588 139.704 218.176V223H137.004V218.716C137.004 218.464 136.992 218.206 136.968 217.942C136.956 217.666 136.902 217.414 136.806 217.186C136.722 216.958 136.584 216.772 136.392 216.628C136.212 216.484 135.948 216.412 135.6 216.412C135.252 216.412 134.97 216.478 134.754 216.61C134.538 216.73 134.37 216.898 134.25 217.114C134.142 217.318 134.07 217.552 134.034 217.816C133.998 218.08 133.98 218.356 133.98 218.644V223H131.28V214.252Z" fill="#565656"/>
<path d="M147.574 216.412H145.198V219.328C145.198 219.568 145.21 219.79 145.234 219.994C145.258 220.186 145.312 220.354 145.396 220.498C145.48 220.642 145.606 220.756 145.774 220.84C145.954 220.912 146.188 220.948 146.476 220.948C146.62 220.948 146.806 220.936 147.034 220.912C147.274 220.876 147.454 220.804 147.574 220.696V222.946C147.274 223.054 146.962 223.126 146.638 223.162C146.314 223.198 145.996 223.216 145.684 223.216C145.228 223.216 144.808 223.168 144.424 223.072C144.04 222.976 143.704 222.826 143.416 222.622C143.128 222.406 142.9 222.13 142.732 221.794C142.576 221.458 142.498 221.05 142.498 220.57V216.412H140.77V214.252H142.498V211.66H145.198V214.252H147.574V216.412Z" fill="#565656"/>
<path d="M157.37 223H154.778V221.812H154.742C154.646 221.98 154.52 222.148 154.364 222.316C154.22 222.484 154.04 222.634 153.824 222.766C153.608 222.898 153.362 223.006 153.086 223.09C152.81 223.174 152.51 223.216 152.186 223.216C151.502 223.216 150.944 223.114 150.512 222.91C150.092 222.694 149.762 222.4 149.522 222.028C149.294 221.656 149.138 221.218 149.054 220.714C148.982 220.21 148.946 219.664 148.946 219.076V214.252H151.646V218.536C151.646 218.788 151.652 219.052 151.664 219.328C151.688 219.592 151.742 219.838 151.826 220.066C151.922 220.294 152.06 220.48 152.24 220.624C152.432 220.768 152.702 220.84 153.05 220.84C153.398 220.84 153.68 220.78 153.896 220.66C154.112 220.528 154.274 220.36 154.382 220.156C154.502 219.94 154.58 219.7 154.616 219.436C154.652 219.172 154.67 218.896 154.67 218.608V214.252H157.37V223Z" fill="#565656"/>
<path d="M159.318 214.252H162.018V223H159.318V214.252ZM159.102 211.498C159.102 211.066 159.252 210.7 159.552 210.4C159.864 210.088 160.236 209.932 160.668 209.932C161.1 209.932 161.466 210.088 161.766 210.4C162.078 210.7 162.234 211.066 162.234 211.498C162.234 211.93 162.078 212.302 161.766 212.614C161.466 212.914 161.1 213.064 160.668 213.064C160.236 213.064 159.864 212.914 159.552 212.614C159.252 212.302 159.102 211.93 159.102 211.498Z" fill="#565656"/>
<path d="M169.916 216.412H167.54V219.328C167.54 219.568 167.552 219.79 167.576 219.994C167.6 220.186 167.654 220.354 167.738 220.498C167.822 220.642 167.948 220.756 168.116 220.84C168.296 220.912 168.53 220.948 168.818 220.948C168.962 220.948 169.148 220.936 169.376 220.912C169.616 220.876 169.796 220.804 169.916 220.696V222.946C169.616 223.054 169.304 223.126 168.98 223.162C168.656 223.198 168.338 223.216 168.026 223.216C167.57 223.216 167.15 223.168 166.766 223.072C166.382 222.976 166.046 222.826 165.758 222.622C165.47 222.406 165.242 222.13 165.074 221.794C164.918 221.458 164.84 221.05 164.84 220.57V216.412H163.112V214.252H164.84V211.66H167.54V214.252H169.916V216.412Z" fill="#565656"/>
<path d="M171.324 214.252H174.024V223H171.324V214.252ZM171.108 211.498C171.108 211.066 171.258 210.7 171.558 210.4C171.87 210.088 172.242 209.932 172.674 209.932C173.106 209.932 173.472 210.088 173.772 210.4C174.084 210.7 174.24 211.066 174.24 211.498C174.24 211.93 174.084 212.302 173.772 212.614C173.472 212.914 173.106 213.064 172.674 213.064C172.242 213.064 171.87 212.914 171.558 212.614C171.258 212.302 171.108 211.93 171.108 211.498Z" fill="#565656"/>
<path d="M175.046 214.252H177.962L180.176 220.192H180.212L182.264 214.252H184.982L181.526 223H178.664L175.046 214.252Z" fill="#565656"/>
<path d="M194.246 221.488C193.814 222.04 193.268 222.466 192.608 222.766C191.948 223.066 191.264 223.216 190.556 223.216C189.884 223.216 189.248 223.108 188.648 222.892C188.06 222.676 187.544 222.37 187.1 221.974C186.668 221.566 186.326 221.08 186.074 220.516C185.822 219.952 185.696 219.322 185.696 218.626C185.696 217.93 185.822 217.3 186.074 216.736C186.326 216.172 186.668 215.692 187.1 215.296C187.544 214.888 188.06 214.576 188.648 214.36C189.248 214.144 189.884 214.036 190.556 214.036C191.18 214.036 191.744 214.144 192.248 214.36C192.764 214.576 193.196 214.888 193.544 215.296C193.904 215.692 194.18 216.172 194.372 216.736C194.564 217.3 194.66 217.93 194.66 218.626V219.472H188.396C188.504 219.988 188.738 220.402 189.098 220.714C189.458 221.014 189.902 221.164 190.43 221.164C190.874 221.164 191.246 221.068 191.546 220.876C191.858 220.672 192.128 220.414 192.356 220.102L194.246 221.488ZM191.96 217.636C191.972 217.18 191.822 216.79 191.51 216.466C191.198 216.142 190.796 215.98 190.304 215.98C190.004 215.98 189.74 216.028 189.512 216.124C189.284 216.22 189.086 216.346 188.918 216.502C188.762 216.646 188.636 216.82 188.54 217.024C188.456 217.216 188.408 217.42 188.396 217.636H191.96Z" fill="#565656"/>
</svg>
