<svg width="1400" height="800" viewBox="0 0 1400 800" fill="none" xmlns="http://www.w3.org/2000/svg">
<path d="M683.837 368.713C717.981 377.869 751.233 398.144 778.719 419.844C792.139 430.439 811.999 444.828 814.401 463.509C817.595 488.358 782.603 495.655 764.76 498.224C728.846 503.395 689.51 499.785 655.168 487.917C640.847 482.967 627.888 474.923 620.71 461.217C612.116 444.808 607.276 418.97 618.089 402.501C634.33 377.764 670.45 372.052 697.536 372.889C722.298 373.653 749.997 378.934 756.181 406.336C761.742 430.974 751.75 459.479 734.86 477.567C721.488 491.887 699.225 511.215 678.401 499.426C664.828 491.742 656.657 474.996 652.495 460.603C649.664 450.817 648.056 440.461 647.367 430.308C646.122 411.972 645.458 393.036 647.396 374.732C648.978 359.785 651.645 345.077 656.315 330.771C658.181 325.053 662.132 315.146 669.311 314.251C678.605 313.092 687.557 321.31 693.784 326.935C713.375 344.634 728.882 368.826 742.878 390.997C761.322 420.215 777.782 452.913 775.077 488.479C774.649 494.114 772.969 494.796 767.395 495.894C748.287 499.662 727.79 498.648 708.454 498.09C689.665 497.547 670.614 496.945 651.943 494.612C643.129 493.511 634.403 491.321 626.699 486.715C618.478 481.802 603.618 470.719 607.63 459.176C609.984 452.406 615.825 447.206 621.235 442.909C634.876 432.075 650.43 423.121 665.39 414.266C679.752 405.764 694.42 397.764 709.012 389.669C722.146 382.383 734.996 374.415 749.096 369.108C763.319 363.754 792.053 358.164 803.026 372.802C808.19 379.689 810.49 391.386 809.167 399.81C806.317 417.962 789.544 431.427 775.115 440.527C753.826 453.954 730.13 462.9 706.317 470.766C688.235 476.739 670 482.321 651.093 484.875C641.929 486.113 632.615 486.37 623.385 485.885C615.828 485.487 606.944 485.726 599.63 483.399C595.632 482.127 595.107 476.709 594.303 473.308C589.33 452.275 589.79 429.328 592.451 408.01C594.25 393.603 596.02 377.496 602.747 364.358C608.899 352.344 619.927 359.129 628.8 364.279C650.286 376.75 666.187 394.188 681.925 413.221C691.579 424.895 700.694 436.916 709.143 449.489C717.378 461.742 726.066 474.27 731.87 487.916C736.556 498.934 738.494 509.941 739.68 521.663C739.923 524.065 740.654 525.662 737.551 524.121C721.698 516.245 707.749 503.693 695.177 491.449C682.571 479.172 671.428 463.966 682.218 447.145C695.3 426.749 720.721 416.855 740.237 403.913C745.16 400.648 748.687 396.48 753.324 393.17" stroke="#5A5A5A" stroke-width="7" stroke-linecap="round" stroke-linejoin="round"/>
<path d="M620.573 281.248V278.512H608.165V295H620.573V292.264H611.165V287.968H619.685V285.232H611.165V281.248H620.573ZM628.502 295H631.262L636.518 282.592H633.398L629.87 291.616L626.27 282.592H623.174L628.502 295ZM644.54 292.696C642.764 292.696 641.468 291.496 641.108 289.792H650.468C650.468 285.208 648.236 282.304 644.396 282.304C640.868 282.304 638.084 285.04 638.084 288.76C638.084 292.576 641.012 295.288 644.564 295.288C646.364 295.288 648.524 294.52 649.604 293.368L647.756 291.448C647.06 292.168 645.692 292.696 644.54 292.696ZM644.516 284.896C646.268 284.896 647.324 286 647.66 287.56H641.132C641.564 285.928 642.884 284.896 644.516 284.896ZM660.774 282.304C659.142 282.304 657.702 283.096 656.934 284.248V282.592H654.006V295H656.934V287.152C657.126 285.832 658.398 284.8 659.934 284.8C661.47 284.8 662.55 286 662.55 287.68V295H665.382V287.104C665.382 284.296 663.486 282.304 660.774 282.304ZM675.753 292.336C675.489 292.6 675.033 292.792 674.529 292.792C673.833 292.792 673.305 292.192 673.305 291.352V285.016H676.113V282.592H673.305V279.184H670.449V282.592H668.649V285.016H670.449V291.712C670.449 293.8 671.889 295.288 673.953 295.288C674.889 295.288 675.897 294.904 676.593 294.304L675.753 292.336ZM684.45 295.288C687.354 295.288 689.322 293.752 689.322 291.376C689.322 288.784 687.066 288.064 684.978 287.488C683.082 286.936 682.434 286.696 682.434 285.904C682.434 285.208 683.226 284.8 684.258 284.8C685.338 284.8 686.61 285.184 687.786 285.928L689.01 283.792C687.666 282.904 685.962 282.304 684.258 282.304C681.498 282.304 679.578 283.888 679.578 286.216C679.602 288.424 681.306 289.192 683.994 289.888C685.41 290.272 686.49 290.584 686.49 291.544C686.49 292.312 685.674 292.816 684.498 292.816C682.938 292.816 681.546 292.24 680.346 291.376L679.026 293.416C680.514 294.616 682.554 295.288 684.45 295.288ZM706.855 292.336C706.591 292.6 706.135 292.792 705.631 292.792C704.935 292.792 704.407 292.192 704.407 291.352V285.016H707.215V282.592H704.407V279.184H701.551V282.592H699.751V285.016H701.551V291.712C701.551 293.8 702.991 295.288 705.055 295.288C705.991 295.288 706.999 294.904 707.695 294.304L706.855 292.336ZM716.751 292.696C714.975 292.696 713.679 291.496 713.319 289.792H722.679C722.679 285.208 720.447 282.304 716.607 282.304C713.079 282.304 710.295 285.04 710.295 288.76C710.295 292.576 713.223 295.288 716.775 295.288C718.575 295.288 720.735 294.52 721.815 293.368L719.967 291.448C719.271 292.168 717.903 292.696 716.751 292.696ZM716.727 284.896C718.479 284.896 719.535 286 719.871 287.56H713.343C713.775 285.928 715.095 284.896 716.727 284.896ZM731.617 282.304C730.057 282.304 728.425 282.736 726.673 283.6L727.681 285.64C728.737 285.112 729.865 284.704 731.041 284.704C733.297 284.704 734.089 286.096 734.089 287.536V287.872C732.961 287.44 731.737 287.2 730.609 287.2C727.825 287.2 725.545 288.88 725.545 291.328C725.545 293.728 727.537 295.288 730.177 295.288C731.617 295.288 733.177 294.664 734.089 293.512V295H736.945V287.536C736.945 284.392 734.905 282.304 731.617 282.304ZM730.825 293.152C729.433 293.152 728.401 292.408 728.401 291.232C728.401 290.056 729.577 289.24 731.041 289.24C732.145 289.24 733.177 289.408 734.089 289.72V291.112C733.753 292.432 732.241 293.152 730.825 293.152ZM755.444 282.304C753.596 282.304 752.036 283.216 751.436 284.656C750.668 283.192 749.228 282.304 747.476 282.304C745.916 282.304 744.644 283.072 744.02 284.272V282.592H741.092V295H744.02V287.392C744.02 285.88 745.148 284.8 746.732 284.8C748.172 284.8 749.156 285.952 749.156 287.584V295H752.012V287.392C752.012 285.88 753.116 284.8 754.724 284.8C756.14 284.8 757.124 285.952 757.124 287.584V295H759.98V287.104C759.98 284.296 758.036 282.304 755.444 282.304Z" fill="#434343"/>
<rect x="477.5" y="231.5" width="414" height="113" rx="2.5" stroke="#434343"/>
<path d="M333.756 506.288C336.18 506.288 338.388 505.256 339.972 503.6L337.86 501.632C336.828 502.808 335.364 503.552 333.756 503.552C330.708 503.552 328.14 500.912 328.14 497.744C328.14 494.6 330.708 491.96 333.756 491.96C335.34 491.96 336.828 492.704 337.836 493.88L339.972 491.888C338.388 490.256 336.18 489.224 333.756 489.224C329.052 489.224 325.092 493.112 325.092 497.744C325.092 502.376 329.052 506.288 333.756 506.288ZM348.59 493.304C347.03 493.304 345.398 493.736 343.646 494.6L344.654 496.64C345.71 496.112 346.838 495.704 348.014 495.704C350.27 495.704 351.062 497.096 351.062 498.536V498.872C349.934 498.44 348.71 498.2 347.582 498.2C344.798 498.2 342.518 499.88 342.518 502.328C342.518 504.728 344.51 506.288 347.15 506.288C348.59 506.288 350.15 505.664 351.062 504.512V506H353.918V498.536C353.918 495.392 351.878 493.304 348.59 493.304ZM347.798 504.152C346.406 504.152 345.374 503.408 345.374 502.232C345.374 501.056 346.55 500.24 348.014 500.24C349.118 500.24 350.15 500.408 351.062 500.72V502.112C350.726 503.432 349.214 504.152 347.798 504.152ZM365.408 493.304C363.56 493.304 362.072 494.144 361.088 495.56V493.592H358.16V510.128H361.088V504.032C362.072 505.448 363.56 506.288 365.408 506.288C368.696 506.288 371.096 503.6 371.096 499.784C371.096 495.992 368.696 493.304 365.408 493.304ZM364.616 503.792C362.552 503.792 361.112 502.112 361.112 499.784C361.112 497.456 362.552 495.8 364.616 495.8C366.704 495.8 368.192 497.456 368.192 499.784C368.192 502.112 366.704 503.792 364.616 503.792ZM380.145 493.304C378.585 493.304 376.953 493.736 375.201 494.6L376.209 496.64C377.265 496.112 378.393 495.704 379.569 495.704C381.825 495.704 382.617 497.096 382.617 498.536V498.872C381.489 498.44 380.265 498.2 379.137 498.2C376.353 498.2 374.073 499.88 374.073 502.328C374.073 504.728 376.065 506.288 378.705 506.288C380.145 506.288 381.705 505.664 382.617 504.512V506H385.473V498.536C385.473 495.392 383.433 493.304 380.145 493.304ZM379.353 504.152C377.961 504.152 376.929 503.408 376.929 502.232C376.929 501.056 378.105 500.24 379.569 500.24C380.673 500.24 381.705 500.408 382.617 500.72V502.112C382.281 503.432 380.769 504.152 379.353 504.152ZM395.619 506.288C397.587 506.288 399.243 505.472 400.443 504.2L398.475 502.496C397.779 503.288 396.723 503.792 395.643 503.792C393.603 503.792 391.899 501.968 391.899 499.784C391.899 497.624 393.603 495.8 395.643 495.8C396.699 495.8 397.731 496.304 398.403 497.048L400.371 495.32C399.195 494.096 397.539 493.304 395.667 493.304C392.043 493.304 388.995 496.256 388.995 499.784C388.995 503.312 392.043 506.288 395.619 506.288ZM405.233 491.72C406.145 491.72 406.889 490.928 406.889 490.04C406.889 489.152 406.145 488.384 405.233 488.384C404.297 488.384 403.553 489.152 403.553 490.04C403.553 490.928 404.297 491.72 405.233 491.72ZM403.745 506H406.673V493.592H403.745V506ZM417.101 503.336C416.837 503.6 416.381 503.792 415.877 503.792C415.181 503.792 414.653 503.192 414.653 502.352V496.016H417.461V493.592H414.653V490.184H411.797V493.592H409.997V496.016H411.797V502.712C411.797 504.8 413.237 506.288 415.301 506.288C416.237 506.288 417.245 505.904 417.941 505.304L417.101 503.336ZM423.733 510.32C425.605 510.296 427.045 509.216 427.981 506.864L433.237 493.592H430.213L426.805 502.856L423.181 493.592H420.085L425.341 506.096L424.813 507.2C424.453 507.8 423.925 508.016 423.229 508.016C422.773 508.016 422.173 507.848 421.645 507.56L421.021 509.672C421.765 510.08 422.797 510.32 423.733 510.32ZM458.706 493.304C456.858 493.304 455.298 494.216 454.698 495.656C453.93 494.192 452.49 493.304 450.738 493.304C449.178 493.304 447.906 494.072 447.282 495.272V493.592H444.354V506H447.282V498.392C447.282 496.88 448.41 495.8 449.994 495.8C451.434 495.8 452.418 496.952 452.418 498.584V506H455.274V498.392C455.274 496.88 456.378 495.8 457.986 495.8C459.402 495.8 460.386 496.952 460.386 498.584V506H463.242V498.104C463.242 495.296 461.298 493.304 458.706 493.304ZM472.809 493.304C471.249 493.304 469.617 493.736 467.865 494.6L468.873 496.64C469.929 496.112 471.057 495.704 472.233 495.704C474.489 495.704 475.281 497.096 475.281 498.536V498.872C474.153 498.44 472.929 498.2 471.801 498.2C469.017 498.2 466.737 499.88 466.737 502.328C466.737 504.728 468.729 506.288 471.369 506.288C472.809 506.288 474.369 505.664 475.281 504.512V506H478.137V498.536C478.137 495.392 476.097 493.304 472.809 493.304ZM472.017 504.152C470.625 504.152 469.593 503.408 469.593 502.232C469.593 501.056 470.769 500.24 472.233 500.24C473.337 500.24 474.369 500.408 475.281 500.72V502.112C474.945 503.432 473.433 504.152 472.017 504.152ZM489.075 493.304C487.443 493.304 486.003 494.096 485.235 495.248V493.592H482.307V506H485.235V498.152C485.427 496.832 486.699 495.8 488.235 495.8C489.771 495.8 490.851 497 490.851 498.68V506H493.683V498.104C493.683 495.296 491.787 493.304 489.075 493.304ZM503.262 493.304C501.702 493.304 500.07 493.736 498.318 494.6L499.326 496.64C500.382 496.112 501.51 495.704 502.686 495.704C504.942 495.704 505.734 497.096 505.734 498.536V498.872C504.606 498.44 503.382 498.2 502.254 498.2C499.47 498.2 497.19 499.88 497.19 502.328C497.19 504.728 499.182 506.288 501.822 506.288C503.262 506.288 504.822 505.664 505.734 504.512V506H508.59V498.536C508.59 495.392 506.55 493.304 503.262 493.304ZM502.47 504.152C501.078 504.152 500.046 503.408 500.046 502.232C500.046 501.056 501.222 500.24 502.686 500.24C503.79 500.24 504.822 500.408 505.734 500.72V502.112C505.398 503.432 503.886 504.152 502.47 504.152ZM522 493.592V495.44C521.112 494.12 519.504 493.304 517.752 493.304C514.536 493.304 512.16 495.728 512.16 499.184C512.16 502.64 514.536 505.088 517.752 505.088C519.528 505.088 521.016 504.296 522 502.976V504.584C522 506.456 520.464 507.632 518.016 507.632C516.552 507.632 515.064 507.128 514.2 506.336L513.12 508.472C514.344 509.432 516.312 510.128 518.448 510.128C522.24 510.128 524.928 507.872 524.928 504.68V493.592H522ZM518.592 502.592C516.624 502.592 515.208 501.176 515.208 499.184C515.208 497.216 516.624 495.8 518.592 495.8C520.584 495.8 522 497.216 522 499.184C522 501.176 520.584 502.592 518.592 502.592ZM534.99 503.696C533.214 503.696 531.918 502.496 531.558 500.792H540.918C540.918 496.208 538.686 493.304 534.846 493.304C531.318 493.304 528.534 496.04 528.534 499.76C528.534 503.576 531.462 506.288 535.014 506.288C536.814 506.288 538.974 505.52 540.054 504.368L538.206 502.448C537.51 503.168 536.142 503.696 534.99 503.696ZM534.966 495.896C536.718 495.896 537.774 497 538.11 498.56H531.582C532.014 496.928 533.334 495.896 534.966 495.896ZM558.784 493.304C556.936 493.304 555.376 494.216 554.776 495.656C554.008 494.192 552.568 493.304 550.816 493.304C549.256 493.304 547.984 494.072 547.36 495.272V493.592H544.432V506H547.36V498.392C547.36 496.88 548.488 495.8 550.072 495.8C551.512 495.8 552.496 496.952 552.496 498.584V506H555.352V498.392C555.352 496.88 556.456 495.8 558.064 495.8C559.48 495.8 560.464 496.952 560.464 498.584V506H563.32V498.104C563.32 495.296 561.376 493.304 558.784 493.304ZM573.271 503.696C571.495 503.696 570.199 502.496 569.839 500.792H579.199C579.199 496.208 576.967 493.304 573.127 493.304C569.599 493.304 566.815 496.04 566.815 499.76C566.815 503.576 569.743 506.288 573.295 506.288C575.095 506.288 577.255 505.52 578.335 504.368L576.487 502.448C575.791 503.168 574.423 503.696 573.271 503.696ZM573.247 495.896C574.999 495.896 576.055 497 576.391 498.56H569.863C570.295 496.928 571.615 495.896 573.247 495.896ZM589.505 493.304C587.873 493.304 586.433 494.096 585.665 495.248V493.592H582.737V506H585.665V498.152C585.857 496.832 587.129 495.8 588.665 495.8C590.201 495.8 591.281 497 591.281 498.68V506H594.113V498.104C594.113 495.296 592.217 493.304 589.505 493.304ZM604.484 503.336C604.22 503.6 603.764 503.792 603.26 503.792C602.564 503.792 602.036 503.192 602.036 502.352V496.016H604.844V493.592H602.036V490.184H599.18V493.592H597.38V496.016H599.18V502.712C599.18 504.8 600.62 506.288 602.684 506.288C603.62 506.288 604.628 505.904 605.324 505.304L604.484 503.336ZM441.558 527.336C441.294 527.6 440.838 527.792 440.334 527.792C439.638 527.792 439.11 527.192 439.11 526.352V520.016H441.918V517.592H439.11V514.184H436.254V517.592H434.454V520.016H436.254V526.712C436.254 528.8 437.694 530.288 439.758 530.288C440.694 530.288 441.702 529.904 442.398 529.304L441.558 527.336ZM451.455 527.696C449.679 527.696 448.383 526.496 448.023 524.792H457.383C457.383 520.208 455.151 517.304 451.311 517.304C447.783 517.304 444.999 520.04 444.999 523.76C444.999 527.576 447.927 530.288 451.479 530.288C453.279 530.288 455.439 529.52 456.519 528.368L454.671 526.448C453.975 527.168 452.607 527.696 451.455 527.696ZM451.431 519.896C453.183 519.896 454.239 521 454.575 522.56H448.047C448.479 520.928 449.799 519.896 451.431 519.896ZM466.321 517.304C464.761 517.304 463.129 517.736 461.377 518.6L462.385 520.64C463.441 520.112 464.569 519.704 465.745 519.704C468.001 519.704 468.793 521.096 468.793 522.536V522.872C467.665 522.44 466.441 522.2 465.312 522.2C462.529 522.2 460.249 523.88 460.249 526.328C460.249 528.728 462.241 530.288 464.881 530.288C466.321 530.288 467.881 529.664 468.793 528.512V530H471.648V522.536C471.648 519.392 469.609 517.304 466.321 517.304ZM465.529 528.152C464.137 528.152 463.105 527.408 463.105 526.232C463.105 525.056 464.281 524.24 465.745 524.24C466.849 524.24 467.881 524.408 468.793 524.72V526.112C468.457 527.432 466.945 528.152 465.529 528.152ZM490.147 517.304C488.299 517.304 486.739 518.216 486.139 519.656C485.371 518.192 483.931 517.304 482.179 517.304C480.619 517.304 479.347 518.072 478.723 519.272V517.592H475.795V530H478.723V522.392C478.723 520.88 479.851 519.8 481.435 519.8C482.875 519.8 483.859 520.952 483.859 522.584V530H486.715V522.392C486.715 520.88 487.819 519.8 489.427 519.8C490.843 519.8 491.827 520.952 491.827 522.584V530H494.683V522.104C494.683 519.296 492.739 517.304 490.147 517.304Z" fill="#434343"/>
<rect x="258.5" y="454.5" width="414" height="113" rx="2.5" stroke="#434343"/>
<path d="M854.472 518.264C858.408 518.264 860.664 516.176 860.664 513.224C860.664 510.224 858.36 509.12 854.928 508.352C852.312 507.752 851.088 507.272 851.088 505.928C851.088 504.776 852.216 503.768 853.872 503.768C855.504 503.768 857.16 504.464 858.6 505.712L860.232 503.504C858.576 502.088 856.608 501.2 853.992 501.2C850.512 501.2 848.064 503.312 848.064 506.192C848.064 509.288 850.44 510.272 853.848 511.064C856.488 511.688 857.664 512.144 857.664 513.512C857.664 514.688 856.608 515.696 854.568 515.696C852.408 515.696 850.656 514.832 849.144 513.464L847.416 515.6C849.24 517.304 851.64 518.264 854.472 518.264ZM870.087 515.696C868.311 515.696 867.015 514.496 866.655 512.792H876.015C876.015 508.208 873.783 505.304 869.943 505.304C866.415 505.304 863.631 508.04 863.631 511.76C863.631 515.576 866.559 518.288 870.111 518.288C871.911 518.288 874.071 517.52 875.151 516.368L873.303 514.448C872.607 515.168 871.239 515.696 870.087 515.696ZM870.063 507.896C871.815 507.896 872.871 509 873.207 510.56H866.679C867.111 508.928 868.431 507.896 870.063 507.896ZM885.529 518.288C887.497 518.288 889.153 517.472 890.353 516.2L888.385 514.496C887.689 515.288 886.633 515.792 885.553 515.792C883.513 515.792 881.809 513.968 881.809 511.784C881.809 509.624 883.513 507.8 885.553 507.8C886.609 507.8 887.641 508.304 888.313 509.048L890.281 507.32C889.105 506.096 887.449 505.304 885.577 505.304C881.953 505.304 878.905 508.256 878.905 511.784C878.905 515.312 881.953 518.288 885.529 518.288ZM902.055 505.592V513.44C901.863 514.76 900.591 515.792 899.055 515.792C897.519 515.792 896.439 514.592 896.439 512.912V505.592H893.607V513.488C893.607 516.296 895.503 518.288 898.215 518.288C899.847 518.288 901.287 517.496 902.055 516.344V518H904.983V505.592H902.055ZM912.21 507.992V505.592H909.282V518H912.21V511.736C912.21 509.384 913.986 507.8 916.65 507.8V505.304C914.61 505.304 913.002 506.336 912.21 507.992ZM921.307 503.72C922.219 503.72 922.963 502.928 922.963 502.04C922.963 501.152 922.219 500.384 921.307 500.384C920.371 500.384 919.627 501.152 919.627 502.04C919.627 502.928 920.371 503.72 921.307 503.72ZM919.819 518H922.747V505.592H919.819V518ZM933.175 515.336C932.911 515.6 932.455 515.792 931.951 515.792C931.255 515.792 930.727 515.192 930.727 514.352V508.016H933.535V505.592H930.727V502.184H927.871V505.592H926.071V508.016H927.871V514.712C927.871 516.8 929.311 518.288 931.375 518.288C932.311 518.288 933.319 517.904 934.015 517.304L933.175 515.336ZM939.808 522.32C941.68 522.296 943.12 521.216 944.056 518.864L949.312 505.592H946.288L942.88 514.856L939.256 505.592H936.16L941.416 518.096L940.888 519.2C940.528 519.8 940 520.016 939.304 520.016C938.848 520.016 938.248 519.848 937.72 519.56L937.096 521.672C937.84 522.08 938.872 522.32 939.808 522.32ZM966.644 515.336C966.38 515.6 965.924 515.792 965.42 515.792C964.724 515.792 964.196 515.192 964.196 514.352V508.016H967.004V505.592H964.196V502.184H961.34V505.592H959.54V508.016H961.34V514.712C961.34 516.8 962.78 518.288 964.844 518.288C965.78 518.288 966.788 517.904 967.484 517.304L966.644 515.336ZM976.54 515.696C974.764 515.696 973.468 514.496 973.108 512.792H982.468C982.468 508.208 980.236 505.304 976.396 505.304C972.868 505.304 970.084 508.04 970.084 511.76C970.084 515.576 973.012 518.288 976.564 518.288C978.364 518.288 980.524 517.52 981.604 516.368L979.756 514.448C979.06 515.168 977.692 515.696 976.54 515.696ZM976.516 507.896C978.268 507.896 979.324 509 979.66 510.56H973.132C973.564 508.928 974.884 507.896 976.516 507.896ZM991.406 505.304C989.846 505.304 988.214 505.736 986.462 506.6L987.47 508.64C988.526 508.112 989.654 507.704 990.83 507.704C993.086 507.704 993.878 509.096 993.878 510.536V510.872C992.75 510.44 991.526 510.2 990.398 510.2C987.614 510.2 985.334 511.88 985.334 514.328C985.334 516.728 987.326 518.288 989.966 518.288C991.406 518.288 992.966 517.664 993.878 516.512V518H996.734V510.536C996.734 507.392 994.694 505.304 991.406 505.304ZM990.614 516.152C989.222 516.152 988.19 515.408 988.19 514.232C988.19 513.056 989.366 512.24 990.83 512.24C991.934 512.24 992.966 512.408 993.878 512.72V514.112C993.542 515.432 992.03 516.152 990.614 516.152ZM1015.23 505.304C1013.38 505.304 1011.82 506.216 1011.22 507.656C1010.46 506.192 1009.02 505.304 1007.26 505.304C1005.7 505.304 1004.43 506.072 1003.81 507.272V505.592H1000.88V518H1003.81V510.392C1003.81 508.88 1004.94 507.8 1006.52 507.8C1007.96 507.8 1008.94 508.952 1008.94 510.584V518H1011.8V510.392C1011.8 508.88 1012.9 507.8 1014.51 507.8C1015.93 507.8 1016.91 508.952 1016.91 510.584V518H1019.77V510.104C1019.77 507.296 1017.82 505.304 1015.23 505.304Z" fill="#434343"/>
<rect x="727.5" y="454.5" width="414" height="113" rx="2.5" stroke="#434343"/>
</svg>
