<svg width="640" height="640" viewBox="0 0 640 640" fill="none" xmlns="http://www.w3.org/2000/svg">
<mask id="path-1-outside-1_61_97" maskUnits="userSpaceOnUse" x="17" y="1.57617" width="608" height="637" fill="black">
<rect fill="white" x="17" y="1.57617" width="608" height="637"/>
<path fill-rule="evenodd" clip-rule="evenodd" d="M332.707 48.4211C335.497 42.5977 337.604 36.3306 338.908 29.701L335.635 29.0574C294.378 20.9448 254.327 46.9563 244.669 87.4954C164.701 116.822 106.101 190.91 98.7745 279.654C95.3184 278.572 91.7105 277.999 88 277.999C62.5949 277.999 42 304.862 42 337.999C42 362.887 53.6174 384.236 70.1647 393.323C69.3942 397.988 69 402.717 69 407.499C69 435.649 82.6567 461.944 106.328 484.268C110.037 495.402 116.322 505.866 125.185 514.728L127.544 512.37C129.018 510.895 130.421 509.377 131.752 507.819C135.487 515.746 140.631 523.175 147.185 529.728L149.544 527.37C151.626 525.288 153.565 523.117 155.363 520.87C158.77 526.907 163.044 532.587 168.185 537.728L170.544 535.37C172.374 533.539 174.095 531.64 175.706 529.681C179.214 536.162 183.707 542.251 189.185 547.728L191.544 545.37C193.663 543.25 195.635 541.04 197.459 538.75C200.672 544.088 204.581 549.124 209.185 553.728L211.544 551.37C213.663 549.25 215.635 547.04 217.459 544.75C220.672 550.088 224.581 555.124 229.185 559.728L231.544 557.37C234.443 554.47 237.067 551.399 239.415 548.189C243.087 555.603 248.011 562.554 254.185 568.728L256.544 566.369C260.386 562.527 263.743 558.384 266.617 554.017C270.204 565.989 276.727 577.27 286.185 586.728L288.544 584.369C293.2 579.713 297.145 574.614 300.379 569.208C303.913 581.481 310.515 593.058 320.185 602.728L322.544 600.369C331.112 591.801 337.272 581.735 341.022 571.015C344.316 576.626 348.37 581.913 353.185 586.728L355.544 584.369C363.387 576.526 369.212 567.428 373.018 557.722C375.684 561.596 378.74 565.283 382.185 568.728L384.544 566.369C390.423 560.49 395.168 553.905 398.78 546.888C398.939 546.858 399.099 546.828 399.259 546.798C401.866 550.513 404.835 554.054 408.167 557.37L410.537 559.728C415.163 555.124 419.091 550.088 422.319 544.75C424.152 547.04 426.133 549.25 428.263 551.37L430.633 553.728C435.259 549.124 439.186 544.088 442.414 538.75C444.247 541.04 446.229 543.25 448.358 545.37L450.728 547.728C456.231 542.251 460.746 536.162 464.271 529.681C465.89 531.64 467.619 533.539 469.458 535.37L471.828 537.728C476.994 532.587 481.288 526.907 484.711 520.87C486.517 523.117 488.466 525.288 490.558 527.37L492.928 529.728C499.513 523.175 504.681 515.746 508.434 507.819C509.772 509.377 511.182 510.895 512.663 512.37L515.033 514.728C523.317 506.483 529.36 496.853 533.162 486.586C558.376 463.773 573 436.629 573 407.499C573 402.717 572.606 397.988 571.835 393.323C588.383 384.236 600 362.887 600 337.999C600 304.862 579.405 277.999 554 277.999C550.289 277.999 546.682 278.572 543.225 279.654C536.148 193.924 481.221 121.871 405.403 90.6372C408.316 86.9062 410.929 82.8562 413.189 78.504L410.228 76.9666C401.295 72.3274 391.878 69.5848 382.438 68.593C385.336 64.8743 387.938 60.8391 390.189 56.504L387.228 54.9666C369.756 45.8933 350.435 44.0744 332.707 48.4211Z"/>
</mask>
<path fill-rule="evenodd" clip-rule="evenodd" d="M332.707 48.4211C335.497 42.5977 337.604 36.3306 338.908 29.701L335.635 29.0574C294.378 20.9448 254.327 46.9563 244.669 87.4954C164.701 116.822 106.101 190.91 98.7745 279.654C95.3184 278.572 91.7105 277.999 88 277.999C62.5949 277.999 42 304.862 42 337.999C42 362.887 53.6174 384.236 70.1647 393.323C69.3942 397.988 69 402.717 69 407.499C69 435.649 82.6567 461.944 106.328 484.268C110.037 495.402 116.322 505.866 125.185 514.728L127.544 512.37C129.018 510.895 130.421 509.377 131.752 507.819C135.487 515.746 140.631 523.175 147.185 529.728L149.544 527.37C151.626 525.288 153.565 523.117 155.363 520.87C158.77 526.907 163.044 532.587 168.185 537.728L170.544 535.37C172.374 533.539 174.095 531.64 175.706 529.681C179.214 536.162 183.707 542.251 189.185 547.728L191.544 545.37C193.663 543.25 195.635 541.04 197.459 538.75C200.672 544.088 204.581 549.124 209.185 553.728L211.544 551.37C213.663 549.25 215.635 547.04 217.459 544.75C220.672 550.088 224.581 555.124 229.185 559.728L231.544 557.37C234.443 554.47 237.067 551.399 239.415 548.189C243.087 555.603 248.011 562.554 254.185 568.728L256.544 566.369C260.386 562.527 263.743 558.384 266.617 554.017C270.204 565.989 276.727 577.27 286.185 586.728L288.544 584.369C293.2 579.713 297.145 574.614 300.379 569.208C303.913 581.481 310.515 593.058 320.185 602.728L322.544 600.369C331.112 591.801 337.272 581.735 341.022 571.015C344.316 576.626 348.37 581.913 353.185 586.728L355.544 584.369C363.387 576.526 369.212 567.428 373.018 557.722C375.684 561.596 378.74 565.283 382.185 568.728L384.544 566.369C390.423 560.49 395.168 553.905 398.78 546.888C398.939 546.858 399.099 546.828 399.259 546.798C401.866 550.513 404.835 554.054 408.167 557.37L410.537 559.728C415.163 555.124 419.091 550.088 422.319 544.75C424.152 547.04 426.133 549.25 428.263 551.37L430.633 553.728C435.259 549.124 439.186 544.088 442.414 538.75C444.247 541.04 446.229 543.25 448.358 545.37L450.728 547.728C456.231 542.251 460.746 536.162 464.271 529.681C465.89 531.64 467.619 533.539 469.458 535.37L471.828 537.728C476.994 532.587 481.288 526.907 484.711 520.87C486.517 523.117 488.466 525.288 490.558 527.37L492.928 529.728C499.513 523.175 504.681 515.746 508.434 507.819C509.772 509.377 511.182 510.895 512.663 512.37L515.033 514.728C523.317 506.483 529.36 496.853 533.162 486.586C558.376 463.773 573 436.629 573 407.499C573 402.717 572.606 397.988 571.835 393.323C588.383 384.236 600 362.887 600 337.999C600 304.862 579.405 277.999 554 277.999C550.289 277.999 546.682 278.572 543.225 279.654C536.148 193.924 481.221 121.871 405.403 90.6372C408.316 86.9062 410.929 82.8562 413.189 78.504L410.228 76.9666C401.295 72.3274 391.878 69.5848 382.438 68.593C385.336 64.8743 387.938 60.8391 390.189 56.504L387.228 54.9666C369.756 45.8933 350.435 44.0744 332.707 48.4211Z" fill="#F7BEA5"/>
<path d="M338.908 29.701L363.438 34.5246L368.262 9.99441L343.731 5.1708L338.908 29.701ZM332.707 48.4211L310.161 37.6191L287.322 85.2893L338.66 72.7019L332.707 48.4211ZM335.635 29.0574L340.458 4.52716V4.52715L335.635 29.0574ZM244.669 87.4954L253.277 110.967L265.879 106.346L268.989 93.2888L244.669 87.4954ZM98.7745 279.654L91.3058 303.513L121.119 312.846L123.69 281.711L98.7745 279.654ZM70.1647 393.323L94.8305 397.397L97.7155 379.931L82.1982 371.41L70.1647 393.323ZM106.328 484.268L130.047 476.368L128.059 470.398L123.481 466.08L106.328 484.268ZM125.185 514.728L107.507 532.406L125.185 550.084L142.862 532.406L125.185 514.728ZM127.544 512.37L145.221 530.047L145.221 530.047L127.544 512.37ZM131.752 507.819L154.368 497.163L137.878 462.163L112.745 491.579L131.752 507.819ZM147.185 529.728L129.507 547.406L147.185 565.084L164.862 547.406L147.185 529.728ZM149.544 527.37L167.221 545.047H167.221L149.544 527.37ZM155.363 520.87L177.136 508.584L158.954 476.365L135.842 505.252L155.363 520.87ZM168.185 537.728L150.507 555.406L168.185 573.084L185.862 555.406L168.185 537.728ZM170.544 535.37L152.866 517.692L152.866 517.692L170.544 535.37ZM175.706 529.681L197.691 517.779L179.997 485.097L156.395 513.804L175.706 529.681ZM189.185 547.728L171.507 565.406L189.185 583.084L206.862 565.406L189.185 547.728ZM191.544 545.37L209.221 563.047L209.221 563.047L191.544 545.37ZM197.459 538.75L218.878 525.857L200.326 495.037L177.907 523.17L197.459 538.75ZM209.185 553.728L191.507 571.406L209.185 589.084L226.862 571.406L209.185 553.728ZM211.544 551.37L229.221 569.047L229.221 569.047L211.544 551.37ZM217.459 544.75L238.878 531.857L220.326 501.037L197.907 529.17L217.459 544.75ZM229.185 559.728L211.507 577.406L229.185 595.084L246.862 577.406L229.185 559.728ZM231.544 557.37L249.221 575.047L249.221 575.047L231.544 557.37ZM239.415 548.189L261.817 537.091L243.542 500.202L219.237 533.43L239.415 548.189ZM254.185 568.728L236.507 586.406L254.185 604.083L271.863 586.406L254.185 568.728ZM256.544 566.369L274.221 584.047L274.221 584.047L256.544 566.369ZM266.617 554.017L290.564 546.84L275.181 495.508L245.73 540.277L266.617 554.017ZM286.185 586.728L268.507 604.406L286.185 622.083L303.863 604.406L286.185 586.728ZM288.544 584.369L270.866 566.691L270.866 566.691L288.544 584.369ZM300.379 569.208L324.403 562.291L308.476 506.974L278.925 556.374L300.379 569.208ZM320.185 602.728L302.507 620.406L320.185 638.083L337.863 620.406L320.185 602.728ZM341.022 571.015L362.582 558.359L335.253 511.802L317.425 562.759L341.022 571.015ZM353.185 586.728L335.507 604.406L353.185 622.083L370.863 604.406L353.185 586.728ZM373.018 557.722L393.613 543.549L366.928 504.776L349.744 548.595L373.018 557.722ZM382.185 568.728L364.507 586.406L382.185 604.083L399.863 586.406L382.185 568.728ZM384.544 566.369L402.221 584.047L402.221 584.047L384.544 566.369ZM398.78 546.888L394.149 522.321L382.141 524.584L376.55 535.449L398.78 546.888ZM399.259 546.798L419.725 532.439L410.455 519.226L394.597 522.236L399.259 546.798ZM408.167 557.37L390.532 575.089L390.532 575.089L408.167 557.37ZM410.537 559.728L392.902 577.448L410.537 595L428.173 577.448L410.537 559.728ZM422.319 544.75L441.834 529.125L419.456 501.176L400.927 531.812L422.319 544.75ZM428.263 551.37L410.627 569.089L410.627 569.089L428.263 551.37ZM430.633 553.728L412.997 571.448L430.633 589L448.268 571.448L430.633 553.728ZM442.414 538.75L461.93 523.125L439.552 495.176L421.022 525.812L442.414 538.75ZM448.358 545.37L465.993 527.65L465.993 527.65L448.358 545.37ZM450.728 547.728L433.092 565.448L450.728 583L468.363 565.448L450.728 547.728ZM464.271 529.681L483.545 513.759L459.986 485.24L442.31 517.735L464.271 529.681ZM469.458 535.37L451.822 553.089L451.822 553.089L469.458 535.37ZM471.828 537.728L454.192 555.448L471.828 573L489.464 555.448L471.828 537.728ZM484.711 520.87L504.195 505.207L481.125 476.508L462.963 508.54L484.711 520.87ZM490.558 527.37L472.922 545.089L472.922 545.089L490.558 527.37ZM492.928 529.728L475.292 547.448L492.928 565L510.564 547.448L492.928 529.728ZM508.434 507.819L527.403 491.534L502.317 462.312L485.838 497.122L508.434 507.819ZM512.663 512.37L530.298 494.65H530.298L512.663 512.37ZM515.033 514.728L497.397 532.448L515.033 550L532.668 532.448L515.033 514.728ZM533.162 486.586L516.389 468.048L511.846 472.158L509.718 477.904L533.162 486.586ZM571.835 393.323L559.802 371.41L544.285 379.931L547.169 397.397L571.835 393.323ZM543.225 279.654L518.31 281.711L520.881 312.846L550.694 303.513L543.225 279.654ZM405.403 90.6372L385.697 75.2539L365.435 101.21L395.881 113.753L405.403 90.6372ZM413.189 78.504L435.376 90.0255L446.897 67.8387L424.71 56.3172L413.189 78.504ZM410.228 76.9666L398.707 99.1534V99.1534L410.228 76.9666ZM382.438 68.593L362.72 53.224L335.029 88.7501L379.826 93.4562L382.438 68.593ZM390.189 56.504L412.376 68.0255L423.897 45.8388L401.71 34.3172L390.189 56.504ZM387.228 54.9666L375.707 77.1534L387.228 54.9666ZM314.378 24.8775C313.484 29.4211 312.048 33.6808 310.161 37.6191L355.253 59.223C358.946 51.5146 361.724 43.2401 363.438 34.5246L314.378 24.8775ZM330.811 53.5876L334.084 54.2313L343.731 5.1708L340.458 4.52716L330.811 53.5876ZM268.989 93.2888C275.548 65.7532 302.776 48.0749 330.811 53.5876L340.458 4.52715C285.98 -6.18531 233.105 28.1594 220.35 81.702L268.989 93.2888ZM123.69 281.711C130.201 202.834 182.297 136.997 253.277 110.967L236.062 64.0239C147.104 96.6468 82.0001 178.986 73.8593 277.598L123.69 281.711ZM88 302.999C89.1106 302.999 90.2023 303.167 91.3058 303.513L106.243 255.796C100.434 253.978 94.3105 252.999 88 252.999V302.999ZM67 337.999C67 326.447 70.6178 316.908 75.3132 310.784C79.9896 304.684 84.6956 302.999 88 302.999V252.999C65.8993 252.999 47.6053 264.746 35.6329 280.362C23.6796 295.954 17 316.415 17 337.999H67ZM82.1982 371.41C75.4483 367.703 67 356.021 67 337.999H17C17 369.753 31.7865 400.769 58.1312 415.236L82.1982 371.41ZM94 407.499C94 404.096 94.2801 400.729 94.8305 397.397L45.4989 389.249C44.5083 395.246 44 401.338 44 407.499H94ZM123.481 466.08C103.361 447.106 94 426.99 94 407.499H44C44 444.308 61.9527 476.783 89.1761 502.456L123.481 466.08ZM142.862 497.051C136.807 490.995 132.556 483.901 130.047 476.368L82.6094 492.168C87.5171 506.903 95.8373 520.736 107.507 532.406L142.862 497.051ZM109.866 494.692L107.507 497.051L142.862 532.406L145.221 530.047L109.866 494.692ZM112.745 491.579C111.837 492.641 110.878 493.68 109.866 494.692L145.221 530.047C147.158 528.111 149.004 526.113 150.759 524.058L112.745 491.579ZM164.862 512.051C160.377 507.565 156.892 502.52 154.368 497.163L109.136 518.474C114.083 528.972 120.886 538.785 129.507 547.406L164.862 512.051ZM131.866 509.692L129.507 512.051L164.862 547.406L167.221 545.047L131.866 509.692ZM135.842 505.252C134.619 506.78 133.295 508.263 131.866 509.692L167.221 545.047C169.956 542.312 172.511 539.454 174.884 536.489L135.842 505.252ZM185.862 520.051C182.34 516.528 179.439 512.666 177.136 508.584L133.59 533.157C138.101 541.149 143.748 548.647 150.507 555.406L185.862 520.051ZM152.866 517.692L150.507 520.051L185.862 555.406L188.221 553.047L152.866 517.692ZM156.395 513.804C155.298 515.138 154.122 516.436 152.866 517.692L188.221 553.047C190.626 550.642 192.892 548.143 195.017 545.558L156.395 513.804ZM206.862 530.051C203.11 526.298 200.062 522.159 197.691 517.779L153.721 541.583C158.366 550.165 164.305 558.203 171.507 565.406L206.862 530.051ZM173.866 527.692L171.507 530.051L206.862 565.406L209.221 563.047L173.866 527.692ZM177.907 523.17C176.667 524.727 175.32 526.238 173.866 527.692L209.221 563.047C212.005 560.263 214.603 557.352 217.011 554.33L177.907 523.17ZM226.862 536.051C223.707 532.895 221.051 529.468 218.878 525.857L176.04 551.643C180.293 558.708 185.455 565.354 191.507 571.406L226.862 536.051ZM193.866 533.692L191.507 536.051L226.862 571.406L229.221 569.047L193.866 533.692ZM197.907 529.17C196.667 530.728 195.32 532.238 193.866 533.692L229.221 569.047C232.005 566.263 234.603 563.352 237.011 560.33L197.907 529.17ZM246.862 542.051C243.707 538.895 241.051 535.468 238.878 531.857L196.04 557.643C200.293 564.708 205.455 571.354 211.507 577.406L246.862 542.051ZM213.866 539.692L211.507 542.051L246.862 577.406L249.221 575.047L213.866 539.692ZM219.237 533.43C217.644 535.608 215.855 537.703 213.866 539.692L249.221 575.047C253.031 571.237 256.49 567.19 259.593 562.949L219.237 533.43ZM271.863 551.05C267.635 546.823 264.298 542.101 261.817 537.091L217.013 559.287C221.877 569.104 228.386 578.285 236.507 586.406L271.863 551.05ZM238.866 548.691L236.507 551.05L271.863 586.406L274.221 584.047L238.866 548.691ZM245.73 540.277C243.785 543.235 241.501 546.057 238.866 548.691L274.221 584.047C279.271 578.998 283.702 573.534 287.503 567.756L245.73 540.277ZM303.863 569.05C297.404 562.591 292.993 554.945 290.564 546.84L242.669 561.193C247.416 577.033 256.051 591.949 268.507 604.406L303.863 569.05ZM270.866 566.691L268.507 569.05L303.863 604.406L306.221 602.047L270.866 566.691ZM278.925 556.374C276.738 560.03 274.058 563.5 270.866 566.691L306.221 602.047C312.343 595.925 317.553 589.197 321.833 582.042L278.925 556.374ZM337.862 585.05C331.26 578.448 326.796 570.602 324.403 562.291L276.355 576.125C281.03 592.361 289.77 607.668 302.507 620.406L337.862 585.05ZM304.866 582.691L302.507 585.05L337.863 620.406L340.221 618.047L304.866 582.691ZM317.425 562.759C314.888 570.01 310.722 576.836 304.866 582.691L340.221 618.047C351.502 606.766 359.655 593.46 364.62 579.271L317.425 562.759ZM370.863 569.05C367.563 565.75 364.809 562.153 362.582 558.359L319.462 583.671C323.822 591.098 329.177 598.076 335.507 604.406L370.863 569.05ZM337.866 566.691L335.507 569.05L370.863 604.406L373.221 602.047L337.866 566.691ZM349.744 548.595C347.171 555.156 343.229 561.328 337.866 566.691L373.221 602.047C383.545 591.724 391.253 579.7 396.293 566.85L349.744 548.595ZM399.863 551.05C397.5 548.687 395.419 546.175 393.613 543.549L352.424 571.895C355.95 577.018 359.98 581.879 364.507 586.406L399.863 551.05ZM366.866 548.691L364.507 551.05L399.863 586.406L402.221 584.047L366.866 548.691ZM376.55 535.449C374.11 540.191 370.893 544.665 366.866 548.691L402.221 584.047C409.954 576.314 416.227 567.62 421.009 558.328L376.55 535.449ZM394.597 522.236C394.451 522.264 394.302 522.292 394.149 522.321L403.41 571.456C403.577 571.424 403.748 571.392 403.921 571.359L394.597 522.236ZM378.794 561.156C382.24 566.068 386.156 570.734 390.532 575.089L425.803 539.65C423.515 537.373 421.492 534.958 419.725 532.439L378.794 561.156ZM390.532 575.089L392.902 577.448L428.173 542.009L425.803 539.65L390.532 575.089ZM428.173 577.448C434.251 571.399 439.437 564.755 443.711 557.688L400.927 531.812C398.744 535.421 396.076 538.85 392.902 542.009L428.173 577.448ZM402.804 560.376C405.223 563.397 407.831 566.307 410.627 569.089L445.898 533.65C444.435 532.194 443.082 530.683 441.834 529.125L402.804 560.376ZM410.627 569.089L412.997 571.448L448.268 536.009L445.898 533.65L410.627 569.089ZM448.268 571.448C454.346 565.399 459.532 558.755 463.806 551.688L421.022 525.812C418.84 529.421 416.171 532.849 412.997 536.009L448.268 571.448ZM422.899 554.376C425.318 557.397 427.927 560.307 430.722 563.089L465.993 527.65C464.531 526.194 463.177 524.683 461.93 523.125L422.899 554.376ZM430.722 563.089L433.092 565.448L468.364 530.009L465.993 527.65L430.722 563.089ZM468.363 565.448C475.596 558.25 481.563 550.212 486.232 541.627L442.31 517.735C439.929 522.112 436.867 526.252 433.092 530.009L468.363 565.448ZM444.997 545.603C447.132 548.187 449.407 550.686 451.822 553.089L487.094 517.65C485.83 516.392 484.647 515.093 483.545 513.759L444.997 545.603ZM451.822 553.089L454.192 555.448L489.463 520.009L487.093 517.65L451.822 553.089ZM489.464 555.448C496.251 548.692 501.925 541.196 506.458 533.201L462.963 508.54C460.651 512.619 457.736 516.482 454.192 520.009L489.464 555.448ZM465.226 536.534C467.609 539.499 470.176 542.356 472.922 545.089L508.194 509.65C506.756 508.22 505.424 506.736 504.195 505.207L465.226 536.534ZM472.922 545.089L475.292 547.448L510.564 512.009L508.193 509.65L472.922 545.089ZM510.564 547.448C519.221 538.832 526.057 529.02 531.03 518.515L485.838 497.122C483.305 502.473 479.804 507.518 475.292 512.009L510.564 547.448ZM489.465 524.103C491.228 526.157 493.083 528.154 495.027 530.089L530.298 494.65C529.281 493.637 528.316 492.597 527.403 491.534L489.465 524.103ZM495.027 530.089L497.397 532.448L532.668 497.009L530.298 494.65L495.027 530.089ZM532.668 532.448C543.568 521.6 551.569 508.87 556.606 495.268L509.718 477.904C507.151 484.836 503.066 491.367 497.397 497.009L532.668 532.448ZM548 407.499C548 427.651 537.975 448.517 516.389 468.048L549.935 505.124C578.776 479.03 598 445.608 598 407.499H548ZM547.169 397.397C547.72 400.73 548 404.096 548 407.499H598C598 401.338 597.492 395.246 596.501 389.249L547.169 397.397ZM575 337.999C575 356.021 566.552 367.703 559.802 371.41L583.869 415.236C610.214 400.769 625 369.753 625 337.999H575ZM554 302.999C557.304 302.999 562.01 304.684 566.687 310.784C571.382 316.908 575 326.447 575 337.999H625C625 316.415 618.32 295.954 606.367 280.362C594.395 264.746 576.101 252.999 554 252.999V302.999ZM550.694 303.513C551.798 303.167 552.889 302.999 554 302.999V252.999C547.69 252.999 541.566 253.978 535.757 255.796L550.694 303.513ZM395.881 113.753C463.195 141.484 512.02 205.518 518.31 281.711L568.141 277.598C560.276 182.33 499.246 102.259 414.926 67.5219L395.881 113.753ZM391.002 66.9824C389.452 69.9675 387.67 72.7256 385.697 75.2539L425.11 106.02C428.961 101.087 432.405 95.7449 435.376 90.0255L391.002 66.9824ZM398.707 99.1534L401.667 100.691L424.71 56.3172L421.75 54.7798L398.707 99.1534ZM379.826 93.4562C386.205 94.1264 392.594 95.9792 398.707 99.1534L421.75 54.7798C409.995 48.6757 397.55 45.0431 385.05 43.7299L379.826 93.4562ZM368.002 44.9824C366.458 47.9558 364.684 50.7038 362.72 53.224L402.156 83.962C405.988 79.0447 409.417 73.7223 412.376 68.0255L368.002 44.9824ZM375.707 77.1534L378.667 78.6908L401.71 34.3172L398.75 32.7798L375.707 77.1534ZM338.66 72.7019C350.728 69.7431 363.816 70.9784 375.707 77.1534L398.75 32.7798C375.696 20.8082 350.142 18.4057 326.754 24.1403L338.66 72.7019Z" fill="#144A49" mask="url(#path-1-outside-1_61_97)"/>
<ellipse cx="88" cy="338" rx="46" ry="60" fill="#F7BEA5"/>
<ellipse cx="91.5" cy="338" rx="33.5" ry="44" fill="#B17D67"/>
<ellipse cx="554" cy="338" rx="46" ry="60" fill="#F7BEA5"/>
<ellipse cx="550.5" cy="338" rx="33.5" ry="44" fill="#B17D67"/>
<ellipse cx="321" cy="298.5" rx="223" ry="224.5" fill="#2B9591"/>
<ellipse cx="321" cy="407.5" rx="252" ry="146.5" fill="#2B9591"/>
<path fill-rule="evenodd" clip-rule="evenodd" d="M321 175.414C301.048 152.759 274.781 139 246 139C183.592 139 133 203.695 133 283.5C133 307.752 137.672 330.609 145.929 350.679C130.667 364.9 122 381.189 122 398.5C122 454.005 211.095 499 321 499C430.905 499 520 454.005 520 398.5C520 381.189 511.333 364.9 496.071 350.679C504.328 330.609 509 307.752 509 283.5C509 203.695 458.408 139 396 139C367.219 139 340.952 152.759 321 175.414Z" fill="#F7BEA5"/>
<path d="M109 238.158C109 225.368 119.368 215 132.158 215H210.053V261.316H132.158C119.368 261.316 109 250.948 109 238.158Z" fill="#434343"/>
<rect x="142.684" y="215" width="166.316" height="166.316" rx="60" fill="#434343"/>
<rect x="162.684" y="235" width="126.316" height="126.316" rx="40" fill="white"/>
<path d="M532.988 238.158C532.988 225.368 522.62 215 509.83 215H431.936V261.316H509.83C522.62 261.316 532.988 250.948 532.988 238.158Z" fill="#434343"/>
<circle cx="510.001" cy="238" r="10" fill="#A1A1A1"/>
<rect width="166.316" height="166.316" rx="60" transform="matrix(-1 0 0 1 499.304 215)" fill="#434343"/>
<rect width="126.316" height="126.316" rx="40" transform="matrix(-1 0 0 1 479.304 235)" fill="white"/>
<ellipse cx="321" cy="363" rx="64" ry="50" fill="#F7BEA5"/>
<ellipse cx="321" cy="338" rx="27" ry="21" fill="#8C5137"/>
<ellipse cx="233.495" cy="297.967" rx="41.4296" ry="57.033" fill="#CD7955"/>
<ellipse cx="233.495" cy="298.505" rx="28.5165" ry="39.2775" fill="#672D14"/>
<circle cx="204.978" cy="281.825" r="27.9785" fill="white"/>
<ellipse cx="418.495" cy="298.033" rx="41.4296" ry="57.033" fill="#CD7955"/>
<ellipse cx="418.495" cy="298.571" rx="28.5165" ry="39.2775" fill="#672D14"/>
<circle cx="389.978" cy="281.892" r="27.9785" fill="white"/>
<path d="M322.543 490C353.021 520.478 353.021 569.892 322.543 600.37L320.184 602.728C289.706 572.251 289.706 522.837 320.184 492.359L322.543 490Z" fill="#2B9591"/>
<path d="M288.543 474C319.021 504.478 319.021 553.892 288.543 584.37L286.184 586.728C255.706 556.251 255.706 506.837 286.184 476.359L288.543 474Z" fill="#2B9591"/>
<path d="M355.543 474C386.021 504.478 386.021 553.892 355.543 584.37L353.184 586.728C322.706 556.251 322.706 506.837 353.184 476.359L355.543 474Z" fill="#2B9591"/>
<path d="M384.543 456C415.021 486.478 415.021 535.892 384.543 566.37L382.184 568.728C351.706 538.251 351.706 488.837 382.184 458.359L384.543 456Z" fill="#2B9591"/>
<path d="M256.543 456C287.021 486.478 287.021 535.892 256.543 566.37L254.184 568.728C223.706 538.251 223.706 488.837 254.184 458.359L256.543 456Z" fill="#2B9591"/>
<path fill-rule="evenodd" clip-rule="evenodd" d="M142.976 423.91C139.241 415.982 134.097 408.553 127.544 402L125.185 404.359C94.707 434.837 94.707 484.251 125.185 514.728L127.544 512.37C129.018 510.895 130.421 509.377 131.752 507.819C135.487 515.746 140.631 523.175 147.185 529.728L149.544 527.37C151.626 525.288 153.565 523.117 155.363 520.87C158.77 526.907 163.044 532.587 168.185 537.728L170.544 535.37C172.374 533.539 174.095 531.64 175.706 529.681C179.214 536.162 183.707 542.251 189.185 547.728L191.544 545.37C193.663 543.25 195.635 541.04 197.459 538.75C200.672 544.088 204.581 549.124 209.185 553.728L211.544 551.37C213.663 549.25 215.635 547.04 217.459 544.75C220.672 550.088 224.581 555.124 229.185 559.728L231.544 557.37C262.021 526.892 262.021 477.478 231.544 447L229.185 449.359C227.066 451.478 225.094 453.689 223.269 455.978C220.056 450.64 216.148 445.604 211.544 441L209.185 443.359C207.066 445.478 205.094 447.689 203.269 449.978C200.056 444.64 196.148 439.604 191.544 435L189.185 437.359C187.354 439.189 185.633 441.088 184.023 443.047C180.514 436.567 176.021 430.477 170.544 425L168.185 427.359C166.103 429.441 164.163 431.611 162.365 433.858C158.959 427.821 154.685 422.141 149.544 417L147.185 419.359C145.711 420.833 144.308 422.351 142.976 423.91Z" fill="#2B9591"/>
<path fill-rule="evenodd" clip-rule="evenodd" d="M497.157 423.91C500.909 415.982 506.078 408.553 512.663 402L515.033 404.359C545.656 434.837 545.656 484.251 515.033 514.728L512.663 512.37C511.182 510.895 509.772 509.377 508.434 507.819C504.681 515.746 499.513 523.175 492.928 529.728L490.558 527.37C488.466 525.288 486.517 523.117 484.711 520.87C481.288 526.907 476.994 532.587 471.828 537.728L469.458 535.37C467.619 533.539 465.89 531.64 464.271 529.681C460.746 536.162 456.231 542.251 450.728 547.728L448.358 545.37C446.229 543.25 444.247 541.04 442.414 538.75C439.186 544.088 435.259 549.124 430.633 553.728L428.263 551.37C426.133 549.25 424.152 547.04 422.319 544.75C419.091 550.088 415.163 555.124 410.537 559.728L408.167 557.37C377.544 526.892 377.544 477.478 408.167 447L410.537 449.359C412.667 451.478 414.648 453.689 416.481 455.978C419.709 450.64 423.636 445.604 428.263 441L430.633 443.359C432.762 445.478 434.743 447.689 436.576 449.978C439.805 444.64 443.732 439.604 448.358 435L450.728 437.359C452.567 439.189 454.296 441.088 455.914 443.047C459.44 436.567 463.954 430.477 469.458 425L471.828 427.359C473.92 429.441 475.869 431.611 477.675 433.858C481.098 427.821 485.392 422.141 490.558 417L492.928 419.359C494.409 420.833 495.819 422.351 497.157 423.91Z" fill="#2B9591"/>
<path d="M513.422 342.268C587.602 419.497 493.256 530 322.956 530C152.656 530 48.8837 429.311 132.49 342.268C216.096 255.226 217.765 371.848 322.956 371.848C428.148 371.848 439.242 265.04 513.422 342.268Z" fill="#F7BEA5"/>
<path d="M492.566 364.234C538.056 414.11 474.571 545 322.605 545C170.64 545 96.6572 425.62 152.644 364.234C208.632 302.849 228.739 394.081 322.605 394.081C416.472 394.081 447.077 314.359 492.566 364.234Z" fill="white"/>
<rect x="312" y="422" width="18" height="80" rx="9" fill="#D5D6D9"/>
<rect x="241" y="402" width="18" height="80" rx="9" transform="rotate(30 241 402)" fill="#D5D6D9"/>
<rect x="396" y="411" width="18" height="80" rx="9" transform="rotate(-30 396 411)" fill="#D5D6D9"/>
<ellipse cx="321" cy="326.5" rx="9" ry="6.5" fill="white"/>
<ellipse cx="467" cy="331" rx="6" ry="4" fill="#FFEDE5"/>
<ellipse cx="467" cy="331" rx="6" ry="4" fill="#FFEDE5"/>
<ellipse cx="467" cy="331" rx="6" ry="4" fill="#FFEDE5"/>
<ellipse cx="175" cy="331" rx="6" ry="4" fill="#FFEDE5"/>
<ellipse cx="175" cy="331" rx="6" ry="4" fill="#FFEDE5"/>
<ellipse cx="175" cy="331" rx="6" ry="4" fill="#FFEDE5"/>
<path d="M338.908 29.7012C330.592 71.9933 289.566 99.5361 247.274 91.2199L244 90.5762C252.317 48.2841 293.343 20.7413 335.635 29.0575L338.908 29.7012Z" fill="#2B9591"/>
<path d="M390.189 56.5039C370.325 94.7557 323.213 109.662 284.961 89.7978L282.001 88.2604C301.865 50.0086 348.977 35.1024 387.229 54.9665L390.189 56.5039Z" fill="#2B9591"/>
<path d="M413.189 78.5039C393.325 116.756 346.213 131.662 307.961 111.798L305.001 110.26C324.865 72.0086 371.977 57.1024 410.229 76.9665L413.189 78.5039Z" fill="#2B9591"/>
<circle cx="132" cy="238" r="10" fill="#A1A1A1"/>
<rect x="206" y="166.801" width="34" height="24" rx="12" transform="rotate(-15 206 166.801)" fill="#247B79"/>
<rect x="402.211" y="158" width="34" height="24" rx="12" transform="rotate(15 402.211 158)" fill="#247B79"/>
<path d="M301 274C313.656 267.989 328.344 267.989 341 274V304C330.823 291.025 311.177 291.025 301 304V274Z" fill="#434343"/>
<ellipse cx="321" cy="276" rx="8" ry="2" fill="white"/>
</svg>
